<svg xmlns="http://www.w3.org/2000/svg" width="64" height="64"><g fill="none" fill-rule="evenodd"><path fill="#3E566D" d="M0 0h64v64H0z"/><g fill-rule="nonzero"><path fill="#000" d="M52 16a2 2 0 0 0-2-2H14a2 2 0 0 0-2 2v34a2 2 0 0 0 2 2h36a2 2 0 0 0 2-2V16z" opacity=".1"/><path fill="#FFBE2A" d="M24 51H14a2 2 0 0 1-2-2v-6h12v8z"/><path fill="#BDC3C7" d="M26 43h12v8H26zm24 8H40v-8h12v6a2 2 0 0 1-2 2z"/><path fill="#FFBE2A" d="M12 23h12v8H12z"/><path fill="#BDC3C7" d="M26 23h12v8H26zm14 0h12v8H40z"/><path fill="#FFBE2A" d="M12 33h12v8H12z"/><path fill="#BDC3C7" d="M26 33h12v8H26zm14 0h12v8H40zM24 21H12v-6a2 2 0 0 1 2-2h10v8z"/><path fill="#4AA4EC" d="M26 13h12v8H26zm26 8H40v-8h10a2 2 0 0 1 2 2v6z"/><path fill="#FFF" d="M12 21h40v2H12zm0 10h40v2H12zm0 10h40v2H12z"/><path fill="#FFF" d="M24 13h2v38h-2zm14 0h2v38h-2z"/></g></g></svg>