<svg viewBox="0 0 64 64" xmlns="http://www.w3.org/2000/svg"><path d="m0 0h64v64h-64z" fill="#113450"/><path d="m40.031 37.909c1.216-1.451 2.191-3.108 2.873-4.909h-3.269c-2.249 4.725-7.053 8-12.635 8-7.732 0-14-6.268-14-14s6.268-14 14-14c5.582 0 10.386 3.274 12.635 8h3.255c-2.427-6.424-8.616-11-15.89-11-9.389 0-17 7.611-17 17s7.611 17 17 17c4.154 0 7.957-1.494 10.91-3.969l13.969 13.969 2.121-2.121-13.969-13.969z" fill="#4aa4ec"/><path d="m30 27c0 1.105-.895 2-2 2s-2-.895-2-2 .895-2 2-2 2 .895 2 2zm5-2c-1.105 0-2 .895-2 2s.895 2 2 2 2-.895 2-2-.895-2-2-2zm7 0c-1.105 0-2 .895-2 2s.895 2 2 2 2-.895 2-2-.895-2-2-2zm-18 9-2-1v-12l2-1v-1h-4v16h4zm22-14 2 1v12l-2 1v1h4v-16h-4z" fill="#fff"/></svg>