<?xml version="1.0" encoding="UTF-8"?>
<svg xmlns="http://www.w3.org/2000/svg" viewBox="0 0 32 32">
  <g id="a" data-name="background">
    <rect width="32" height="32" fill="#2d5366" stroke-width="0"/>
  </g>
  <g id="b" data-name="artwork">
    <path d="m26.294.016c-2.284,2.245-3.671,5.463-3.784,9.048v.792c0,.536-.108,1.067-.317,1.56l-1.69,3.986c-.151.356.084.757.468.8l.939.104c.506.056.89.484.89.994v1.533c.929.156,2.48-.155,3.43-.586-.63,1.63-1.469,2.308-3.43,2.712v1.533c0,1.103.895,1.998,1.998,1.998h2.209v7.442c1.498.017,2.722.033,2.722.05h2.273V.016h-5.706Z" fill="#ce9364" stroke-width="0"/>
    <g opacity=".6">
      <path d="m27.005,24.491v1.382c2.097-.455,2.997-2.131,2.997-2.131l-1.489.558c-.336.126-.693.191-1.052.191h-.456Z" fill="#986854" stroke-width="0"/>
    </g>
    <path d="m16,3H5c-1.105,0-2,.895-2,2v11c0,1.105.895,2,2,2h11c1.105,0,2-.895,2-2V5c0-1.105-.895-2-2-2Z" fill="#fcfbfa" stroke-width="0"/>
    <path d="m7.274,30.878c-.018.115-.121.198-.237.192-3.57-.169-4.215.046-4.22.354-.003.184.224.368,1.173.559h13.009l-.796-.533c-.721-.482-1.311-1.137-1.717-1.905l-1.306-2.47c-.151-.286-.335-.554-.548-.798l-.76-.871c-.094-.108-.179-.222-.256-.343l-.947-1.495c-.051-.08-.153-.108-.231-.064l-.017.009c-.243.139-.396.396-.406.685l-.004.097c-.005.141.024.283.085.414l.365.783c.317.679.437.904.608,1.628l-1.392-.628c-.231-.104-.454-.226-.667-.363-3.796-2.44-4.578-2.633-4.747-2.356-.168.275.325.923,3.988,3.422.102.07.136.207.076.315h0c-.061.11-.2.153-.313.098-4.479-2.161-5.331-2.269-5.467-1.959-.136.311.493.934,4.954,3.187.105.053.16.174.129.287h0c-.036.133-.175.21-.307.172-4.43-1.256-5.241-1.208-5.319-.884-.078.327.615.823,5.109,2.212.107.033.176.141.159.252h0Z" fill="#ce9364" stroke-width="0"/>
    <g opacity=".6">
      <path d="m10.786,26.209c.106.258.189.509.284.912.297.095.574.238.872.333-.173-.433-.612-.963-1.156-1.245Z" fill="#986854" stroke-width="0"/>
    </g>
    <path d="m24.75,1.3h-3.75l1.645,2.362c.214.308.575.466.941.422,1.314-.158,2.817-.731,4.415-.731,1.118,0,2.16.187,2.811.335.34.077.5.469.309.761l-.389.597c-.859,1.317-1.19,2.924-.925,4.486l.451,2.655c.16.943.104,1.912-.164,2.828h1.907V.016h-7.875l.625,1.284Z" fill="#6d321d" stroke-width="0"/>
    <path d="m28.715,9.724c-1.731-.829-2.96-.931-4.81-.421.931-1.909,4.222-1.617,4.81.421h0Z" fill="#6d321d" stroke-width="0"/>
    <path d="m32,27.988h-1.626c-2.203,0-4.363.607-6.244,1.754l-3.674,2.241h11.544" fill="#8b8580" stroke-width="0"/>
    <polygon points="8 5 5 4.999 5 5 5 8 6 8 6 6 8 6 8 5" fill="#21434e" stroke-width="0"/>
    <polygon points="16 8 16 5 16 5 13 5 13 6 15 6 15 8 16 8" fill="#21434e" stroke-width="0"/>
    <polygon points="13 15.999 16 16 16 15.999 16 12.999 15 12.999 15 14.999 13 14.999 13 15.999" fill="#21434e" stroke-width="0"/>
    <polygon points="5.001 13 5 16 5.001 16 8.001 16 8.001 15 6.001 15 6.001 13 5.001 13" fill="#21434e" stroke-width="0"/>
    <rect x="7.5" y="7.5" width="2" height="2" fill="none" stroke="#21434e" stroke-miterlimit="10"/>
    <rect x="7.5" y="11.5" width="2" height="2" fill="none" stroke="#21434e" stroke-miterlimit="10"/>
    <rect x="11.5" y="7.5" width="2" height="2" fill="none" stroke="#21434e" stroke-miterlimit="10"/>
    <polyline points="14 11.5 12.5 11.5 12.5 13" fill="none" stroke="#21434e" stroke-miterlimit="10"/>
    <rect x="11" y="12.999" width="1" height="1.001" fill="#21434e" stroke-width="0"/>
    <rect x="13" y="12.999" width="1" height="1.001" fill="#21434e" stroke-width="0"/>
    <path d="m11,18c2.899,4,6,4,6,4,0,0-2.092-1.764-2.183-4" fill="#fcfbfa" stroke-width="0"/>
    <polygon points="27.766 29.84 27.767 29.84 27.767 29.84 27.767 29.84 27.769 29.838 27.766 29.838 27.766 29.836 27.764 29.837 27.764 29.837 27.766 29.84" fill="#231f20" stroke-width="0"/>
    <path d="m27.766,29.836s.004,0,.006-.001c-.005-.007-.007-.006-.006.001Z" fill="#231f20" stroke-width="0"/>
    <circle cx="26" cy="13.5" r="1" fill="#312d2a" stroke-width="0"/>
    <polygon points="32 11 24 11 24 10 23 10 23 15 24 15 24 12 32 12 32 11" fill="#67605b" stroke-width="0"/>
  </g>
</svg>