<?xml version="1.0" encoding="UTF-8"?>
<svg xmlns="http://www.w3.org/2000/svg" viewBox="0 0 256 256">
  <g isolation="isolate">
    <g id="a" data-name="background">
      <rect width="256" height="256" fill="#1f3a4b" stroke-width="0"/>
      <rect width="256" height="256" fill="#3a3632" stroke-width="0"/>
      <path d="m0,164.819v66.833c12.535-5.553,28.02-9.652,48.622-9.652,33.439,0,57.868,16.662,80.449,34h126.929v-69.238c-50.636-4.876-81.545-48.762-147.378-48.762-63.951,0-78.64,26.819-108.622,26.819Z" mix-blend-mode="multiply" opacity=".12" stroke-width="0"/>
      <path d="m256,31.031V0H32c50.636,4.876,81.545,48.762,147.378,48.762,38.957,0,59.633-9.952,76.622-17.731Z" mix-blend-mode="multiply" opacity=".12" stroke-width="0"/>
    </g>
    <g id="b" data-name="lightbulb">
      <path d="m150.442,188c2.276,0,4.2-1.718,4.414-3.984,2.963-31.419,39.811-56.29,39.811-89.349,0-36.819-29.848-66.667-66.667-66.667S61.333,57.848,61.333,94.667c0,33.059,36.848,57.93,39.811,89.349.214,2.266,2.138,3.984,4.414,3.984h44.883Z" fill="#f3b251" stroke-width="0"/>
      <path d="m80.408,48h95.185c-.669-.682-1.355-1.347-2.052-2h-91.08c-.698.653-1.384,1.318-2.052,2Z" fill="#fff" opacity=".2" stroke-width="0"/>
      <path d="m63.203,79h129.595c-.162-.671-.333-1.337-.515-2H63.718c-.182.663-.353,1.329-.515,2Z" fill="#fff" opacity=".2" stroke-width="0"/>
      <path d="m63.893,110h128.213c.215-.663.407-1.331.598-2H63.295c.191.669.383,1.337.598,2Z" fill="#fff" opacity=".2" stroke-width="0"/>
      <path d="m150.442,188c2.276,0,4.2-1.718,4.414-3.984,2.963-31.419,39.811-56.29,39.811-89.349,0-14.438-4.605-27.792-12.404-38.707l-18.707,18.707h-17.778l-17.778,35.556-17.778,17.778h-17.778l-12.171,12.171c9.541,14.209,19.404,28.224,20.873,43.86.212,2.26,2.144,3.968,4.414,3.968h44.882Z" fill="#d75340" stroke-width="0"/>
      <g mix-blend-mode="multiply" opacity=".24">
        <g>
          <g>
            <path d="m128.468,150.071c-.523.593-1.589.656-2.297.216-.507-.315-.867-.701-.875-1.362-.004-.388.085-.72.426-.852.538-.208.781-.637,1.016-1.097.238-.466.598-.732,1.135-.785.699-.069,1.194.354,1.355.92.093.325.153.67.159,1.008.005.277-.081.559-.15.833-.026.105-.112.196-.177.289-.196.278-.395.554-.592.83Z" fill="#231f20" stroke-width="0"/>
            <path d="m142.098,133.166c.204.269.554.65.812,1.086.497.838.173,1.801-.726,2.19-.577.25-1.186.426-1.827.381-.19-.013-.397-.061-.558-.156-.61-.362-.739-.669-.573-1.356.14-.581.294-1.161.472-1.732.065-.211.183-.424.332-.586.572-.624,1.279-.596,2.069.173Z" fill="#231f20" stroke-width="0"/>
            <path d="m147.392,129.901c.311.332.277.859.118,1.394-.191.641-.67,1.03-1.234,1.332-.074.04-.158.079-.239.085-.88.073-1.698-.085-2.358-.717-.278-.266-.405-.628-.372-1.009.072-.825.464-1.453,1.249-1.777,1.033-.426,1.935-.226,2.836.691Z" fill="#231f20" stroke-width="0"/>
            <path d="m135.333,140.742c-.522-.414-.496-.939-.318-1.429.203-.558.511-1.078.775-1.613.025-.05.067-.092.101-.138.598-.8,1.617-.72,2.087.16.146.274.307.542.46.812.248.437.318.905.232,1.399-.093.538-.498.847-.925,1.051-.4.191-.858.305-1.327.259-.439-.042-.844-.147-1.085-.501Z" fill="#231f20" stroke-width="0"/>
            <path d="m133.734,144.843c-.657.676-1.402.76-2.191.675-.105-.011-.211-.079-.301-.143-.092-.065-.162-.158-.246-.235-.878-.813-.609-1.461.04-2.111.278-.278.615-.506.953-.711.405-.245.848-.309,1.3-.095.128.061.264.105.398.152.583.207.764.141.688,1.037-.051.594-.28,1.087-.641,1.431Z" fill="#231f20" stroke-width="0"/>
            <path d="m158.768,118.268c.855.847.661,1.622-.073,2.085-.688.435-1.42.698-2.263.376-.634-.242-1.062-.731-1.096-1.471-.028-.603.265-1.03.824-1.272.183-.079.378-.149.535-.266.494-.37.957-.275,1.414.053.253.182.499.375.66.495Z" fill="#231f20" stroke-width="0"/>
            <path d="m120.434,154.719c.14.14.293.267.416.421.507.633.364,1.463-.308,1.925-.851.585-2.636.44-3.303-.911-.097-.197-.052-.388.034-.574.298-.644.764-1.129,1.403-1.434.595-.283.995-.204,1.466.264.1.1.184.216.275.325.006-.006.011-.011.017-.017Z" fill="#231f20" stroke-width="0"/>
            <path d="m122.703,150.549c.12-.12.242-.24.361-.361.457-.463.994-.528,1.537-.184.325.206.458.543.415.882-.113.895-.198,1.798-.781,2.569-.294.389-.589.562-1.079.461-.718-.148-1.126-.485-1.248-1.19-.066-.384-.154-.782.036-1.172.099-.203.164-.411.375-.549.162-.106.285-.274.425-.414-.014-.014-.027-.027-.041-.041Z" fill="#231f20" stroke-width="0"/>
            <path d="m152.547,121.881c.3-.326.745-.44,1.259-.309.138.035.274.076.411.115,1.096.315,1.538,1.469.917,2.424-.279.429-.727.621-1.203.732-.22.051-.453.04-.68.059-.848.073-1.541-.599-1.485-1.44.029-.439.399-1.226.782-1.582Z" fill="#231f20" stroke-width="0"/>
            <path d="m147.982,128.42c-.49-.559-.538-.92-.148-1.53.214-.335.455-.655.709-.961.358-.431.797-.579,1.37-.439.591.145,1.118.341,1.235,1.002.125.712-.185,1.311-.754,1.7-.439.299-.968.473-1.468.672-.222.088-.453,0-.64-.146-.111-.086-.203-.198-.303-.298Z" fill="#231f20" stroke-width="0"/>
            <path d="m112.988,164.448c-.261.273-.679.557-1.212.619-.447.053-.838-.047-1.149-.407-.367-.426-.438-.829-.181-1.33.194-.378.383-.761.608-1.121.256-.412.619-.668,1.138-.573.251.046.504.095.744.176.474.161.739.576.74,1.108,0,.785-.078.979-.688,1.528Z" fill="#231f20" stroke-width="0"/>
            <path d="m116.811,161.011c-.391.248-.816.544-1.368.497-.265-.023-.484-.12-.658-.339-.612-.77-.461-2.245.268-2.804.186-.142.372-.284.611-.266.584.044,1.284.207,1.522.88.235.666.107,1.576-.374,2.032Z" fill="#231f20" stroke-width="0"/>
            <path d="m160.659,116.628c-.455-.428-.633-.856-.594-1.375.032-.434.217-.77.626-.94.436-.181.849-.076,1.198.213.644.534.732,1.153.299,1.897-.427.734-.872.808-1.485.248-.042-.038-.081-.08-.043-.043Z" fill="#231f20" stroke-width="0"/>
            <path d="m109.18,167.241c-.359.466-.884.512-1.474.281-.495-.193-.726-.644-.586-1.16.113-.417.223-.834.716-.978.587-.171,1.131-.041,1.635.256.28.165.348.89.13,1.174-.103.134-.238.243-.421.426Z" fill="#231f20" stroke-width="0"/>
            <path d="m165.636,112.831c-.25.161-.441.276-.623.404-.372.261-.725.078-1.029-.096-.345-.197-.628-.513-.616-.948.008-.285.177-.528.401-.721.448-.387.977-.422,1.518-.327.331.058.587.411.548.754-.037.331-.137.655-.199.934Z" fill="#231f20" stroke-width="0"/>
            <path d="m105.118,169.962c-.506-.56-.533-1.137-.141-1.666.185-.25.428-.36.725-.372.906-.035,1.452.702,1.173,1.571-.076.237-.242.409-.456.469-.322.09-.662.133-.997.151-.118.006-.242-.119-.305-.153Z" fill="#231f20" stroke-width="0"/>
            <path d="m168.254,108.582c.132.319.261.631.382.923-.055.289-.173.504-.381.668-.452.357-1.188.356-1.634-.012-.158-.13-.24-.294-.233-.517.022-.657.222-.927.864-1.058.299-.061.605-.171,1.003-.004Z" fill="#231f20" stroke-width="0"/>
            <path d="m181.73,95.833c-.094.106-.194.249-.322.359-.288.244-.722.107-.812-.257-.075-.302-.102-.616-.187-.915-.126-.444.151-.801.568-1.037.322-.183.777-.052,1.07.272.413.457.424.836.027,1.281-.094.105-.214.187-.344.298Z" fill="#231f20" stroke-width="0"/>
            <path d="m173.413,103.682c-.072.042-.304.203-.556.316-.217.097-.489.019-.594-.179-.143-.269-.289-.556-.338-.851-.094-.56.393-1.063.959-1.015.297.025.603.027.813.347.336.512.325.829-.284,1.383Z" fill="#231f20" stroke-width="0"/>
            <path d="m169.986,104.979c.504.059.929.186,1.311.502.021.096.061.203.066.313.034.694-.35,1.125-1.044,1.157-.132.006-.297-.033-.394-.114-.191-.16-.365-.351-.51-.555-.186-.261-.154-.541.055-.781.164-.189.352-.357.516-.521Z" fill="#231f20" stroke-width="0"/>
            <path d="m175.001,101.55c-.294-.299-.35-.889-.138-1.225.03-.047.071-.09.112-.127.394-.356,1.443-.22,1.698.227.153.269.136.555-.02.813-.206.34-1.003.588-1.379.446-.105-.04-.203-.099-.273-.133Z" fill="#231f20" stroke-width="0"/>
            <path d="m190.144,86.429c-.296.228-.517.408-.748.573-.301.214-.581.157-.81-.148-.234-.31-.261-.681-.333-.999.045-.097.062-.152.092-.199.365-.552.864-.573,1.425-.364.348.129.466.268.457.625-.005.168-.053.335-.083.511Z" fill="#231f20" stroke-width="0"/>
            <path d="m104,172.154c-.295.051-.572.109-.851.146-.387.051-.609-.086-.673-.462-.056-.329-.053-.669-.074-.97.858-.578.922-.579,1.788-.06.185.453.149.881-.19,1.346Z" fill="#231f20" stroke-width="0"/>
            <path d="m177.718,98.817c-.085-.114-.176-.224-.254-.342-.238-.36-.19-.868.125-1.166.076-.072.198-.123.303-.131.167-.013.338.01.506.032.662.087.854.322.733.959-.041.214-.152.429-.28.609-.325.458-.769.463-1.132.04Z" fill="#231f20" stroke-width="0"/>
            <path d="m184.481,93.364c-.372.407-.829.454-1.27.504-.248.028-.411-.177-.397-.437.015-.281.026-.566.079-.841.073-.373.35-.581.733-.557.193.012.393.058.571.133.535.224.645.819.284,1.198Z" fill="#231f20" stroke-width="0"/>
            <path d="m101.362,173.498c.098.26.22.488.269.731.12.599-.331,1.058-.939.974-.461-.064-.757-.356-.945-.756-.121-.256-.046-.486.174-.68.342-.304.531-.342,1.442-.268Z" fill="#231f20" stroke-width="0"/>
            <path d="m185.692,90.169c-.09-.279-.175-.541-.256-.791.169-.212.294-.398.448-.555.296-.304.557-.342.923-.164.05.025.093.065.141.093.459.264.578.527.435.962-.133.404-.556.667-1,.606-.196-.027-.387-.084-.692-.152Z" fill="#231f20" stroke-width="0"/>
            <path d="m191.095,83.945c-.049-.125-.096-.2-.106-.28-.112-.861-.055-.949.848-1.308.208.142.435.297.727.496.04.216.089.484.14.761-.266.19-.492.352-.724.518-.311-.066-.607-.128-.884-.187Z" fill="#231f20" stroke-width="0"/>
          </g>
          <g>
            <path d="m87.964,141.932c-.339.349-.786.475-1.242.45-.634-.035-1.229-.204-1.564-.839-.373-.706-.185-1.561.473-2.033.253-.182.512-.36.785-.507.94-.507,2.076.153,2.159,1.215.052.675-.202,1.213-.611,1.714Z" fill="#231f20" stroke-width="0"/>
            <path d="m91.811,138.54c-.234.169-.505.376-.787.565-.399.268-.742.231-1.046-.13-.143-.171-.253-.376-.347-.58-.082-.179-.125-.377-.176-.568-.1-.376-.052-.706.186-1.045.284-.405.587-.775,1.029-.997.446-.225.895-.32,1.37-.017.643.411.876,1.198.476,1.846-.193.312-.445.588-.706.926Z" fill="#231f20" stroke-width="0"/>
            <path d="m152.605,77.93c-.734-.134-1.182-.611-1.455-1.277-.187-.457-.063-.904.151-1.318.072-.139.229-.257.374-.329.57-.283,1.195-.196,1.652.257.217.215.398.483.541.755.194.369.114.717-.201,1.004-.335.305-.688.59-1.062.909Z" fill="#231f20" stroke-width="0"/>
            <path d="m94.98,132.892c.069-.213.123-.373.172-.535.282-.933,1.528-1.2,2.26-.711.128.086.271.255.279.394.033.541-.021,1.072-.397,1.517-.522.618-1.237.615-1.829-.009-.173-.183-.303-.407-.485-.656Z" fill="#231f20" stroke-width="0"/>
            <path d="m150.396,79.396c-.062.039-.172.137-.3.184-.471.171-1.388-.122-1.699-.517-.386-.491-.197-1.317.195-1.612.537-.405,1.089-.426,1.682-.19.051.02.1.056.14.095.335.321.298.782.424,1.18.089.28-.145.47-.288.677-.032.047-.072.088-.154.185Z" fill="#231f20" stroke-width="0"/>
            <path d="m141.638,89.841c-.418.402-.967.325-1.494-.209-.355-.36-.289-.9.164-1.349.371-.367.998-.417,1.303-.103.509.524.52,1.187.027,1.661Z" fill="#231f20" stroke-width="0"/>
            <path d="m146.54,81.198c.051-.294.063-.522.132-.731.105-.319.313-.52.685-.544.374-.025.674.046.875.388.187.319.169.609-.08.951-.225.31-.427.386-.817.264-.242-.075-.47-.192-.794-.328Z" fill="#231f20" stroke-width="0"/>
            <path d="m142.288,85.345c.196.137.418.262.604.428.265.236.246.648-.014.905-.02.02-.042.038-.065.053-.268.178-1.036.093-1.26-.149-.318-.343-.361-.783.144-1.037.075-.038.151-.077.231-.104.106-.035.215-.059.36-.097Z" fill="#231f20" stroke-width="0"/>
            <path d="m145.642,83.834c-.328.05-.606.074-.874.138-.215.052-.403.041-.53-.141-.15-.216-.238-.474-.078-.712.122-.182.309-.32.475-.486.196.011.391.016.586.033.411.037.625.255.591.65-.016.185-.116.363-.169.518Z" fill="#231f20" stroke-width="0"/>
          </g>
          <g>
            <path d="m99.667,166.065c.527-.552.867-1.176.779-1.975-.083-.754-.951-1.319-1.677-1.083-.214.07-.431.156-.652.176-.503.045-.9.329-1.326.544-.447.225-.502.704-.531,1.103-.043.586.179,1.118.743,1.423.198.107.41.186.612.285.655.324,1.259.252,1.81-.233.085-.075.161-.16.242-.24Z" fill="#231f20" stroke-width="0"/>
            <path d="m103.775,158.379c-.219-.147-.349-.264-.502-.33-.221-.095-.501-.106-.629.099-.291.467-.71.517-1.184.484-.401-.028-.718.162-.987.428-.279.275-.332.688-.118,1.021.275.43.565.853.879,1.256.229.294.569.405.92.266.552-.219,1.109-.444,1.623-.738.507-.289.699-.903.497-1.5-.125-.369-.351-.703-.497-.987Z" fill="#231f20" stroke-width="0"/>
            <path d="m153.355,109.936c-.74-1.204-1.316-1.06-2.275-.714-.618.223-.955.677-1.274,1.171-.312.483-.246.981.092,1.429.318.422.848.857,1.611.645.634-.176,1.144-.466,1.53-.994.342-.468.393-.988.315-1.537Z" fill="#231f20" stroke-width="0"/>
            <path d="m146.476,113.761c-.266.318-.473.649-.598,1.038-.091.285-.083.557.022.831.348.906,1.061,1.164,1.906.674.682-.396,1.197-.943,1.473-1.699.253-.692.04-1.317-.576-1.69-.295-.179-.612-.206-.891-.045-.463.268-.893.591-1.337.892Z" fill="#231f20" stroke-width="0"/>
            <path d="m108.005,153.965c-.677.127-1.297.285-1.843.682-.297.216-.512.429-.446.834.026.161-.036.335-.043.503-.052,1.155.786,1.563,1.752,1.167.526-.215.95-.587,1.186-1.153.313-.748.236-1.266-.354-1.84-.06-.059-.134-.103-.253-.194Z" fill="#231f20" stroke-width="0"/>
            <path d="m155.885,105.224c-.349-.485-.775-.54-1.25-.376-.215.074-.432.157-.625.273-.919.551-1.037,1.87-.231,2.566.102.088.247.138.381.174.38.101.754.024,1.068-.182.666-.436.989-1.081,1.003-1.875.005-.282-.144-.485-.346-.581Z" fill="#231f20" stroke-width="0"/>
            <path d="m160.539,100.862c-.127-.106-.15-.124-.171-.143-.297-.265-.58-.581-1.04-.457-.514.138-.935.411-1.161.918-.104.233-.192.472-.295.705-.292.661.064,1.311.786,1.33.443.012.902.012,1.333-.193.6-.285,1.011-1.06.825-1.698-.06-.207-.227-.383-.276-.462Z" fill="#231f20" stroke-width="0"/>
            <path d="m145.227,119.248c.631-.594.648-1.241.097-1.767-.162-.155-.347-.296-.544-.4-.321-.17-.648-.185-.95.074-.194.166-.408.307-.6.476-.4.353-.572,1.009-.397,1.465.218.57.777.867,1.358.694.408-.121.812-.266,1.036-.542Z" fill="#231f20" stroke-width="0"/>
            <path d="m109.497,153.189c.724.324,1.292.158,1.837-.235.68-.491.884-1.596.049-2.15-.486-.322-1.058-.342-1.506.029-.259.214-.491.478-.678.758-.098.147-.087.375-.098.568-.006.11.024.229.068.332.099.234.215.461.329.7Z" fill="#231f20" stroke-width="0"/>
            <path d="m165.185,99.881c.292-.198.288-.435.311-.66.115-1.116-.645-1.516-1.549-1.264-.466.13-.908.309-1.215.739-.287.401-.356.8-.107,1.258.215.394.577.557,1.002.492.581-.089,1.218-.064,1.559-.565Z" fill="#231f20" stroke-width="0"/>
            <path d="m113.037,147.764c-.056.156-.116.285-.149.421-.221.906.487,1.619,1.411,1.414.308-.068.581-.218.795-.462.294-.336.317-1.23.037-1.583-.199-.251-.735-.369-1.102-.224-.313.124-.618.27-.992.435Z" fill="#231f20" stroke-width="0"/>
            <path d="m140.973,123.375c.226-.267.442-.527.662-.783.212-.246.215-.523.099-.798-.302-.722-1.23-1.059-1.988-.451-.043.035-.076.084-.107.131-.251.393-.153,1.344.187,1.664.096.091.235.165.365.186.248.04.504.035.781.05Z" fill="#231f20" stroke-width="0"/>
            <path d="m190.396,71.734c-.147-.173-.238-.28-.329-.387-.484-.57-.865-.653-1.556-.331-.126.059-.242.14-.396.23,0,.225-.014.447.005.667.056.662.705,1.187,1.361,1.089.26-.039.484-.186.598-.435.116-.255.201-.524.317-.833Z" fill="#231f20" stroke-width="0"/>
            <path d="m166.043,96.539c.258.092.439.179.631.222.447.098.87.015,1.161-.353.281-.355.32-.764.153-1.208-.122-.322-.368-.467-.647-.466-.457.003-.908.123-1.201.524-.095.13-.163.309-.17.468-.01.251.042.504.073.813Z" fill="#231f20" stroke-width="0"/>
            <path d="m176.073,86.103c.056.056.073.086.097.095.368.141.738.278,1.126.424.15-.075.329-.121.444-.233.134-.131.267-.309.303-.486.12-.593-.557-1.313-1.162-1.264-.08.006-.176.038-.231.092-.391.387-.697.812-.576,1.371Z" fill="#231f20" stroke-width="0"/>
            <path d="m171.588,91.556c-.412-.402-1.008-.453-1.381-.117-.367.33-.345,1.186.04,1.545.313.292.987.239,1.328-.105.304-.307.311-1.033.013-1.323Z" fill="#231f20" stroke-width="0"/>
            <path d="m137.011,124.661c-.11.531.089.92.432,1.244.364.344.851.347,1.203-.012.126-.128.238-.338.234-.508-.007-.304-.088-.603-.317-.851-.393-.426-.685-.485-1.182-.169-.141.09-.263.209-.371.296Z" fill="#231f20" stroke-width="0"/>
            <path d="m179.299,82.014c-.027.112-.084.247-.089.384-.027.695.255.831.732.961.392.107.951.009,1.15-.603.043-.133.076-.272.09-.411.027-.262-.068-.458-.308-.54-.603-.207-.766-.415-1.575.209Z" fill="#231f20" stroke-width="0"/>
            <path d="m187.621,74.592c-.092-.066-.18-.137-.275-.196-.294-.182-.602-.345-.943-.129-.29.184-.495.739-.383,1.058.128.363.376.627.775.701.109.02.226.022.336.008.287-.036.564-.1.667-.427.116-.368.163-.724-.176-1.014Z" fill="#231f20" stroke-width="0"/>
            <path d="m183.26,79.447c.191-.024.394-.02.577-.078.401-.127.627-.528.561-.934-.06-.368-.442-.764-.787-.789-.386-.028-.729.086-.993.384-.245.276-.242.543.009.825.113.127.233.248.356.364.081.077.173.143.277.227Z" fill="#231f20" stroke-width="0"/>
            <path d="m120.563,140.117c-.212.244-.303.353-.398.458-.379.418-.098,1.163.45,1.279.286.06.552.1.817-.072.381-.247.486-.517.322-.938-.071-.184-.16-.364-.263-.532-.261-.424-.703-.445-.927-.194Z" fill="#231f20" stroke-width="0"/>
            <path d="m130.065,131.636c.329.336.886.356,1.225.044.314-.289.312-1.101-.005-1.408-.257-.249-1.015-.219-1.26.05-.331.363-.313.953.04,1.314Z" fill="#231f20" stroke-width="0"/>
            <path d="m116.924,144.926c.09.055.23.148.377.231.283.16.544.084.787-.094.247-.181.373-.408.296-.729-.059-.244-.083-.497-.138-.743-.037-.169-.228-.286-.392-.238-.351.105-.701.218-.974.485-.32.312-.323.732.044,1.087Z" fill="#231f20" stroke-width="0"/>
            <path d="m124.811,136.774c-.811-.357-1.147-.277-1.512.34-.076.129-.096.343-.048.485.137.403.461.642.863.741.31.077.648-.227.683-.607.028-.308.011-.62.014-.959Z" fill="#231f20" stroke-width="0"/>
            <path d="m126.388,133.889c-.059.293-.086.489-.138.678-.076.275.01.493.186.702.214.255.456.423.808.35.288-.06.59-.379.601-.742.008-.27-.069-.555-.166-.812-.072-.191-.279-.288-.49-.277-.25.014-.499.062-.8.102Z" fill="#231f20" stroke-width="0"/>
            <path d="m173.006,88.284c-.4.416-.641.695-.462,1.12.178.423.555.452.929.465.373.013.665-.233.72-.593.021-.138.015-.285-.007-.423-.052-.333-.222-.589-.554-.696-.314-.101-.556.038-.626.127Z" fill="#231f20" stroke-width="0"/>
            <path d="m134.646,128.062c.032-.052.12-.166.178-.294.128-.286.27-.581.047-.885-.162-.22-.74-.349-1.023-.225-.343.151-.526.418-.548.796-.029.499.168.784.6.885.279.065.503-.012.747-.277Z" fill="#231f20" stroke-width="0"/>
          </g>
          <g>
            <path d="m143.06,181.092c-.324.364-.598.434-.928.317-.799-.284-1.24-1.199-.96-2.012.064-.187.142-.375.249-.539.386-.594.896-.735,1.552-.448.59.258.895.852.74,1.463-.128.506-.355.961-.653,1.219Z" fill="#231f20" stroke-width="0"/>
            <path d="m139.433,184.63c-.233.191-.393.363-.588.475-.689.395-1.202.054-1.432-.549-.197-.515-.136-1.097.107-1.579.314-.624.963-.875,1.739-.357.252.168.451.428.642.672.173.221.154.494.011.722-.149.239-.346.448-.479.616Z" fill="#231f20" stroke-width="0"/>
            <path d="m147.324,176.956c-.19.202-.423.266-.692.238-.283-.029-.55-.088-.792-.258-.338-.237-.465-.498-.388-.852.083-.377.316-.62.693-.634.331-.013.681.014.994.113.594.188.727.709.347,1.199-.052.067-.108.13-.163.195Z" fill="#231f20" stroke-width="0"/>
            <path d="m150.188,171.148c.079-.024.235-.111.389-.109.222.002.452.044.663.114.444.148.579.663.289,1.039-.299.39-.967.513-1.382.256-.418-.259-.43-.858.04-1.3Z" fill="#231f20" stroke-width="0"/>
            <path d="m159.138,161.851c.116-.066.235-.142.361-.201.101-.047.212-.074.337-.116.171.083.362.148.521.259.461.32.44.922-.065,1.163-.319.152-.661.318-1.069.273-.294-.441-.285-.891-.085-1.378Z" fill="#231f20" stroke-width="0"/>
            <path d="m154.479,166.797c.316-.344.871-.298,1.287.107.225.22.241.617.033.855-.307.351-1.068.464-1.323.196-.309-.324-.308-.819.004-1.158Z" fill="#231f20" stroke-width="0"/>
          </g>
          <g>
            <path d="m137.554,150.665c-.55-.541-1.666-.451-2.087.192-.157.24-.349.421-.55.618-.336.329-.541.724-.446,1.294.082.494.209.93.489,1.319.443.615,1.279.699,1.871.199.329-.277.591-.613.756-1.017.148-.361.316-.715.444-1.083.196-.562.045-1.01-.477-1.523Z" fill="#231f20" stroke-width="0"/>
            <path d="m142.261,146.92c-.908-.07-1.743.115-2.579.254-.147.024-.288.163-.405.276-.121.116-.209.265-.312.4-.496.649-.406,1.303.145,1.895.441.474.935.686,1.569.689.406.002.74-.129.969-.436.321-.431.583-.904.888-1.348.334-.485.344-.945-.04-1.403-.072-.086-.131-.182-.235-.328Z" fill="#231f20" stroke-width="0"/>
            <path d="m127.739,162.556c.292-.462.472-.997.527-1.573.01-.106-.033-.223-.072-.327-.332-.884-1.4-1.413-2.295-1.144-.228.068-.408.185-.526.402-.121.222-.256.438-.401.646-.327.472-.359,1.209-.04,1.673.093.135.229.281.376.33.457.152.923.29,1.397.373.378.067.732-.064,1.034-.379Z" fill="#231f20" stroke-width="0"/>
            <path d="m141.657,143.978c-.338.508-.363,1.082-.154,1.675.178.504.495.967,1.34.929.688-.031,1.242-.372,1.787-.724.143-.092.234-.322.276-.506.231-1.001-.583-2.102-1.61-2.211-.332-.035-.614.087-.874.268-.255.177-.498.37-.765.569Z" fill="#231f20" stroke-width="0"/>
            <path d="m156.785,131.24c.343.201.662.209.975-.014.386-.275.896-.368,1.163-.824.09-.153.28-.177.461-.139.11.023.225.053.334.042.109-.011.224-.05.317-.109.429-.271.522-1.514.139-1.845-.128-.111-.281-.193-.413-.301-.379-.313-.769-.338-1.169-.05-.308.221-.649.337-1.023.389-.446.062-.748.357-.809.771-.086.585-.075,1.185-.089,1.779-.002.104.076.209.113.302Z" fill="#231f20" stroke-width="0"/>
            <path d="m131.277,156.481c.602.58,1.74.371,2.205-.404.145-.242.275-.497.439-.725.389-.539.328-1.306-.424-1.645-.788-.356-1.65-.408-2.435.147-.36.255-.508.582-.465,1.023.065.675.283,1.221.681,1.604Z" fill="#231f20" stroke-width="0"/>
            <path d="m122.171,163.325c-.175.385-.344.742-.501,1.105-.146.337-.024.673.035,1.004.055.315.172.591.515.719.124.046.238.162.32.272.309.417.718.395,1.152.284.595-.153,1.015-.669,1.064-1.283.042-.529-.089-1.032-.34-1.472-.316-.555-.837-.836-1.498-.772-.224.022-.444.084-.748.144Z" fill="#231f20" stroke-width="0"/>
            <path d="m148.09,142.186c.314-.304.454-.869.689-1.381.053-.116.043-.284.008-.414-.058-.217-.145-.429-.246-.63-.302-.602-.656-.785-1.309-.616-.197.051-.409.222-.521.397-.258.405-.504.802-.841,1.159-.49.519-.312,1.668.285,2.054.175.113.431.157.644.142.466-.034.868-.246,1.291-.71Z" fill="#231f20" stroke-width="0"/>
            <path d="m193.597,94.768c-.486-.503-1.04-.42-1.595-.216-.208.077-.385.237-.577.357-.263.164-.519.344-.796.484-.187.095-.322.202-.41.4-.198.449-.162.548.295.768.33.158.645.322,1.036.243.128-.026.276.04.412.073.11.027.214.076.324.102,1.325.309,1.887-.482,1.665-1.662-.037-.198-.233-.367-.356-.549Z" fill="#231f20" stroke-width="0"/>
            <path d="m152.269,137.515c.49-.518.537-.941.142-1.538-.031-.047-.072-.089-.104-.135q-.492-.698-1.324-.615c-.51.051-1.102.518-1.255,1.013-.067.216-.061.456-.138.666-.226.618.135.983.559,1.291.325.237.728.186,1.061.018.376-.189.708-.464,1.06-.701Z" fill="#231f20" stroke-width="0"/>
            <path d="m153.346,133.601c.118.321.209.62.336.902.153.342.493.524.831.419.456-.142.908-.308,1.342-.507.411-.188.557-.584.389-.989-.119-.286-.257-.572-.434-.824-.277-.397-.67-.577-1.171-.535-.506.042-.855.273-1.03.75-.097.265-.18.535-.262.783Z" fill="#231f20" stroke-width="0"/>
            <path d="m189.758,100.191c.25-.323.371-.719.295-1.16-.018-.105-.078-.213-.147-.296-.495-.595-1.523-.725-2.156-.32-.455.292-.512.742-.49,1.183.026.537.617,1.018,1.16,1.042.69.031.985-.064,1.339-.45Z" fill="#231f20" stroke-width="0"/>
            <path d="m177.952,109.126c-.356.371-.533.681-.514,1.081.017.363.14.661.453.863.095.061.193.119.289.179.474.297,1.154.289,1.591-.02.258-.182.448-.824.32-1.172-.088-.237-.207-.465-.341-.68-.071-.114-.19-.246-.31-.275-.353-.084-.717-.154-1.078-.159-.173-.002-.349.153-.41.183Z" fill="#231f20" stroke-width="0"/>
            <path d="m185.105,104.574c.318-.049.625-.096.932-.142.384-.057.595-.311.715-.65.174-.491.059-1.285-.326-1.575-.295-.223-.586-.351-.939-.268-.301.071-.593.186-.858.272-.611,1.162-.573,1.364.476,2.363Z" fill="#231f20" stroke-width="0"/>
            <path d="m118.518,169.65c.093.065.223.182.374.251.119.054.29.105.397.06.498-.21,1.01-.449,1.125-1.049.109-.566-.076-1.074-.513-1.452-.381-.33-.841-.291-1.287-.154-.338.104-.608.582-.614,1.018-.009.664.102.964.518,1.326Z" fill="#231f20" stroke-width="0"/>
            <path d="m174.991,112.606c-.316.134-.59.221-.834.36-.582.333-.683.956-.347,1.523.292.492.745.678,1.241.789.569.127,1.156-.368,1.157-.95,0-.526-.082-1.016-.637-1.284-.197-.095-.357-.267-.58-.438Z" fill="#231f20" stroke-width="0"/>
            <path d="m182.988,105.854c-.59-.536-1.467-.41-1.897.269-.19.301-.25.628-.227.975.016.248.143.426.373.521.156.065.321.11.477.176.637.272,1.144.053,1.607-.399.207-.202.268-.43.201-.693-.087-.337-.27-.62-.533-.85Z" fill="#231f20" stroke-width="0"/>
            <path d="m130.825,157.644c-.21-.238-.369-.436-.546-.615-.404-.408-.784-.448-1.295-.156-.619.354-.792.725-.651,1.394.012.055.011.131.047.16.304.246.595.517.931.709.174.1.439.102.65.067.467-.078.734-.404.828-.852.046-.218.026-.449.038-.705Z" fill="#231f20" stroke-width="0"/>
            <path d="m163.784,126.63c.736-.901.76-1.115.228-2.125-.572-.153-1.166-.369-1.763.101-.1.211-.226.436-.315.674-.131.35-.068.697.194.951.345.335.711.675,1.274.436.122-.052.275-.028.382-.037Z" fill="#231f20" stroke-width="0"/>
            <path d="m114.307,171.46c-.1.634.136,1.08.593,1.449.372.3.781.322,1.206.209.368-.098.718-.677.692-1.08-.034-.53-.556-1.188-1.074-1.306-.154-.035-.344-.005-.495.054-.346.136-.658.335-.923.674Z" fill="#231f20" stroke-width="0"/>
            <path d="m107.035,181.975c.08-.205.236-.54.339-.889.076-.258-.068-.502-.306-.645-.376-.225-1.195-.121-1.515.186-.32.308-.405.665-.276,1.089.136.445.494.615.891.692.295.057.548-.106.867-.433Z" fill="#231f20" stroke-width="0"/>
            <path d="m112.892,174.45c-.475-.451-1.08-.445-1.505.015-.326.353-.296,1.167.055,1.468.392.337,1.192.366,1.506.055.39-.385.363-1.139-.056-1.537Z" fill="#231f20" stroke-width="0"/>
            <path d="m110.315,177.585c-1.072-.469-1.247-.414-1.846.637.098.214.212.468.33.719.169.361.505.437.848.451.332.014.705-.297.836-.616.177-.433.126-.826-.167-1.191Z" fill="#231f20" stroke-width="0"/>
            <path d="m171.112,117.881c.187.072.317.129.451.172.6.192,1.149-.227,1.11-.854-.011-.167-.074-.33-.105-.497-.103-.553-.818-.849-1.352-.409-.378.311-.626.708-.313,1.176.078.117.129.251.21.411Z" fill="#231f20" stroke-width="0"/>
            <path d="m165.533,121.914c-.412.414-.376.97.094,1.43.329.322.8.27,1.204-.133.298-.298.264-.98-.066-1.324-.297-.31-.909-.296-1.231.027Z" fill="#231f20" stroke-width="0"/>
            <path d="m170.448,120.134c.025-.215.067-.408.066-.6-.002-.381-.191-.63-.557-.763-.429-.155-.816-.003-.953.427-.207.652.396,1.322.949,1.109.053-.02.111-.025.164-.043.079-.028.157-.061.33-.13Z" fill="#231f20" stroke-width="0"/>
          </g>
          <g>
            <path d="m190.276,110.497c.596-.698.664-1.489.442-2.33-.02-.077-.079-.152-.137-.21-.823-.82-2.074-.583-2.382.471-.086.297-.235.575-.323.871-.323,1.094.424,1.618,1.342,1.648.401.013.777-.15,1.059-.452Z" fill="#231f20" stroke-width="0"/>
            <path d="m113.881,184.959c-.196-.142-.471-.335-.827-.382-.511-.068-.966.104-1.37.372-.481.32-.589.822-.483,1.367.096.495.441.731.894.922.505.212.998.156,1.504.115.317-.026.516-.216.648-.491.287-.595.167-1.339-.366-1.903Z" fill="#231f20" stroke-width="0"/>
            <path d="m173.42,125.052c-.315-.3-.892-.375-1.306-.141-.718.404-1.115,1.213-.99,2.014.058.375.392.714.814.77.512.067,1.007.018,1.51-.163.689-.247.968-1.233.497-1.858-.154-.204-.33-.392-.524-.621Z" fill="#231f20" stroke-width="0"/>
            <path d="m177.604,123.359c.214-.372.528-.787.703-1.254.265-.704-.529-1.537-1.258-1.331-.735.208-1.323.647-1.646,1.369-.311.695.186,1.649.939,1.796.156.03.351.019.488-.051.249-.128.467-.314.774-.529Z" fill="#231f20" stroke-width="0"/>
            <path d="m181.842,119.052c.169-.215.469-.469.41-.89-.047-.333-.037-.709-.399-.891-.436-.218-.898-.419-1.387-.2-.334.15-.661.34-.944.57-.431.35-.509,1.176-.205,1.652.27.422.902.603,1.445.413.581-.203.694-.268,1.08-.656Z" fill="#231f20" stroke-width="0"/>
            <path d="m185.691,115.418c.637-.697.371-1.768-.454-2.026-.443-.138-.888-.207-1.346-.111-.586.123-.92.594-.852,1.185.006.056.028.11.046.165.13.392.093.898.604,1.051.638.19,1.283.272,1.882-.144.046-.032.081-.079.121-.119Z" fill="#231f20" stroke-width="0"/>
            <path d="m166.217,135.054c.152-.289.402-.646.531-1.042.111-.339-.136-.657-.321-.93-.16-.236-.437-.211-.702-.14-.189.051-.395.042-.58.104-.347.116-.693.243-1.02.405-.211.104-.326.311-.327.562,0,.114-.001.228-.012.34-.053.569.285.904.729,1.134.467.242.935.18,1.356-.151.089-.07.176-.144.345-.282Z" fill="#231f20" stroke-width="0"/>
            <path d="m168.722,128.462c-.166.258-.311.468-.44.687-.387.652-.281,1.421.259,1.938.259.248.581.25.88.151.876-.29,1.202-1.127,1.035-1.812-.027-.109-.07-.215-.112-.321-.265-.672-.508-.81-1.238-.702-.112.017-.223.034-.384.058Z" fill="#231f20" stroke-width="0"/>
            <path d="m114.402,181.708c-.257.443-.224.88-.149,1.339.137.834.814,1.072,1.531.802.441-.166.737-.519,1.017-.877.062-.079.086-.217.07-.32-.034-.222-.07-.455-.167-.653-.327-.667-.941-.873-1.722-.588-.21.076-.401.204-.58.297Z" fill="#231f20" stroke-width="0"/>
            <path d="m118.329,180.47c.119-.027.23-.077.338-.072.523.025.833-.292,1.114-.666.352-.468.291-1.087-.175-1.426-.422-.307-1.329-.455-1.9.046-.301.264-.441.573-.365.981.081.438.212.819.699.959.103.03.189.115.289.177Z" fill="#231f20" stroke-width="0"/>
            <path d="m123.323,175.057c-.404-.489-1.17-.481-1.718-.093-.292.206-.391.583-.364.923.039.504.311.899.755,1.167.418.253.826.098,1.228-.036.097-.032.18-.138.246-.228.333-.456.256-1.334-.146-1.734Z" fill="#231f20" stroke-width="0"/>
            <path d="m160.903,138.182c.071.079.144.166.222.247.477.491.852.545,1.415.205.67-.405.799-1.466.224-1.991-.245-.223-.563-.255-.88-.166-.742.21-1.04.639-1.014,1.443.003.084.021.167.034.262Z" fill="#231f20" stroke-width="0"/>
            <path d="m126.256,173.208c.347-.343.325-.998-.057-1.388-.284-.291-.917-.438-1.305-.031-.356.374-.363,1.1.007,1.472.394.396.921.376,1.355-.053Z" fill="#231f20" stroke-width="0"/>
            <path d="m158.083,141.627c.399.286.51.317.927.108.389-.194.666-.425.62-.906-.059-.618-.773-1.123-1.367-.933-.147.047-.296.181-.382.314-.255.397-.141,1.098.202,1.416Z" fill="#231f20" stroke-width="0"/>
            <path d="m153.252,146.085c-.537-.5-1.156-.442-1.602.143-.156.205-.171.415-.046.629.085.144.183.284.297.406.353.378.919.344,1.234-.069.085-.112.156-.235.225-.358.174-.31.142-.517-.109-.75Z" fill="#231f20" stroke-width="0"/>
            <path d="m131.99,166.912c.516-.109.786-.501,1.089-.825.259-.276.076-.682-.314-.752-.305-.055-.617-.097-.925-.092-.303.005-.577.161-.636.474-.063.334-.051.689.29.91.164.106.34.195.497.285Z" fill="#231f20" stroke-width="0"/>
            <path d="m148.337,148.858c.055.186.091.352.152.508.199.518.685.667,1.166.381.344-.205.501-.536.61-.887.089-.286-.221-.676-.521-.634-.496.068-1.033.078-1.407.633Z" fill="#231f20" stroke-width="0"/>
            <path d="m155.429,144.28c.481.491,1.104.386,1.371-.239.066-.155.122-.326.129-.491.006-.13-.03-.307-.117-.388-.324-.298-.727-.423-1.169-.402-.051.002-.105.043-.148.078-.432.354-.462,1.037-.066,1.441Z" fill="#231f20" stroke-width="0"/>
            <path d="m141.31,156.948c.149.149.247.249.347.347.29.285.614.238.937.079.476-.234.618-.655.393-1.121-.187-.387-.636-.549-1.065-.406-.362.121-.576.34-.583.735-.002.111-.017.222-.029.367Z" fill="#231f20" stroke-width="0"/>
            <path d="m129.034,170.104c.304-.115.61-.21.606-.554-.004-.357.023-.74-.301-1.017-.297-.255-.723-.282-1.001-.041-.325.281-.36.708-.086,1.048.218.271.241.288.783.565Z" fill="#231f20" stroke-width="0"/>
            <path d="m140.927,157.756c-.389-.33-.544-.315-.927.087-.356.373-.42.623-.227.98.176.326.468.493.831.514.213.013.383-.104.505-.275.278-.39.192-.988-.183-1.306Z" fill="#231f20" stroke-width="0"/>
            <path d="m146.789,150.785c-.323.323-.351.815-.066,1.157.301.362.673.44,1.058.204.089-.054.178-.156.206-.254.097-.339.082-.674-.115-.984-.261-.41-.741-.465-1.083-.124Z" fill="#231f20" stroke-width="0"/>
            <path d="m138.509,161.663c.004-.277.03-.56.008-.838-.022-.27-.155-.482-.444-.562-.298-.082-.567-.066-.771.196-.087.112-.161.235-.233.357-.152.257-.099.516.084.71.149.157.356.28.561.356.291.109.551-.021.796-.22Z" fill="#231f20" stroke-width="0"/>
            <path d="m144.23,154.253c.279.289.844.358,1.087.132.312-.29.316-.869.008-1.149-.303-.275-.813-.278-1.092-.005-.23.224-.231.785-.003,1.022Z" fill="#231f20" stroke-width="0"/>
            <path d="m135.727,164.286c.275-.271.312-.628.14-.904-.143-.231-.357-.364-.612-.421-.552-.123-.953.292-.8.843.041.147.153.327.281.386.226.103.487.141.737.173.098.013.208-.061.254-.076Z" fill="#231f20" stroke-width="0"/>
          </g>
          <g>
            <path d="m102.287,146.878c-.367.032-.715.009-1.031.101-.529.153-.877.541-.953,1.089-.053.385-.035.782-.058,1.173-.034.588.48,1.067,1.072,1.095.226.011.453.009.68.008.368,0,.661-.179.879-.45.094-.117.141-.313.129-.466-.072-.853-.262-1.678-.718-2.55Z" fill="#231f20" stroke-width="0"/>
            <path d="m98.307,150.388c-.337.108-.661.206-.981.314-.505.17-.776.575-.941,1.038-.316.891.382,1.789,1.315,1.68.685-.08,1.327-.299,1.767-.895.222-.301.254-.599.102-.955-.162-.38-.324-.715-.762-.845-.154-.046-.281-.185-.501-.337Z" fill="#231f20" stroke-width="0"/>
            <path d="m95.306,154.173c-.651-.597-1.731-.532-2.29.14-.653.783-.288,2.063.675,2.361.081.025.172.065.247.049.52-.111,1.071-.124,1.512-.489.162-.134.264-.287.276-.502.028-.505.12-1.023-.319-1.423-.041-.037-.067-.091-.1-.137Z" fill="#231f20" stroke-width="0"/>
            <path d="m153.357,95.789c-.056.065-.111.13-.167.194-.167.189-.42.353-.378.636.049.331.152.657.26.976.031.093.148.197.243.221.41.101.821.243,1.252.119.163-.047.317-.132.482-.169.453-.104.707-.44.743-.841.095-1.045-.489-1.843-1.648-1.748-.13.011-.266.1-.375.184-.156.121-.289.271-.432.409.006.006.012.013.018.019Z" fill="#231f20" stroke-width="0"/>
            <path d="m157.133,93.697c.171.234.431.326.729.333.569.012,1.052-.21,1.461-.588.219-.202.318-.469.279-.773-.14-1.09-.367-1.311-1.473-1.279-.566.016-.963.318-1.257.763-.343.52-.251,1.007.26,1.544Z" fill="#231f20" stroke-width="0"/>
            <path d="m106.393,145.031c.016-.037.091-.157.122-.288.13-.54-.051-1.009-.371-1.43-.208-.274-.791-.44-1.087-.289-.483.247-.918.56-1.193,1.056-.27.487-.187.959.129,1.353.283.352.761.446,1.167.331.421-.119.86-.295,1.233-.734Z" fill="#231f20" stroke-width="0"/>
            <path d="m109.717,140.044c-.353-.35-.762-.48-1.244-.308-.133.048-.257.123-.39.173-.511.191-.651.622-.654,1.095-.004.637.496,1.219,1.098,1.348.704.151,1.405-.193,1.684-.846.051-.12.051-.276.031-.41-.057-.382-.268-.782-.526-1.053Z" fill="#231f20" stroke-width="0"/>
            <path d="m165.554,87.316c.273-.296.514-.538.733-.798.319-.38.278-.798.053-1.197-.139-.247-.33-.463-.504-.702-1.121-.29-1.361-.192-1.954.83.033.243.074.523.107.804.049.416.289.669.674.795.269.088.543.164.89.268Z" fill="#231f20" stroke-width="0"/>
            <path d="m162.934,88.858c-.214-.169-.369-.292-.524-.415-.238-.19-.508-.23-.802-.174-.617.118-.89.564-1.037,1.112-.126.468.072.827.433,1.113.089.07.178.142.273.202.692.443,1.513.134,1.749-.661.048-.162.061-.335.106-.499.084-.306.056-.563-.198-.679Z" fill="#231f20" stroke-width="0"/>
            <path d="m110.96,138.802c.361.534.958.375,1.505.275.326-.059.517-.359.528-.701.008-.253-.049-.508-.077-.762-.048-.441-.302-.698-.697-.887-.559-.268-1.113-.042-1.528.556-.307.442-.204,1.061.27,1.519Z" fill="#231f20" stroke-width="0"/>
            <path d="m170.873,79.163c.092.269.152.487.241.693.27.629,1.093.921,1.715.619.369-.179.548-.484.522-.891-.036-.573-.586-1.272-1.145-1.453-.309-.1-.537-.04-.749.227-.193.243-.366.501-.584.803Z" fill="#231f20" stroke-width="0"/>
            <path d="m167.785,81.682c-.082.127-.168.24-.234.364-.344.651-.166,1.301.454,1.673.504.303,1.31.133,1.675-.351.146-.194.211-.403.111-.634-.09-.206-.184-.413-.299-.606-.403-.678-.614-.76-1.394-.558-.108.028-.212.075-.313.111Z" fill="#231f20" stroke-width="0"/>
            <path d="m150.662,101.582c.255-.153.493-.26.688-.419.576-.47.57-1.429.006-1.888-.476-.387-1.355-.154-1.574.421-.061.16-.114.323-.156.489-.115.448,0,.787.373,1.036.209.139.443.243.663.362Z" fill="#231f20" stroke-width="0"/>
            <path d="m182.428,66.196c-.436.41-.426,1.227.021,1.697.359.378,1.094.298,1.615-.175.333-.303.289-1.076-.085-1.477-.488-.523-1.026-.538-1.55-.045Z" fill="#231f20" stroke-width="0"/>
            <path d="m146.191,104.242c.55.515,1.034.637,1.579.299.073-.045.162-.081.209-.146.362-.496.082-.988-.041-1.469-.065-.255-.404-.402-.701-.38-.478.036-.869.296-.961.715-.072.325-.061.669-.085.98Z" fill="#231f20" stroke-width="0"/>
            <path d="m180.59,69.695c-.331-.362-.912-.393-1.298-.069-.411.345-.384,1.03.06,1.533.278.315.907.289,1.309-.08.411-.377.52-.803-.071-1.384Z" fill="#231f20" stroke-width="0"/>
            <path d="m113.838,134.648c-.448.411-.236.953.072,1.278.388.409.959.403,1.355,0,.333-.34.275-1.112-.11-1.464-.293-.267-.963-.172-1.316.187Z" fill="#231f20" stroke-width="0"/>
            <path d="m128.922,119.157c-.618.581-.526,1.341.131,1.709.424.237,1.057-.057,1.143-.535.075-.414-.055-.792-.23-1.154-.087-.18-.391-.308-.59-.24-.186.063-.356.171-.455.22Z" fill="#231f20" stroke-width="0"/>
            <path d="m178.081,72.717c-.059-.046-.162-.15-.285-.217-.301-.163-.606-.153-.882.061-.271.21-.4.49-.299.828.056.188.164.359.243.541.12.275.355.367.624.357.388-.013.731-.139.913-.522.153-.322.056-.668-.314-1.049Z" fill="#231f20" stroke-width="0"/>
            <path d="m122.194,128.323c-.248-.297-.537-.316-.866-.221-.37.108-.574.352-.653.715-.084.387.076.781.384.964.333.199.84.167,1.125-.071.022-.018.04-.04.058-.062.193-.237.226-.975.051-1.219-.033-.046-.078-.082-.1-.106Z" fill="#231f20" stroke-width="0"/>
            <path d="m142.107,105.865c-.059.095-.171.229-.235.382-.247.591-.058,1.014.522,1.205.45.148,1.057-.224,1.174-.726.025-.109.031-.225.029-.337-.008-.372-.169-.681-.513-.809-.338-.126-.668-.016-.977.284Z" fill="#231f20" stroke-width="0"/>
            <path d="m139.603,110.822c.543-.096.785-.413.853-.824.063-.38.025-.776.031-1.184-.489-.151-.89-.025-1.255.193-.388.232-.494.938-.203,1.285.161.192.369.344.574.531Z" fill="#231f20" stroke-width="0"/>
            <path d="m135.072,114.533c-.447-.451-1.038-.328-1.276.278-.122.31-.264.614-.009.955.288.385.746.542,1.179.329.074-.036.148-.089.199-.152.26-.324.204-1.111-.094-1.411Z" fill="#231f20" stroke-width="0"/>
            <path d="m126.948,122.955c.236.257.618.336.93.193.263-.121.427-.417.408-.759-.014-.253-.021-.51-.069-.757-.054-.273-.313-.433-.582-.351-.24.073-.487.168-.688.313-.397.285-.381.943.002,1.361Z" fill="#231f20" stroke-width="0"/>
            <path d="m130.918,118.331c.436.455.746.516,1.146.297.295-.162.467-.574.399-.958-.089-.502-.487-.863-.909-.835-.246.016-.452.111-.548.337-.097.23-.186.477-.205.722-.014.176.094.362.116.438Z" fill="#231f20" stroke-width="0"/>
            <path d="m117.152,131.165c-.092.222-.176.43-.262.636-.172.408.029.717.279,1,.067.076.194.127.297.134.194.014.391-.012.554-.02.404-.37.496-.78.376-1.259-.099-.395-.301-.571-.721-.56-.167.004-.333.043-.524.069Z" fill="#231f20" stroke-width="0"/>
            <path d="m124.644,124.723c-.171.2-.327.46-.326.792,0,.351.165.592.481.725.31.131.604.101.863-.135.156-.142.256-.314.223-.523-.039-.249-.086-.503-.177-.736-.174-.451-.685-.523-1.064-.123Z" fill="#231f20" stroke-width="0"/>
            <path d="m137.424,113.04c.291-.299.344-1.032.087-1.338-.05-.06-.137-.109-.215-.123-.821-.148-1.222.544-1.094,1.113.081.361.41.447.698.553.215.079.378-.062.523-.206Z" fill="#231f20" stroke-width="0"/>
            <path d="m175.344,76.406c.139-.147.366-.285.423-.473.078-.261.063-.565.021-.84-.038-.245-.258-.364-.498-.405-.207-.035-.392.004-.541.173-.35.399-.362.605-.048,1.062q.154.224.644.483Z" fill="#231f20" stroke-width="0"/>
          </g>
          <g>
            <path d="m150.806,186.843c-.441.424-1.461.39-1.859-.094-.228-.278-.457-.575-.415-.99.036-.358.157-.641.438-.884.545-.47,1.151-.596,1.826-.397.434.128.6.37.593.816-.01.583-.14,1.126-.583,1.549Z" fill="#231f20" stroke-width="0"/>
            <path d="m154.166,180.365q.575,1.075.02,2.027c-.29.498-.657.679-1.193.539-.241-.063-.474-.182-.689-.31-.207-.123-.307-.349-.296-.581.033-.687.344-1.235.91-1.628.086-.06.214-.082.323-.082.307,0,.614.021.925.034Z" fill="#231f20" stroke-width="0"/>
          </g>
          <g>
            <path d="m146.423,165.946c-.341.309-.711.556-1.194.593-.732.055-1.272-.522-1.11-1.226.063-.274.15-.56.299-.794.215-.335.407-.671.567-1.039.273-.63.897-.764,1.481-.369.683.462.77.758.635,1.587-.083.512-.322.9-.678,1.247Z" fill="#231f20" stroke-width="0"/>
            <path d="m156.056,156.615c-.118.144-.228.315-.373.447-.361.329-.782.416-1.258.291-.478-.126-.684-.481-.784-.912-.063-.273-.087-.56-.095-.842-.014-.463.182-.846.592-1.055.556-.282,1.139-.346,1.69.032.323.222.657.424.797.842.114.34.074.609-.178.85-.123.118-.255.226-.391.346Z" fill="#231f20" stroke-width="0"/>
            <path d="m149.162,159.529c.588-.592,1.008-.657,1.653-.294.431.243.822.528.868,1.074.016.192.01.404-.055.582-.201.557-1.123,1.146-1.704,1.07-.504-.066-.925-.35-1.129-.804-.201-.447-.207-.943.135-1.369.089-.111.189-.212.232-.259Z" fill="#231f20" stroke-width="0"/>
            <path d="m140.031,168.66c.588-.592,1.008-.657,1.653-.294.431.243.822.528.868,1.074.016.192.01.404-.055.582-.201.557-1.123,1.146-1.704,1.07-.504-.066-.925-.35-1.129-.804-.201-.447-.207-.943.135-1.369.089-.111.189-.212.232-.259Z" fill="#231f20" stroke-width="0"/>
            <path d="m160.025,152.828c-.257.152-.46.325-.693.397-.482.147-.872-.13-1.074-.494-.237-.427-.476-.896-.364-1.442.102-.497.366-.821.865-.937.476-.111.931-.181,1.377.158.493.375.68.732.459,1.31-.139.363-.382.686-.568,1.009Z" fill="#231f20" stroke-width="0"/>
            <path d="m165.427,143.252c.372-.154.711-.293,1.069-.441.258.103.517.206.753.301.162.233.308.441.446.639.066.487-.049.908-.349,1.285-.403.505-1.158.731-1.762.508-.205-.076-.336-.254-.341-.451-.01-.394.021-.79.057-1.183.02-.22.083-.437.128-.657Z" fill="#231f20" stroke-width="0"/>
            <path d="m161.604,148.606c-.373-.376-.431-.658-.191-1.139.188-.377.318-.788.659-1.081.218-.187.432-.25.701-.155.46.162.908.319,1.075.862.07.227.103.441.031.663-.052.161-.121.319-.194.472-.428.902-1.391,1.076-2.082.378Z" fill="#231f20" stroke-width="0"/>
            <path d="m170.481,141.706c-.22.243-.481.284-.774.17-.21-.081-.427-.152-.626-.256-.509-.265-.685-.795-.381-1.287.259-.421.652-.701,1.171-.741.48-.037.819.197,1.022.607.186.375.204.759-.1,1.106-.111.127-.208.266-.312.4Z" fill="#231f20" stroke-width="0"/>
            <path d="m171.963,137.254c.479-.456,1.313-.543,1.698-.177.41.39.421,1.243.021,1.619-.477.448-1.294.415-1.755-.069-.37-.389-.354-1.001.036-1.373Z" fill="#231f20" stroke-width="0"/>
            <path d="m176.272,135.611c-.343.347-.563.381-.98.162-.146-.077-.292-.17-.449-.21-.261-.067-.375-.249-.43-.478-.155-.647.417-1.279,1.068-1.185.313.045.652.103.845.362.396.532.431.949-.054,1.35Z" fill="#231f20" stroke-width="0"/>
            <path d="m178.509,132.728c-.154-.061-.351-.111-.517-.212-.378-.228-.519-.705-.355-1.117.157-.394.719-.723,1.105-.604.173.054.36.184.456.334.134.209.202.466.273.709.07.237-.037.432-.275.553-.193.098-.39.191-.688.336Z" fill="#231f20" stroke-width="0"/>
            <path d="m181.004,127.761c.25-.076.48-.226.667-.185.293.064.579.226.827.405.186.134.255.378.157.615-.074.181-.176.35-.271.535-.237.041-.457.089-.679.114-.419.048-.697-.187-.741-.615-.011-.112-.011-.227-.006-.34.006-.14.023-.279.046-.529Z" fill="#231f20" stroke-width="0"/>
            <path d="m137.145,172.361c.22-.243.481-.284.774-.17.21.081.427.152.626.256.509.265.685.795.381,1.287-.259.421-.652.701-1.171.741-.48.037-.819-.197-1.022-.607-.186-.375-.204-.759.1-1.106.111-.127.208-.266.312-.4Z" fill="#231f20" stroke-width="0"/>
            <path d="m135.663,176.813c-.479.456-1.313.543-1.698.177-.41-.39-.421-1.243-.021-1.619.477-.448,1.294-.415,1.755.069.37.389.354,1.001-.036,1.373Z" fill="#231f20" stroke-width="0"/>
            <path d="m131.354,178.456c.343-.347.563-.381.98-.162.146.077.292.17.449.21.261.067.375.249.43.478.155.647-.417,1.279-1.068,1.185-.313-.045-.652-.103-.845-.362-.396-.532-.431-.949.054-1.35Z" fill="#231f20" stroke-width="0"/>
            <path d="m129.117,181.339c.154.061.351.111.517.212.378.228.519.705.355,1.117-.157.394-.719.723-1.105.604-.173-.054-.36-.184-.456-.334-.134-.209-.202-.466-.273-.709-.07-.237.037-.432.275-.553.193-.098.39-.191.688-.336Z" fill="#231f20" stroke-width="0"/>
            <path d="m126.622,186.306c-.25.076-.48.226-.667.185-.293-.064-.579-.226-.827-.405-.186-.134-.255-.378-.157-.615.074-.181.176-.35.271-.535.237-.041.457-.089.679-.114.419-.048.697.187.741.615.011.112.011.227.006.34-.006.14-.023.279-.046.529Z" fill="#231f20" stroke-width="0"/>
          </g>
          <g>
            <path d="m152.575,84.65c-.247.198-.464.432-.5.815-.086.917.319,1.603,1.412,1.527,1.359-.094,1.451-.103,2.219-1.37.029-.049.055-.1.08-.15.424-.84-.136-1.689-1.09-1.65-.169.007-.351.071-.505.029-.478-.132-.828.107-1.171.362-.158.117-.283.276-.445.438Z" fill="#231f20" stroke-width="0"/>
            <path d="m148.333,91.556c1.455-.068,1.568-.12,2.599-1.151.361-.361.47-.927.268-1.411-.179-.428-.542-.71-.986-.635-.418.071-.846.096-1.27.105-.675.013-1.034.457-1.261.982-.229.532-.294,1.101.22,1.567.164.148.279.35.43.543Z" fill="#231f20" stroke-width="0"/>
            <path d="m140.78,98.528c-.031-.055-.054-.107-.085-.154-.834-1.225-1.767-.949-2.688-.527-.098.045-.202.131-.249.225-.265.525-.635,1.015-.624,1.64.004.224.028.459.1.67.145.422.488.622.93.571.458-.053.884-.164,1.228-.523.271-.282.655-.427.912-.755.275-.351.481-.699.476-1.146Z" fill="#231f20" stroke-width="0"/>
            <path d="m159.451,80.94c.387-.309.654-.711.819-1.177.217-.612-.045-1.131-.661-1.366-.425-.162-.842-.109-1.253.036-.214.076-.409.205-.62.29-.519.209-.713.635-.761,1.145-.024.254.002.512.013.769.023.536.358.922.879.96.49.035.975,0,1.338-.41.076-.085.161-.162.245-.246Z" fill="#231f20" stroke-width="0"/>
            <path d="m144.66,95.498c.471-.439.768-.952,1.024-1.494.142-.3.161-.603.077-.913-.145-.537-.629-.845-1.166-.735-.304.062-.601.155-.964.251-.318.436-.666.914-1.049,1.439.041.266.063.579.141.877.147.561.568.844,1.149.771.278-.035.549-.134.789-.195Z" fill="#231f20" stroke-width="0"/>
            <path d="m136.509,103.54c.099-.152.217-.314.314-.488.256-.457.125-.824-.274-1.19-.576-.528-1.114-.21-1.663,0-.154.059-.274.202-.422.285-.479.269-.54.702-.467,1.179.064.42.476.814.917.892.379.067.732.028,1.037-.25.167-.153.36-.278.558-.428Z" fill="#231f20" stroke-width="0"/>
            <path d="m132.766,107.14c.6-.566.553-1.522-.474-1.851-.378-.121-.7-.113-1.071.019-.782.28-.992,1.265-.701,1.947.129.303.423.453.764.464.442.014,1.163-.27,1.481-.58Z" fill="#231f20" stroke-width="0"/>
            <path d="m104.871,133.08c-.413.404-.436,1.008-.053,1.371.304.288,1.132.319,1.439.055.318-.274.342-1.018.042-1.331-.452-.473-1.003-.51-1.428-.094Z" fill="#231f20" stroke-width="0"/>
            <path d="m92.506,146.12q.667.254,1.374.152c.17-.295.337-.589.509-.881.109-.184.152-.382.048-.568-.064-.114-.187-.263-.295-.272-.455-.041-.914-.027-1.316.243-.307.206-.496.47-.405.866.032.137.051.277.085.461Z" fill="#231f20" stroke-width="0"/>
            <path d="m97.145,142.487c.402.072.729.023,1.029-.171.345-.223.435-.476.314-.87-.017-.054-.024-.112-.05-.161-.189-.358-.422-.729-.862-.707-.414.021-.699.347-.878.716-.129.268-.146.54.106.775.122.114.213.259.341.418Z" fill="#231f20" stroke-width="0"/>
            <path d="m109.205,130.414c.38.356,1,.348,1.38-.018.335-.322.208-1.021-.232-1.434-.296-.278-.83-.239-1.158.069-.358.337-.341,1.054.01,1.383Z" fill="#231f20" stroke-width="0"/>
            <path d="m101.444,137.377c-.406-.447-1.168-.388-1.434.083-.108.192-.177.418-.21.636-.082.546.103.806.614.926.448.105.869-.108.999-.553.078-.266.095-.553.113-.833.006-.102-.065-.208-.082-.26Z" fill="#231f20" stroke-width="0"/>
            <path d="m89.642,149.574c-.303-.271-.618-.528-1.054-.312-.141.07-.276.19-.365.32-.254.372-.18.758.037,1.114.234.383.623.456,1.034.429.246-.016.412-.181.529-.381.194-.334.1-.903-.181-1.17Z" fill="#231f20" stroke-width="0"/>
          </g>
        </g>
        <path d="m150.442,188c2.276,0,4.2-1.718,4.414-3.984,2.963-31.419,39.811-56.29,39.811-89.349,0-14.438-4.605-27.792-12.404-38.707l-18.707,18.707h-17.778l-17.778,35.556-17.778,17.778h-17.778l-12.171,12.171c9.541,14.209,19.404,28.224,20.873,43.86.212,2.26,2.144,3.968,4.414,3.968h44.882Z" fill="none" stroke-width="0"/>
        <path d="m181.595,58.697c.221.091.44.02.658-.064.688-.263.967-.765.82-1.491-.122-.179-.244-.359-.368-.537-.219-.095-.435-.189-.656-.259-.054-.017-.103-.009-.156-.018l-1.18,1.18c.045.538.363.977.882,1.189Z" fill="none" stroke-width="0"/>
        <path d="m176.592,63.57c.304.011.559-.117.75-.346.181-.218.348-.45.503-.688.391-.6.208-1.395-.399-1.759l-2.113,2.113c.313.39.777.662,1.26.68Z" fill="none" stroke-width="0"/>
        <path d="m171.002,67.965c.367.267.686.584,1.215.433.546-.156.98-.447,1.282-.919.222-.347.279-.754.256-1.15-.027-.468-.399-.872-.854-1.008l-2.232,2.232c.068.156.173.296.333.412Z" fill="none" stroke-width="0"/>
        <path d="m166.869,72.155c.275.236.606.409.932.62.388-.174.721-.276,1-.46.454-.3.828-.688.932-1.257.026-.138.024-.282.031-.424.029-.679-.32-1.164-.873-1.303l-2.361,2.361c.079.174.199.342.339.462Z" fill="none" stroke-width="0"/>
        <path d="m163.175,77.005c.428.216.885.198,1.297-.097.186-.133.368-.271.434-.32.689-.626.818-1.314.771-2.051-.025-.394-.433-.78-.877-.796-.112-.004-.228.009-.343.024l-.902.902h-.919c-.429.29-.592,1.306-.252,1.713.212.254.495.477.79.626Z" fill="none" stroke-width="0"/>
        <path d="m137.3,93.551c.2-.188.304-.406.251-.687-.042-.223-.06-.453-.118-.672-.051-.195-.112-.348-.185-.468l-1.048,2.096c.361.073.854-.038,1.1-.27Z" fill="none" stroke-width="0"/>
        <path d="m126.385,111.837c.064.11.138.216.22.317.065.08.188.135.293.155.698.131,1.45-.314,1.689-.991.028-.08.041-.165.063-.247.185-.704.112-.87-.482-1.186l-.168.336-1.615,1.615Z" fill="none" stroke-width="0"/>
        <path d="m124.898,114.921c.262-.137.434-.359.466-.665.011-.111.003-.225-.002-.337-.015-.305-.047-.606-.258-.799l-1.614,1.613c.381.289,1.04.382,1.409.188Z" fill="none" stroke-width="0"/>
        <path d="m120.333,117.933c.102.078.142.126.193.144q.926.331,1.536-.481c.017-.022.041-.04.059-.062.437-.576.351-.928-.256-1.176l-1.541,1.541c.003.011.007.024.01.034Z" fill="none" stroke-width="0"/>
        <path d="m117.238,122.288c.447.143,1.033-.122,1.3-.59.028-.049.049-.105.058-.16.078-.498-.104-.889-.491-1.198-.044-.035-.09-.058-.135-.087l-1.434,1.434c.108.29.322.48.702.601Z" fill="none" stroke-width="0"/>
        <path d="m112.916,125.704c.452.289.905.231,1.351.054.446-.47.426-.969.155-1.517-.095-.042-.203-.088-.305-.135l-1.42,1.42c.059.062.128.121.219.179Z" fill="none" stroke-width="0"/>
        <path d="m101.927,128h-2.55c-.056.331-.08.671-.088,1.015-.006.267.125.491.335.661.632.675,1.217.497,1.67-.206.287-.446.494-.946.632-1.469Z" fill="none" stroke-width="0"/>
        <path d="m83.689,145.255c.087-.171.187-.334.262-.512.022-.052.04-.106.055-.161.128-.476.099-.904-.411-1.215-.19-.237-.433-.453-.82-.451-.212,0-.41.032-.593.093.504.749,1.006,1.498,1.507,2.246Z" fill="none" stroke-width="0"/>
        <path d="m102.226,184.506c-.325-.041-.669.081-.933.289.2.711.583,1.335,1.082,1.847.162-.046.308-.124.411-.243.281-.394.439-.84.161-1.375-.162-.312-.39-.476-.721-.518Z" fill="none" stroke-width="0"/>
        <path d="m135.439,188c.005-.014.012-.028.017-.042.187-.494-.057-.874-.418-1.199-.356-.321-.765-.388-1.183-.188-.327.156-.619.387-.875.552-.244.325-.462.596-.651.878h3.11Z" fill="none" stroke-width="0"/>
        <path d="m155.447,176.847c-.077.384-.151.686-.196.991-.073.503.083.83.417.991.14-.66.299-1.316.466-1.97-.206-.008-.422-.007-.687-.013Z" fill="none" stroke-width="0"/>
        <path d="m187.427,64.883c.058-.024.108-.065.162-.097-.357-.709-.728-1.409-1.108-2.103-.19.255-.312.557-.367.856-.035.192-.019.4.008.596.097.71.635,1.031,1.305.749Z" fill="none" stroke-width="0"/>
      </g>
      <path d="m184.472,59.25c-1.403-2.232-2.931-4.376-4.58-6.419l-17.947,17.947h-18.571l-18.57,37.141-16.192,16.192h-17.778l-12.762,12.762c1.458,2.202,2.937,4.396,4.411,6.588l11.571-11.572h17.778l19.363-19.363,16.986-33.97h16.985l19.306-19.305Z" fill="#f2efee" stroke-width="0"/>
      <path d="m112.444,210.222l3.483,13.93c.565,2.261,2.597,3.848,4.928,3.848h14.288c2.268,0,4.261-1.503,4.884-3.684l4.027-14.094h-31.609Z" fill="#9d9791" stroke-width="0"/>
      <path d="m105.778,188l3.899,27.295c.313,2.19,2.188,3.816,4.4,3.816h27.846c2.212,0,4.087-1.626,4.4-3.816l3.899-27.295h-44.444Z" fill="#bcb6b1" stroke-width="0"/>
      <polygon points="149.151 195.5 149.437 193.5 106.563 193.5 106.849 195.5 149.151 195.5" fill="#9d9791" stroke-width="0"/>
      <polygon points="147.937 204 148.222 202 107.778 202 108.063 204 147.937 204" fill="#9d9791" stroke-width="0"/>
      <polygon points="146.722 212.5 147.008 210.5 108.992 210.5 109.278 212.5 146.722 212.5" fill="#9d9791" stroke-width="0"/>
    </g>
  </g>
</svg>