<?xml version="1.0" encoding="UTF-8"?>
<svg id="Layer_1" data-name="Layer 1" xmlns="http://www.w3.org/2000/svg" width="64" height="64" viewBox="0 0 64 64">
  <rect width="64" height="64" fill="#4f2b33" stroke-width="0"/>
  <path d="m52,13v5H12v-5h40ZM12,29h40v-5H12v5Zm0,11h40v-5H12v5Zm0,11h40v-5H12v5Z" fill="#85515c" stroke-width="0"/>
  <path d="m46.346,42.093l-9.285-9.285c1.26-1.789,2.008-3.965,2.008-6.315,0-6.065-4.935-11-11-11s-11,4.935-11,11,4.935,11,11,11c2.273,0,4.387-.693,6.142-1.879l9.307,9.307,2.828-2.828Zm-25.277-15.6c0-3.86,3.141-7,7-7s7,3.14,7,7-3.141,7-7,7-7-3.14-7-7Z" fill="#fff" stroke-width="0"/>
</svg>