<?xml version="1.0" encoding="UTF-8"?>
<svg width="512px" height="512px" viewBox="0 0 512 512" version="1.1" xmlns="http://www.w3.org/2000/svg" xmlns:xlink="http://www.w3.org/1999/xlink">
    <title>Artboard_2x</title>
    <defs>
        <path d="M159.496859,180.015 C155.517975,173.124505 148.96473,168.096911 141.27886,166.038307 C133.592991,163.979702 125.404131,165.05873 118.513859,169.038 L99.4968591,180.027 L14.5968591,131.0085 C0.539004043,122.588547 -4.16763247,104.449851 4.02262887,90.2569469 C12.2128902,76.064043 30.272659,71.063096 44.5968591,79.0215 L148.519859,139.0215 C155.413203,143.00042 160.442843,149.555578 162.501598,157.24398 C164.560354,164.932382 163.479461,173.123782 159.496859,180.015 Z" id="path-1"></path>
        <filter x="-2.4%" y="-3.8%" width="104.9%" height="115.3%" filterUnits="objectBoundingBox" id="filter-2">
            <feOffset dx="0" dy="8" in="SourceAlpha" result="shadowOffsetOuter1"></feOffset>
            <feColorMatrix values="0 0 0 0 0   0 0 0 0 0   0 0 0 0 0  0 0 0 0.1 0" type="matrix" in="shadowOffsetOuter1"></feColorMatrix>
        </filter>
        <path d="M160.246859,180.015 C152.289511,180.012213 144.657274,183.172024 139.030578,188.798719 C133.403883,194.425415 130.244073,202.057651 130.246859,210.015 L130.246859,231.984 L45.3468591,281.004 C30.9982255,289.2154 12.7110019,284.278009 4.44489085,269.960823 C-3.82122016,255.643638 1.046331,237.337701 15.3318591,229.017 L119.256359,169.017 C126.149853,165.037094 134.342442,163.959932 142.030423,166.022664 C149.718403,168.085396 156.271462,173.118905 160.246859,180.015 Z" id="path-3"></path>
        <filter x="-2.5%" y="-3.3%" width="105.0%" height="113.3%" filterUnits="objectBoundingBox" id="filter-4">
            <feOffset dx="0" dy="8" in="SourceAlpha" result="shadowOffsetOuter1"></feOffset>
            <feColorMatrix values="0 0 0 0 0   0 0 0 0 0   0 0 0 0 0  0 0 0 0.1 0" type="matrix" in="shadowOffsetOuter1"></feColorMatrix>
        </filter>
        <path d="M160.246859,180.014996 C156.266449,186.905439 155.187739,195.095348 157.248244,202.781449 C159.308749,210.46755 164.339517,217.019618 171.232859,220.995 L190.261859,231.9765 L190.261859,330.014996 C190.261859,346.591827 176.823686,360.03 160.246859,360.03 C143.670032,360.03 130.231859,346.591827 130.231859,330.014996 L130.231859,210.014996 C130.231859,202.055906 133.394622,194.423014 139.023958,188.796492 C144.653294,183.169969 152.287766,180.01102 160.246859,180.014996 Z" id="path-5"></path>
        <filter x="-6.7%" y="-2.2%" width="113.3%" height="108.9%" filterUnits="objectBoundingBox" id="filter-6">
            <feOffset dx="0" dy="8" in="SourceAlpha" result="shadowOffsetOuter1"></feOffset>
            <feColorMatrix values="0 0 0 0 0   0 0 0 0 0   0 0 0 0 0  0 0 0 0.1 0" type="matrix" in="shadowOffsetOuter1"></feColorMatrix>
        </filter>
        <path d="M160.246859,180.015 C164.225743,186.905495 170.778989,191.933089 178.464858,193.991693 C186.150727,196.050298 194.339587,194.97127 201.229859,190.992 L220.254359,180.003 L305.154359,229.0215 C319.293367,237.406872 324.056695,255.605521 315.8389,269.84258 C307.621104,284.079638 289.479983,289.057573 275.146859,281.0085 L171.223859,221.0085 C164.330515,217.02958 159.300876,210.474422 157.24212,202.78602 C155.183365,195.097618 156.264257,186.906218 160.246859,180.015 Z" id="path-7"></path>
        <filter x="-2.4%" y="-3.8%" width="104.9%" height="115.3%" filterUnits="objectBoundingBox" id="filter-8">
            <feOffset dx="0" dy="8" in="SourceAlpha" result="shadowOffsetOuter1"></feOffset>
            <feColorMatrix values="0 0 0 0 0   0 0 0 0 0   0 0 0 0 0  0 0 0 0.1 0" type="matrix" in="shadowOffsetOuter1"></feColorMatrix>
        </filter>
        <path d="M159.496859,180.015 C167.454208,180.017787 175.086444,176.857976 180.71314,171.231281 C186.339835,165.604585 189.499646,157.972349 189.496859,150.015 L189.496859,128.046 L274.396859,79.026 C288.745493,70.8145997 307.032716,75.7519914 315.298827,90.0691766 C323.564938,104.386362 318.697387,122.692299 304.411859,131.013 L200.487359,191.013 C193.593865,194.992906 185.401276,196.070068 177.713295,194.007336 C170.025315,191.944604 163.472256,186.911095 159.496859,180.015 L159.496859,180.015 Z" id="path-9"></path>
        <filter x="-2.5%" y="-3.3%" width="105.0%" height="113.3%" filterUnits="objectBoundingBox" id="filter-10">
            <feOffset dx="0" dy="8" in="SourceAlpha" result="shadowOffsetOuter1"></feOffset>
            <feColorMatrix values="0 0 0 0 0   0 0 0 0 0   0 0 0 0 0  0 0 0 0.1 0" type="matrix" in="shadowOffsetOuter1"></feColorMatrix>
        </filter>
        <path d="M159.496859,180.015004 C163.47727,173.124561 164.555979,164.934652 162.495474,157.248551 C160.434969,149.56245 155.404201,143.010382 148.510859,139.035 L129.481859,128.0535 L129.481859,30.015 C129.481859,13.4381732 142.920032,0 159.496859,0 C176.073686,0 189.511859,13.4381732 189.511859,30.015 L189.511859,150.015 C189.511859,157.974094 186.349096,165.606986 180.71976,171.233508 C175.090424,176.860031 167.455952,180.01898 159.496859,180.015004 Z" id="path-11"></path>
        <filter x="-6.7%" y="-2.2%" width="113.3%" height="108.9%" filterUnits="objectBoundingBox" id="filter-12">
            <feOffset dx="0" dy="8" in="SourceAlpha" result="shadowOffsetOuter1"></feOffset>
            <feColorMatrix values="0 0 0 0 0   0 0 0 0 0   0 0 0 0 0  0 0 0 0.1 0" type="matrix" in="shadowOffsetOuter1"></feColorMatrix>
        </filter>
    </defs>
    <g id="Artboard" stroke="none" stroke-width="1" fill="none" fill-rule="evenodd">
        <rect fill="#056AC8" x="0" y="0" width="512" height="512"></rect>
        <g id="ut2-logo" transform="translate(95.000000, 76.000000)">
            <g id="Group-4" transform="translate(0.253141, 0.485000)">
                <g id="Shape_1_copy_6">
                    <use fill="black" fill-opacity="1" filter="url(#filter-2)" xlink:href="#path-1"></use>
                    <use fill="#BDC3C7" fill-rule="evenodd" xlink:href="#path-1"></use>
                </g>
                <g id="Shape_1_copy_5">
                    <use fill="black" fill-opacity="1" filter="url(#filter-4)" xlink:href="#path-3"></use>
                    <use fill="#F9422A" fill-rule="evenodd" xlink:href="#path-3"></use>
                </g>
                <g id="Shape_1_copy">
                    <use fill="black" fill-opacity="1" filter="url(#filter-6)" xlink:href="#path-5"></use>
                    <use fill="#24CB7F" fill-rule="evenodd" xlink:href="#path-5"></use>
                </g>
                <g id="Shape_1_copy_3">
                    <use fill="black" fill-opacity="1" filter="url(#filter-8)" xlink:href="#path-7"></use>
                    <use fill="#4AA4EC" fill-rule="evenodd" xlink:href="#path-7"></use>
                </g>
                <g id="Shape_1_copy_2">
                    <use fill="black" fill-opacity="1" filter="url(#filter-10)" xlink:href="#path-9"></use>
                    <use fill="#FFBE2A" fill-rule="evenodd" xlink:href="#path-9"></use>
                </g>
                <g id="Shape_1_copy_4">
                    <use fill="black" fill-opacity="1" filter="url(#filter-12)" xlink:href="#path-11"></use>
                    <use fill="#FFFFFF" fill-rule="evenodd" xlink:href="#path-11"></use>
                </g>
                <path d="M159.496859,180.015 C155.517975,173.124505 148.96473,168.096911 141.27886,166.038307 C133.592991,163.979702 125.404131,165.05873 118.513859,169.038 L99.4968591,180.027 L14.5968591,131.0085 C0.539004043,122.588547 -4.16763247,104.449851 4.02262887,90.2569469 C12.2128902,76.064043 30.272659,71.063096 44.5968591,79.0215 L148.519859,139.0215 C155.413203,143.00042 160.442843,149.555578 162.501598,157.24398 C164.560354,164.932382 163.479461,173.123782 159.496859,180.015 Z" id="Shape_1_copy_6-Copy" fill="#BDC3C7"></path>
            </g>
        </g>
    </g>
</svg>