<svg height="64" width="64" xmlns="http://www.w3.org/2000/svg"><g fill="none" fill-rule="evenodd"><path d="M0 0h64v64H0z" fill="#3e566d"/><g fill-rule="nonzero"><path d="M25.591 23.754c0-4.051 2.064-8.363 5.263-11.754-4.875 2.703-8.517 8.021-8.517 12.877s3.642 7.66 8.517 6.999c-3.199-1.183-5.263-4.071-5.263-8.122zm12.818 16.492c0 4.051-2.064 8.363-5.263 11.754 4.875-2.703 8.517-8.021 8.517-12.877s-3.642-7.66-8.517-6.999c3.199 1.183 5.263 4.071 5.263 8.122zm-19.321-3.842c-3.76-.728-6.071-3.398-6.594-6.946-1.49 4.963.46 9.263 4.967 10.136 4.508.872 10.1-1.969 13.485-6.565-3.723 2.726-8.098 4.103-11.858 3.375zm25.824-8.808c3.76.728 6.071 3.398 6.594 6.946 1.49-4.963-.46-9.263-4.967-10.136-4.508-.872-10.1 1.969-13.485 6.565 3.723-2.726 8.098-4.103 11.858-3.375zM25.496 44.65c-3.76 3.323-8.135 4.965-11.858 4.808 3.385 2.26 8.977 1.242 13.485-2.741s6.457-9.629 4.967-13.564c-.523 3.909-2.833 8.174-6.594 11.497zm13.008-25.3c3.76-3.323 8.135-4.965 11.858-4.808-3.385-2.26-8.977-1.242-13.485 2.741s-6.457 9.629-4.967 13.564c.523-3.909 2.833-8.174 6.594-11.497z" fill="#000" opacity=".1"/><path d="M25.591 22.754c0-4.051 2.064-8.363 5.263-11.754-4.875 2.703-8.517 8.021-8.517 12.877s3.642 7.66 8.517 6.999c-3.199-1.183-5.263-4.071-5.263-8.122z" fill="#fff"/><path d="M38.409 39.246c0 4.051-2.064 8.363-5.263 11.754 4.875-2.703 8.517-8.021 8.517-12.877s-3.642-7.66-8.517-6.999c3.199 1.183 5.263 4.071 5.263 8.122z" fill="#24cb7f"/><path d="M19.088 35.404c-3.76-.728-6.071-3.398-6.594-6.946-1.49 4.963.46 9.263 4.967 10.136 4.508.872 10.1-1.969 13.485-6.565-3.723 2.726-8.098 4.103-11.858 3.375z" fill="#bdc3c7"/><path d="M44.912 26.596c3.76.728 6.071 3.398 6.594 6.946 1.49-4.963-.46-9.263-4.967-10.136-4.508-.872-10.1 1.969-13.485 6.565 3.723-2.726 8.098-4.103 11.858-3.375z" fill="#4aa4ec"/><path d="M25.496 43.65c-3.76 3.323-8.135 4.965-11.858 4.808 3.385 2.26 8.977 1.242 13.485-2.741s6.457-9.629 4.967-13.564c-.523 3.909-2.833 8.174-6.594 11.497z" fill="#f9422a"/><path d="M38.504 18.35c3.76-3.323 8.135-4.965 11.858-4.808-3.385-2.26-8.977-1.242-13.485 2.741s-6.457 9.629-4.967 13.564c.523-3.909 2.833-8.174 6.594-11.497z" fill="#ffbe2a"/></g></g></svg>