<svg xmlns="http://www.w3.org/2000/svg" width="64" height="64"><g fill="none" fill-rule="evenodd"><path fill="#FDBD3E" d="M0 0h64v64H0z"/><g fill-rule="nonzero"><path fill="#3D566E" d="M24 42h8v10h-8zm10-6h8v16h-8z"/><path fill="#000" opacity=".1" d="M34 36h8v1h-8zm-10 6h8v1h-8z"/><path fill="#3D566E" d="M44 20h8v32h-8z"/><path fill="#000" opacity=".1" d="M44 20h8v1h-8z"/><path fill="#000" d="M24 13c-6.627 0-12 5-12 12 0 6.627 5.373 12 12 12 4.111 0 7.732-2.072 9.895-5.223A11.923 11.923 0 0 0 36 25c0-6.627-5-12-12-12zm0 18a6 6 0 1 1 0-12 6 6 0 0 1 0 12z" opacity=".05"/><path fill="#E5E7E9" d="M24 12v6a6 6 0 0 1 4.949 9.39l4.946 3.388A11.928 11.928 0 0 0 36 24c0-6.627-5-12-12-12z"/><path fill="#4AA4EC" d="M24 18v-6c-6.627 0-12 5-12 12h6a6 6 0 0 1 6-6z"/><path fill="#FFF" d="M28.949 27.39A6 6 0 0 1 18 24h-6c0 6.627 5.373 12 12 12 4.111 0 7.732-2.072 9.895-5.223l-4.946-3.387z"/></g></g></svg>