<?xml version="1.0" encoding="UTF-8"?>
<svg id="a" data-name="Layer 1" xmlns="http://www.w3.org/2000/svg" viewBox="0 0 64 64">
  <rect x="0" y="0" width="64" height="64" fill="#2c484b" stroke-width="0"/>
  <path d="m33.652,16h-13.874c-2.087,0-3.779,1.692-3.779,3.779v13.874c0,2.004.796,3.927,2.213,5.344l13.897,13.897c1.476,1.476,3.868,1.476,5.344,0l15.439-15.439c1.476-1.476,1.476-3.868,0-5.344l-13.897-13.897c-1.417-1.417-3.339-2.213-5.344-2.213Zm-11.032,10.62c-2.209,0-4-1.791-4-4s1.791-4,4-4,4,1.791,4,4-1.791,4-4,4Z" fill="#fff" stroke-width="0"/>
  <polygon points="35 27.5 35 30.5 39.379 30.5 33 36.879 27 30.879 18.548 39.331 20.669 41.452 27 35.121 33 41.121 41.5 32.621 41.5 37 44.5 37 44.5 27.5 35 27.5" fill="#76a29f" stroke-width="0"/>
  <path d="m17.5,25c-4.135,0-7.5-3.364-7.5-7.5s3.365-7.5,7.5-7.5,7.5,3.364,7.5,7.5-3.365,7.5-7.5,7.5Zm0-12.5c-2.757,0-5,2.243-5,5s2.243,5,5,5,5-2.243,5-5-2.243-5-5-5Z" fill="#bcb6b1" stroke-width="0"/>
  <path d="m22.354,18.647c.09-.006.175-.027.266-.027.798,0,1.537.24,2.162.642l1.218-1.763-1.151-1.5h-2.604l-.745,1.5.854,1.147Z" fill="#fff" stroke-width="0"/>
</svg>