<?xml version="1.0" encoding="UTF-8"?>
<svg id="a" data-name="Layer 1" xmlns="http://www.w3.org/2000/svg" viewBox="0 0 64 64">
  <rect width="64" height="64" fill="#4c825c" stroke-width="0"/>
  <path d="m35.935,8.081c.008.092.061.178.094.267.086.239-.006.436-.161.616-.043.05-.109.076-.174.067-.131-.017-.244-.069-.309-.191-.024-.046-.04-.096-.061-.144-.037-.087-.109-.128-.199-.129-.062,0-.127.011-.187.028-.07.02-.131.073-.236.073-.053-.09-.101-.171-.149-.253-.054-.092-.096-.189-.1-.297-.005-.147-.067-.264-.165-.366-.126-.132-.205-.291-.263-.462-.045-.129-.03-.247.08-.349.054-.05.097-.114.143-.172.053-.067.125-.085.201-.074.073.011.15.022.213.056.175.094.37.152.526.281.064.053.139.09.187.165.033.051.086.091.136.128.069.052.119.117.156.194.032.066.063.135.106.193.083.11.148.222.161.368Zm6.699,17.677c.029-.009.06-.045.053-.069-.082-.273-.164-.546-.245-.819-.039-.133-.102-.255-.167-.375-.024-.046-.059-.087-.095-.125-.094-.099-.191-.196-.289-.29-.061-.058-.147-.097-.187-.166-.051-.09.063-.173.058-.272-.006-.121.05-.228.107-.333.036-.066.064-.136.102-.201.12-.208.186-.43.214-.667.019-.164-.001-.318-.035-.473-.014-.064-.053-.114-.097-.16-.117-.122-.215-.258-.313-.396-.097-.137-.207-.266-.312-.397-.052-.066-.108-.129-.157-.198-.232-.328-.498-.625-.795-.894-.173-.169-.349-.334-.52-.506-.316-.319-.7-.536-1.098-.732-.037-.018-.079-.029-.12-.041-.345-.102-.413-.097-.763.079-.126.063-.197.163-.23.294-.055.223-.058.444.015.661.044.13.094.258.137.388.044.132.105.253.188.363.278.37.532.758.837,1.107.041.047.076.101.116.149.081.097.16.195.245.288.322.349.723.611,1.06.944.007.007.016.013.025.019.209.141.427.27.621.431.198.083.292.265.404.429.021.031.014.088-.013.119-.05.056-.106.108-.152.167-.123.159-.195.327-.139.535.037.136.092.259.178.366.058.073.13.133.188.21.062.082.155.14.231.212.171.164.386.253.603.335.11.041.226.055.344.018ZM31.786,3.316c.115.301.29.56.518.785.06.059.117.121.175.183.271.289.601.495.959.656.168.075.34.138.522.164l.646-.646c-.018-.138-.052-.272-.116-.4-.033-.066-.055-.137-.083-.205-.131-.325-.296-.63-.525-.896-.103-.12-.214-.233-.311-.357-.112-.143-.249-.256-.387-.37-.218-.181-.477-.208-.75-.181-.021.002-.042.01-.061.019-.148.068-.287.148-.375.294-.022.037-.047.073-.068.11-.04.068-.095.116-.17.141-.039.013-.076.033-.113.049.022.112.055.214.059.319.005.12.039.227.081.336Zm4.082,12.137c-.012.041-.021.083-.036.122-.051.129-.031.245.026.367.131.282.324.514.542.728.204.199.423.376.691.487.146.06.287.129.431.194.057.026.115.051.173.076.099.044.179.108.229.207.008.015.041.032.049.027.025-.015.052-.037.061-.063.034-.092.044-.188.022-.283-.026-.113-.05-.229-.096-.333-.098-.221-.196-.445-.32-.651-.097-.161-.229-.3-.353-.443-.18-.207-.39-.381-.622-.528-.156-.099-.325-.144-.513-.099-.031.008-.063.013-.097.02-.061.055-.124.113-.188.171Zm-.397-1.815c-.115-.052-.23-.105-.339-.168-.082-.047-.16-.102-.23-.165-.143-.127-.253-.283-.326-.46-.028-.067-.033-.143-.044-.216-.007-.05,0-.103-.027-.149-.101.006-.158.07-.213.137-.038.046-.028.084.029.121.017.011.035.022.052.034.021.015.024.036.004.054-.014.013-.035.019-.054.023-.008.002-.023-.006-.028-.013-.055-.087-.139-.113-.237-.134-.134-.029-.263-.079-.405-.048-.099-.033-.187.003-.274.05-.06.032-.125.029-.185,0-.179-.09-.352-.184-.486-.341-.15-.176-.315-.339-.474-.507-.029-.031-.057-.062-.09-.088-.31-.239-.569-.529-.818-.829-.156-.188-.276-.398-.388-.613-.059-.112-.106-.23-.171-.339-.073-.123-.099-.254-.091-.396.001-.021,0-.043.005-.064.036-.182.026-.36-.034-.534-.006-.018,0-.042.003-.063.003-.027.018-.039.042-.034.01.002.023,0,.03.007.139.13.298.121.474.078.178-.044.348-.106.518-.172.057-.022.105-.007.145.031.03.029.056.063.082.096.072.093.163.16.266.218.39.217.724.506,1.033.823.092.155.236.267.341.412.104.145.207.292.304.442.137.212.258.435.435.619.035.037.064.086.081.134.057.17.111.341.16.514.02.069.003.136-.041.194.07-.017.136-.037.197-.081.069-.051.144-.094.217-.139.147-.092.285-.062.417.026.035.023.066.052.096.082.237.235.395.514.476.84.035.144.081.284.121.427.017.061.034.122.049.184.013.054-.023.109-.076.123-.085.023-.169.031-.252.002-.099-.036-.198-.074-.294-.117Zm-.94-1.33c-.005-.003-.01-.005-.015-.008-.002.002-.002.005-.004.008.016-.022.022-.022.019,0Zm-4.192-9.392c.083.111.19.194.312.257.195.1.394.193.596.291.019-.034.044-.059.048-.087.016-.106.01-.212-.015-.316-.02-.082-.041-.164-.055-.247-.055-.333-.238-.603-.406-.882-.057-.095-.159-.136-.255-.176-.071-.03-.145.014-.217.031-.092.021-.143.081-.191.157-.086.133-.117.271-.099.426.02.174.069.329.202.449.031.028.054.064.079.098Zm4.589-.897c.151.114.325.196.459.333.014.014.036.022.055.031.165.071.329.142.484.233.007.004.024.002.03-.004.013-.013.033-.033.03-.045-.023-.094-.036-.187-.005-.283.01-.03.014-.063.012-.094-.022-.287-.09-.566-.18-.835-.081-.241-.233-.447-.422-.621-.122-.101-.243-.202-.365-.302-.066-.054-.14-.093-.226-.108-.113-.019-.213.005-.289.097-.048.058-.09.121-.131.184-.107.164-.12.339-.068.521.105.369.313.666.616.895Zm2.028,4.73c.167.087.334.175.502.261.245.124.49.094.734-.021.024-.011.04-.048.051-.076.014-.034-.006-.066-.035-.077-.096-.036-.149-.104-.182-.201-.041-.119-.099-.232-.143-.35-.034-.09-.078-.171-.146-.238-.045-.044-.083-.094-.174-.197.008.008-.037-.036-.081-.081-.074-.077-.167-.086-.263-.054-.059.02-.115.055-.168.091-.087.06-.127.174-.239.21-.016.005-.029.031-.037.05-.023.048-.039.1-.063.147-.083.156-.044.283.073.4.052.052.106.101.172.135Zm6.731,3.789c-.054-.17-.145-.302-.321-.362-.09-.031-.173-.084-.265-.103-.241-.051-.467-.033-.62.209-.034.054-.081.102-.112.158-.088.155-.078.309.023.449.055.076.125.142.188.213.002-.002.004-.004.006-.006.052.052.1.109.157.155.191.152.417.191.657.174.031-.002.062-.017.092-.027.111-.038.184-.117.206-.228.042-.211.055-.422-.011-.63Zm-5.975-8.177c.12.11.188.252.241.402.042.12.085.239.12.361.051.174.119.337.23.482.05.066.09.143.119.221.045.12.108.228.17.338.062.11.121.222.188.329.135.213.261.434.418.63.197.245.384.501.615.718.061.057.119.119.179.178,0,0,.001-.001.002-.002.149.149.298.297.446.446.082.083.181.144.281.202.065.039.133.061.211.056.053-.003.107-.002.159-.009.225-.03.446-.028.656.065.019.008.041.015.061.014.053-.002.11.005.157-.014.192-.078.358-.194.486-.361.061-.08.09-.168.073-.27-.011-.062-.01-.127-.008-.191.006-.153-.036-.295-.092-.432-.06-.147-.145-.281-.24-.407-.07-.092-.133-.189-.205-.28-.176-.223-.351-.447-.532-.664-.121-.145-.253-.281-.38-.421-.035-.039-.064-.086-.104-.118-.165-.132-.304-.289-.444-.445-.042-.046-.088-.092-.141-.124-.22-.133-.399-.308-.551-.513-.053-.071-.581-.499-.655-.539-.009-.005-.019-.009-.029-.013-.225-.084-.393-.241-.545-.417-.027-.032-.053-.066-.083-.095-.089-.084-.193-.127-.319-.093-.103.027-.206.056-.309.084-.158.044-.258.145-.296.306-.007.031-.012.064-.024.093-.063.158-.022.292.081.412.021.024.041.048.064.069Zm2.53,10.467c.239.223.437.413.64.596.062.055.138.094.209.14.163.106.345.154.539.167.193.013.375.064.547.15.171.087.17.084.329-.046.094-.076.167-.168.226-.271.021-.036.039-.079.042-.119.024-.281.008-.554-.156-.795-.035-.052-.062-.11-.097-.163-.168-.255-.334-.51-.507-.762-.113-.164-.233-.324-.356-.482-.084-.108-.181-.205-.269-.31-.082-.098-.171-.185-.278-.255-.132-.087-.258-.183-.388-.272-.08-.055-.145-.12-.189-.208-.019-.037-.037-.077-.065-.107-.075-.081-.168-.137-.282-.098-.11.037-.209.032-.306-.022-.086-.048-.179-.06-.277-.044-.031.005-.063.011-.095.012-.06.002-.099-.026-.115-.086-.004-.017-.025-.045-.032-.043-.099.03-.188-.032-.284-.021-.021.002-.042.005-.063.009-.085.013-.131.096-.089.166.032.054.07.105.102.16.067.115.092.235.03.364-.014.029-.029.058-.04.088-.038.105-.037.209.007.311.029.068.069.132.087.203.087.333.263.62.437.909.049.081.099.163.16.234.186.215.378.424.532.596Zm-2.475,1.125c.081.287.199.555.406.773.13.137.267.267.402.399.068.066.144.117.232.158.181.083.361.171.509.308.041.038.092.047.147.04.032-.004.063-.009.094-.013.008-.021.022-.041.022-.061.001-.18-.015-.357-.061-.533-.04-.155-.104-.298-.169-.44-.061-.134-.067-.291-.159-.41-.096-.124-.199-.243-.3-.363-.027-.032-.052-.07-.087-.09-.145-.084-.289-.17-.442-.238-.074-.033-.17-.042-.247.005-.13.078-.239.181-.318.312-.028.047-.045.099-.03.153Zm.903-4.667c.153-.051.214-.208.275-.342.081-.18.006-.371-.202-.42-.051-.012-.104-.02-.157-.019-.139.003-.276.03-.402.093-.066.033-.127.078-.152.094-.112.11-.138.172-.134.29.001.042.004.085.013.126.015.065.054.117.111.148.208.113.432.101.648.03Zm20.647-5.637c.123.059.239.131.357.199.085.049.148.116.166.218.004.02.014.04.022.058.01.021.057.029.085.017.101-.045.177-.157.169-.248-.056-.628-.104-.804-.385-1.355-.062-.121-.122-.245-.273-.377-.12-.089-.286-.218-.512-.223-.066-.002-.125.013-.179.055-.112.088-.2.196-.25.328-.022.058-.039.125-.034.186.018.236.079.463.237.641.173.195.355.385.598.502ZM42.329.575c.058.047.128.112.206.164.105.069.213.138.329.188.28.122.564.232.847.347.036.014.09-.029.086-.069-.012-.127-.031-.253-.034-.38-.005-.182-.036-.359-.075-.535-.022-.098-.048-.194-.078-.29h-1.717c.017.03.025.064.045.093.112.165.25.312.39.482Zm17.485,9.204c-.045.035-.055.091-.059.145-.025.315.093.559.358.724.116.072.238.135.355.205.161.096.32.087.479-.005.002-.017.007-.03.003-.035-.065-.084-.104-.176-.122-.283-.038-.219-.087-.436-.134-.653-.009-.041-.02-.085-.044-.117-.07-.092-.143-.181-.222-.266-.051-.056-.121-.082-.199-.086-.056-.003-.105.008-.143.054-.088.108-.161.229-.273.317Zm-.688-1.511c.199.138.421.232.648.313.089.031.187.031.307-.027-.081-.112-.091-.247-.108-.379-.019-.148-.063-.287-.103-.428-.06-.21-.181-.376-.326-.529-.06-.063-.132-.101-.217-.119-.066-.014-.127-.006-.176.045-.111.115-.221.232-.333.35-.006.065-.01.128-.017.191-.009.077.008.149.04.215.068.143.151.275.285.368Zm3.186,5.823c-.089-.189-.146-.396-.283-.561-.027-.032-.054-.068-.065-.107-.05-.174-.179-.286-.314-.383-.248-.178-.516-.323-.819-.396-.067-.016-.126-.005-.187.016-.134.047-.205.149-.235.282-.012.052-.021.105-.025.158-.003.041-.004.087.011.124.118.308.301.556.566.74.189.132.389.25.588.368.208.122.422.235.63.356.034.019.054.061.08.093l-.002-.012c.058-.082.076-.179.091-.272.021-.137.023-.281-.036-.407ZM50.506.881c.054.241.164.458.291.662.313.5.669.969,1.097,1.377.182.174.37.343.527.542.032.04.072.079.118.102.131.066.262.135.421.116.135-.017.249.034.35.116.032.026.068.048.106.075.074-.018.146-.038.218-.054.122-.026.215-.098.286-.196.05-.069.09-.145.13-.221.059-.111.061-.226.014-.339-.07-.165-.127-.335-.189-.502-.043-.117-.11-.226-.174-.335-.059-.1-.117-.199-.151-.311-.043-.144-.122-.268-.229-.372-.114-.111-.21-.234-.279-.378-.022-.047-.058-.087-.091-.128-.119-.148-.23-.3-.301-.479-.023-.058-.059-.112-.095-.163-.024-.034-.053-.069-.089-.087-.179-.087-.348-.192-.51-.306h-1.293c0,.006.001.013,0,.018-.006.018-.019.041-.035.048-.028.013-.061.016-.092.025-.061.017-.08.037-.071.084.029.157.055.313-.036.456.028.089.058.168.077.25Zm12.521,16.696c.135.099.281.185.421.277.045.029.08.067.097.12.013.04.026.08.043.119.029.066.124.093.19.056.019-.01.036-.023.054-.035.122-.123.184-.288.144-.438-.102-.378-.214-.75-.46-1.065-.054-.069-.111-.123-.188-.16-.05-.024-.522-.162-.576-.168-.102-.012-.188.036-.233.132-.027.058-.051.117-.081.173-.053.103-.055.204-.003.305.024.047.047.094.074.139.131.221.314.394.518.544Zm.492-9.858c-.062-.098-.14-.156-.249-.173-.142-.022-.255-.095-.363-.181-.099-.078-.198-.157-.299-.232-.074-.055-.157-.06-.241-.021-.078.036-.153.077-.227.121-.238.139-.344.348-.321.617.008.095.024.191.053.28.051.162.076.329.106.496.013.072.031.146.062.212.163.342.323.686.508,1.017.062.111.136.21.22.306.194.221.393.436.554.685.148.23.339.429.535.619.044.043.095.075.144.112v-3.315s-.001-.001-.002-.002c-.186-.159-.349-.336-.479-.54Zm-1.456-7.719c-.009.162.028.313.076.464.068.211.141.42.245.616.059.111.116.226.189.328.183.257.366.514.573.752.227.262.46.519.721.749.043.038.089.072.133.108V0h-1.937Zm-4.344,17.16c-.264-.38-.543-.748-.83-1.111-.13-.165-.254-.334-.436-.45-.052-.033-.093-.085-.135-.132-.073-.079-.157-.139-.265-.163-.095-.021-.175-.069-.251-.129-.082-.065-.168-.125-.252-.188-.057-.042-.121-.01-.138.069-.006.031-.008.063-.011.094-.01.006-.018.016-.028.017-.139.018-.275.04-.352.182-.004.008-.017.014-.027.016-.122.026-.179.153-.292.192-.195.229-.248.156-.209.494.013.108.041.202.098.295.144.233.289.464.488.655.052.05.094.113.133.175.058.09.131.165.212.232.226.189.449.38.703.532.117.07.234.141.333.238.029.029.067.05.102.073.087.058.176.114.263.173.158.109.328.2.523.208.398.017.375.047.556-.334.084-.177.109-.375.063-.563-.049-.205-.128-.403-.249-.578Zm-.246,3.712c-.315-.325-.536-.464-.906-.578-.15-.046-.292-.035-.405.101-.044.054-.065.109-.048.176.04.155.051.309.02.471-.031.161.011.315.079.462.068.146.156.275.286.371.152.113.304.227.46.334.106.073.196.151.244.278.033.086.133.098.217.046.129-.081.242-.179.342-.293.144-.165.196-.354.157-.566-.03-.169-.086-.329-.185-.467-.098-.137-.206-.266-.261-.335Zm-5.851,3.507c-.14-.223-.294-.436-.458-.641-.171-.213-.334-.434-.516-.636-.225-.249-.447-.503-.711-.714-.188-.151-.376-.304-.567-.451-.083-.064-.175-.116-.264-.173-.172-.11-.37-.148-.567-.189-.076-.016-.147.002-.213.046-.154.103-.287.23-.383.385-.096.156-.152.326-.117.519.038.212.102.411.211.592.141.234.291.462.439.692.023.035.051.067.08.097.151.161.304.32.456.48-.002.002-.005.005-.007.007.118.104.237.208.355.312.244.215.474.447.764.605.036.02.065.053.098.079.316.248.652.46,1.037.588.12.04.235.092.353.139.05.02.115-.01.125-.065.022-.127.071-.245.11-.367.056-.172.093-.351.126-.529.032-.176-.01-.337-.12-.478-.078-.099-.164-.193-.231-.3Zm-8.085-5.768c-.141-.382-.34-.721-.636-1.004-.179-.228-.425-.363-.695-.462-.074-.027-.152-.021-.214.025-.085.064-.17.134-.235.217-.073.093-.094.213-.111.329-.003.02.002.042.008.062.07.244.157.482.293.695.24.377.547.688.938.913.127.073.26.136.373.233.038.033.093.047.142.065.221.078.271.083.244-.168-.008-.073.007-.148.006-.222-.006-.234-.031-.461-.113-.684Zm17.278,5.506c-.052-.068-.091-.14-.087-.232.004-.08-.046-.138-.088-.18-.162-.14-.307-.28-.467-.398-.11-.081-.217-.163-.316-.258-.141-.135-.315-.167-.5-.089-.108.045-.21.107-.311.168-.099.06-.146.158-.158.268-.02.189.027.353.158.496.178.195.396.345.584.528.015.014.034.025.054.033.23.104.451.229.698.296.113.031.219.073.323.126.071.036.116.087.134.164.009.039.04.051.071.045.028-.006.063-.024.078-.047.064-.104.09-.218.059-.337-.053-.204-.1-.411-.232-.582Zm1.531-19.176c.074.039.144.088.217.128.055.03.112.059.171.08.094.034.184.022.267-.047-.022-.05-.05-.096-.061-.146-.013-.061-.018-.127-.016-.19.009-.216-.039-.421-.085-.628-.038-.17-.124-.312-.217-.452-.042-.063-.104-.104-.18-.118-.041-.008-.084-.01-.126-.015-.046-.005-.09.012-.111.049-.058.105-.136.193-.224.273-.069.063-.095.139-.095.229-.002.367.125.659.46.836Zm-17.072,10.088s-.003.003-.004.004c.116.122.226.25.348.366.187.178.403.294.677.3.233.005.468.02.686.113.01.004.02.006.031.007.111.013.217.004.274-.113.036-.074.095-.114.163-.147.054-.026.075-.074.08-.13.027-.303-.016-.595-.14-.87-.048-.106-.102-.208-.156-.311-.192-.364-.407-.71-.669-1.031-.302-.37-.633-.704-1.031-.967-.153-.101-.284-.217-.362-.386-.013-.028-.033-.056-.058-.073-.033-.024-.072-.044-.112-.052-.04-.009-.086-.007-.127.001-.173.036-.339-.004-.505-.034-.152-.09-.333-.044-.494-.09-.017-.005-.049.005-.058.019-.048.07-.113.135-.098.229.019.117.012.232-.015.349-.014.062-.012.127-.02.19-.014.12.011.231.063.338.055.113.099.232.148.349.123.292.245.586.435.84.264.354.516.719.854,1.01.032.027.06.059.09.089Zm11.89-2.047c-.117-.048-.237-.089-.357-.13-.208-.071-.432,0-.567.181-.018.024-.028.058-.031.088-.009.094-.019.19-.018.284.002.111.086.19.122.289.018.049.041.097.065.144.019.037.038.076.065.107.124.143.245.288.387.415.295.263.642.44,1.006.582.178.07.359.121.475.287.013.018.08,0,.083-.021.009-.052.026-.106.022-.157-.051-.67-.311-1.245-.728-1.689-.21-.214-.327-.299-.525-.381Zm-1.001-4.655c.087.058.185.101.279.148.104.052.212.096.313.153.092.051.211.062.275.15.082.112.22.059.316.121.026.017.053.031.084.048.021-.028.048-.05.058-.078.073-.214.049-.423-.039-.622-.106-.242-.237-.471-.385-.688-.088-.129-.177-.261-.313-.352-.3-.202-.614-.369-.99-.385-.01.003-.021.005-.031.009-.286.12-.346.046-.392.509.051.116.089.252.164.364.17.258.405.454.661.624Zm.983-7.628c.104.035.21.02.307-.04.009-.006.018-.012.027-.018.022-.014.04-.071.024-.084-.142-.116-.173-.279-.196-.45-.005-.036-.017-.071-.026-.107h-.88c-.006.099.021.196.068.256.176.224.413.354.676.443Zm-3.294,4.001c-.123-.124-.278-.186-.449-.214-.045-.007-.086.008-.113.044-.077.103-.155.207-.228.313-.076.111-.114.228-.061.362.019.048.016.105.028.156.027.113.041.233.089.336.05.108.175.146.268.214.136.099.265.206.442.234.06.009.114.054.171.081.094.046.189.091.277.133.054-.027.069-.065.071-.11.014-.421-.07-.824-.213-1.214-.014-.039-.038-.076-.065-.107-.07-.078-.143-.154-.217-.229Zm3.19-1.981c-.057.049-.107.105-.16.158,0,0,.001.001.002.002-.023.023-.042.055-.069.067-.121.051-.133.154-.15.263-.038.235.052.414.221.56.047.041.099.08.154.108.14.072.282.141.426.204.147.063.303.088.466.055.064-.013.1-.053.084-.106-.066-.211-.13-.423-.2-.633-.058-.171-.146-.324-.26-.465-.105-.129-.229-.211-.394-.24-.046-.008-.087,0-.119.028Zm-11.697-.49c.114.136.222.277.4.342.098.036.184.101.28.143.175.077.356.133.55.052.039-.091-.025-.165-.027-.249-.004-.193-.068-.372-.112-.556-.034-.139-.105-.252-.194-.354-.062-.07-.132-.135-.208-.19-.13-.093-.29-.073-.401.04-.06.061-.114.132-.183.179-.109.074-.145.181-.176.295-.017.064-.012.127.014.186.017.038.031.08.057.111Zm2.272-1.838c.151.075.297.158.405.295.066.085.162.132.27.149.014-.016.034-.03.042-.048.058-.141.079-.289.085-.438.002-.052-.005-.108-.021-.157-.022-.066-.049-.129-.074-.194h-1.412s.008.007.013.01c.228.131.455.265.692.382Zm7.287,22.816c-.123-.115-.259-.218-.367-.345-.154-.181-.348-.301-.552-.413-.128-.07-.257-.091-.414-.049-.059.069-.111.124-.155.183-.018.024-.03.06-.028.089.006.117.025.228.091.331.179.278.402.512.669.705.136.098.272.195.425.269.085.041.161.099.241.15.054.035.097.08.122.141.012.028.014.065.051.073.044.01.083-.009.118-.034.092-.067.153-.159.159-.269.013-.261-.027-.508-.225-.699-.045-.044-.089-.089-.135-.132ZM14.739,2.024c.224.348.489.657.817.911.092.071.175.15.232.254.03.055.07.105.112.152.027.03.063.058.101.073.186.074.357.178.534.27.056.029.114.057.174.073.122.032.246.063.371.082.104.016.211.028.323-.009.08-.079.169-.157.283-.199.04-.014.078-.038.111-.065.024-.019.047-.049.055-.077.029-.114.053-.23.029-.347-.062-.304-.167-.589-.363-.832-.02-.025-.038-.05-.057-.076-.203-.281-.405-.564-.61-.844-.043-.059-.092-.117-.149-.161-.191-.148-.386-.292-.583-.432-.138-.099-.294-.165-.462-.198-.219-.042-.441-.054-.669-.056-.097.086-.197.168-.288.259-.052.052-.103.115-.131.182-.099.236-.118.476-.023.715.047.119.124.219.192.325Zm48.187,17.496c-.098-.062-.195-.124-.292-.188-.089-.059-.184-.101-.292-.113-.074-.008-.148-.017-.22-.034-.192-.044-.351-.136-.459-.307-.084-.133-.18-.259-.273-.387-.037-.051-.077-.1-.12-.147-.076-.084-.158-.095-.258-.044-.128.065-.226.162-.307.278-.006.008-.006.021-.01.03-.014.032.015.096.048.104.02.005.041.014.062.012.156-.013.265.051.334.189.038.075.087.144.123.22.026.056.044.118.055.18.014.076-.007.148-.061.208-.036.04-.075.077-.112.116-.091.097-.104.153-.041.255.113.18.198.371.25.578.037.145.105.276.182.402.138.224.285.442.413.672.066.119.145.233.232.338.375.455.77.89,1.192,1.303.178.175.384.289.62.362.003,0,.006,0,.009.002v-3.132c-.047-.051-.093-.102-.141-.151-.279-.288-.594-.533-.933-.747ZM20.289,1.321c.027.032.061.061.08.097.124.239.326.41.51.597.113.115.249.19.402.241.264.089.649.155.993.164.027-.05.03-.103.02-.156-.07-.356-.18-.694-.385-.996-.107-.157-.223-.306-.337-.456-.11-.144-.241-.264-.39-.365-.264-.178-.247-.191-.52-.195-.042,0-.083-.017-.125-.021-.044-.005-.086.008-.117.041-.036.039-.076.079-.097.126-.064.147-.119.298-.177.448.008.052.024.104.023.156-.002.124.042.227.12.318Zm2.631,3.309c.276.122.572.141.87.152.023,0,.06-.028.07-.052.011-.025.008-.071-.009-.089-.073-.079-.109-.178-.162-.268-.106-.181-.219-.359-.333-.535-.028-.043-.072-.076-.112-.109-.053-.043-.126-.045-.177-.008-.026.019-.052.039-.099.074-.028.041-.081.098-.111.164-.076.171-.096.349-.053.531.015.065.053.112.116.14Zm1.062-2.554c.033.026.066.055.089.089.086.127.211.194.346.26.257.126.527.218.792.319.108.041.224.06.337.088.034.008.066-.021.057-.051-.071-.244-.161-.481-.269-.71-.059-.125-.129-.24-.223-.343-.092-.101-.177-.208-.265-.313.002-.002.005-.005.007-.007-.074-.074-.145-.153-.224-.222-.063-.055-.133-.103-.206-.144-.14-.078-.36-.032-.468.094-.035.041-.063.087-.096.129-.116.152-.116.319-.068.487.034.123.087.238.19.322Zm1.29,3.702c-.081-.079-.181-.104-.29-.107-.177-.005-.333.06-.479.16-.095.065-.149.155-.173.262-.017.072-.019.148-.025.222-.008.112.029.209.101.291.049.055.103.105.147.148.108.148.262.227.383.344.132.127.286.218.455.277.191.065.37.154.555.23.1.041.187.092.262.169.039.04.104.031.137-.018.048-.07.085-.149.135-.217.061-.082.047-.163.016-.242-.051-.127-.105-.253-.165-.375-.065-.132-.14-.259-.244-.366-.051-.052-.099-.109-.14-.17-.065-.098-.144-.18-.247-.239-.101-.058-.187-.135-.267-.22-.05-.053-.111-.097-.163-.148Zm2.363.289c.101.086.221.158.369.168.083.005.162.047.245.063.093.018.188.031.283.039.099.008.149-.059.099-.136-.101-.159-.136-.329-.111-.517.003-.021-.002-.042-.004-.075-.12-.222-.244-.454-.325-.707-.009-.03-.027-.057-.045-.083-.171-.242-.376-.453-.609-.634-.05-.039-.111-.06-.179-.044-.031.007-.063.018-.095.016-.139-.006-.242.062-.342.153-.104.094-.155.203-.159.338-.01.345.092.645.319.904.168.191.363.352.555.515Zm26.975,8.69c-.068-.199-.204-.305-.43-.282-.03.003-.063.019-.085.039-.038.036-.076.077-.1.122-.073.133-.042.274.07.369.081.069.169.129.276.137.144.011.264.06.361.163.013.013.037.021.057.021.016,0,.033-.015.05-.023q-.139-.198-.18-.424c-.007-.041-.005-.086-.018-.124Zm-4.177.515c-.074,0-.147-.019-.221-.024-.105-.007-.186.041-.244.127-.024.035-.038.077-.06.114-.04.07-.046.143-.022.216.023.07.05.139.084.203.1.19.246.339.415.467.185.14.389.249.6.346.074.034.15.067.225.1.043-.04.048-.093.044-.146-.019-.256-.095-.499-.18-.736-.056-.157-.152-.299-.249-.437-.093-.133-.213-.23-.392-.23Zm-1.086-3.159c-.064.043-.116.094-.145.167-.028.069-.058.138-.086.207-.008.02-.018.042-.016.061.011.115.004.237.06.34.101.183.198.372.346.47.095.08.15.151.224.185.2.094.41.166.626.216.129.03.254.003.367-.071.022-.014.04-.056.037-.082-.007-.052-.035-.1-.044-.151-.025-.146-.049-.292-.064-.439-.015-.151-.075-.285-.136-.418-.041-.089-.109-.156-.202-.19-.1-.037-.195-.081-.276-.149-.116-.096-.253-.142-.393-.192-.116-.042-.203-.018-.297.045Zm4.088-2.591c-.026.015-.05.042-.064.068-.054.104-.104.211-.156.316-.016.033-.079.055-.11.039-.009-.005-.02-.008-.028-.014-.148-.125-.336-.17-.511-.241-.072-.029-.15-.03-.218,0-.129.056-.247.131-.299.275-.018.05-.038.1-.06.149-.019.041-.022.08-.015.124.008.052.005.107.016.158.047.214.148.395.333.517.105.069.215.133.332.18.283.115.575.206.874.275.06.014.125.01.198.016-.011-.04-.012-.073-.027-.097-.036-.059-.032-.12-.021-.184.008-.045.059-.079.092-.06.036.021.076.038.108.063.259.2.551.347.841.495.113.058.224.114.312.207.018.019.075.007.08-.016.066-.284.097-.565-.006-.846-.066-.179-.128-.355-.255-.502-.061-.07-.099-.16-.144-.243-.055-.102-.122-.195-.197-.284-.182-.217-.429-.331-.682-.438-.141-.06-.27-.028-.395.044Zm-6.469-4.395c.033.065.069.132.117.186.152.174.307.348.502.476.126.082.23.182.314.309.176.003.33.064.477.151.099.059.2.113.289.191.115.1.254.145.417.096.01-.026.027-.055.03-.085.005-.053.002-.106-.001-.159-.012-.204-.097-.389-.148-.582-.024-.089-.087-.166-.134-.248-.021-.036-.055-.067-.068-.106-.074-.204-.216-.359-.357-.516-.185-.206-.414-.355-.659-.479-.112-.057-.232-.099-.348-.149-.059-.025-.12-.039-.186-.029-.063.009-.126.017-.208.027-.044.072-.079.126-.111.181-.13.223-.132.244-.037.474.036.088.071.177.113.261Zm-1.448,1.86c-.138-.043-.279-.019-.377.104-.082.103-.186.177-.294.256-.026.079-.058.159-.076.241-.016.076.003.149.07.198.162.118.336.217.525.286.249.091.504.157.776.13.031-.003.065-.034.063-.061-.003-.042-.005-.084-.011-.126-.036-.245-.144-.461-.25-.68-.089-.184-.241-.291-.426-.349Zm6.343,1.376c.06.02.121.036.183.051.064.015.125.003.187-.023.094-.039.117-.075.083-.171-.032-.09-.055-.181-.065-.277-.031-.288-.118-.559-.248-.813-.214-.42-.195-.398-.67-.619-.258-.12-.284-.1-.537.12-.057.048-.115.136-.143.243-.053.201-.062.399.04.585.071.129.144.256.218.383.021.036.044.075.077.099.136.098.265.206.426.264.149.053.298.106.447.157Zm-7.654-2.821c.063.146.166.265.294.363.257.198.511.401.783.615.055-.081.097-.142.139-.204.057-.085.071-.177.056-.275-.005-.031-.011-.063-.02-.093-.065-.211-.13-.423-.198-.633-.016-.049-.039-.099-.07-.14-.058-.076-.096-.162-.133-.249-.085-.198-.237-.315-.45-.353-.125-.022-.25-.041-.383-.063-.046.045-.094.086-.135.135-.027.032-.039.077-.063.112-.097.142-.083.282,0,.418.072.117.126.241.18.367Zm4.563-2.294c.213-.012.424-.03.617-.141.065-.037.137-.061.204-.094.016-.008.024-.03.043-.055-.097-.168-.197-.341-.308-.506-.035-.052-.078-.098-.122-.143-.084-.085-.145-.086-.252-.014-.081.055-.158.113-.199.205-.031.071-.084.123-.142.173-.103.088-.147.209-.184.332-.012.04-.006.083.029.116.087.083.187.133.312.126Zm-2.064,16.366c-.125-.054-.254-.099-.381-.149-.052-.02-.102-.011-.155.002-.076.017-.136.062-.194.109-.088.071-.116.232-.054.318.085.119.176.234.255.337.253.234.516.421.811.564.206.1.439.149.613.31.003.003.017-.003.023-.008.008-.007.017-.018.017-.026-.005-.063-.004-.127-.02-.187-.11-.418-.338-.765-.634-1.07-.081-.084-.174-.153-.281-.199Zm1.539-1.223c.048.04.099.08.155.107.142.068.286.133.432.192.068.027.141.043.214.055.039.006.091.006.122-.015.044-.03.003-.072-.009-.109-.034-.111-.067-.222-.096-.334-.045-.173-.082-.349-.131-.521-.081-.286-.197-.553-.384-.788-.137-.171-.31-.279-.511-.352-.029-.01-.065-.017-.093-.008-.111.036-.225.07-.329.122-.087.044-.157.127-.169.224-.016.125-.01.253.031.376.109.326.276.613.536.84.077.071.153.144.233.212Zm.607-7.739c.006.003.038-.024.039-.036.002-.193-.028-.38-.106-.555-.086-.191-.177-.38-.273-.567-.088-.171-.201-.318-.329-.458-.087-.095-.19-.165-.309-.212-.098-.039-.198-.073-.299-.101-.169-.046-.264-.056-.408.15-.025.035-.053.068-.078.102-.076.106-.082.217-.028.331.009.019.02.037.027.057.073.18.207.314.352.451.015.015.037.038.06.059.208.194.431.365.697.477.222.093.437.201.656.3Zm3.515,9.017c-.008-.006-.014-.016-.02-.024.002-.002.005-.005.007-.007-.074-.074-.147-.149-.222-.221-.165-.159-.387-.206-.591-.288-.019-.008-.042-.013-.062-.01-.145.026-.283.066-.35.239-.051.132-.048.248.02.365.021.036.046.071.067.107.09.156.22.28.332.419.141.175.318.3.505.42.196.126.417.2.62.31.035.019.081.019.123.022.059.003.103-.04.109-.093.025-.232-.05-.443-.145-.641-.103-.216-.192-.447-.395-.599Zm-5.208,5.226c.011-.007.017-.048.01-.054-.168-.14-.251-.331-.324-.531-.077-.212-.195-.397-.409-.584-.018-.018-.071-.089-.139-.135-.177-.122-.408-.162-.539.094-.039.076-.075.155-.108.234-.043.103-.042.211-.012.314.047.165.129.308.261.423.214.186.473.273.74.341.183.046.358,0,.519-.102Zm-1.128-6.711c.025-.005.063-.047.056-.068-.058-.17-.072-.351-.109-.526-.079-.372-.126-.459-.378-.747-.028-.032-.056-.063-.129-.145-.066-.096-.225-.177-.382-.264-.084-.047-.159-.043-.241-.005-.111.051-.2.124-.246.242-.016.04-.039.076-.06.114-.066.12-.074.247-.034.371.079.247.22.454.42.617.231.19.503.302.789.386.102.03.206.045.314.024Zm-18.073,32.372c-.017-.061-.034-.122-.049-.184-.013-.054.023-.109.076-.123.085-.023.169-.031.252-.002.099.036.198.074.294.117.115.052.23.105.339.168.082.047.16.102.23.165.143.127.253.283.326.46.028.067.033.143.044.216.007.05,0,.103.027.149.101-.006.158-.07.213-.137.038-.046.028-.084-.029-.121-.017-.011-.035-.022-.052-.034-.021-.015-.024-.036-.004-.054.014-.013.035-.019.054-.023.008-.002.023.006.028.013.055.087.139.113.237.134.134.029.263.079.405.048.099.033.187-.003.274-.05.06-.032.125-.029.185,0,.179.09.352.184.486.341.15.176.315.339.474.507.029.031.057.062.09.088.31.239.569.529.818.829.156.188.276.398.388.613.059.112.106.23.171.339.073.123.099.254.091.396-.001.021,0,.043-.005.064-.036.182-.026.36.034.534.006.018,0,.042-.003.063-.003.027-.018.039-.042.034-.01-.002-.023,0-.03-.007-.139-.13-.298-.121-.474-.078-.178.044-.348.106-.518.172-.057.022-.105.007-.145-.031-.03-.029-.056-.063-.082-.096-.072-.093-.163-.16-.266-.218-.39-.217-.724-.506-1.033-.823-.092-.155-.236-.267-.341-.412-.104-.145-.207-.292-.304-.442-.137-.212-.258-.435-.435-.619-.035-.037-.064-.086-.081-.134-.057-.17-.111-.341-.16-.514-.02-.069-.003-.136.041-.194-.07.017-.136.037-.197.081-.069.051-.144.094-.217.139-.147.092-.285.062-.417-.026-.035-.023-.066-.052-.096-.082-.237-.235-.395-.514-.476-.84-.035-.144-.081-.284-.121-.427Zm1.511,1.138c.005.003.01.005.015.008.002-.002.002-.005.004-.008-.016.022-.022.022-.019,0Zm4.192,9.392c-.083-.111-.19-.194-.312-.257-.195-.1-.394-.193-.596-.291-.019.034-.044.059-.048.087-.016.106-.01.212.015.316.02.082.041.164.055.247.055.333.238.603.406.882.057.095.159.136.255.176.071.03.145-.014.217-.031.092-.021.143-.081.191-.157.086-.133.117-.271.099-.426-.02-.174-.069-.329-.202-.449-.031-.028-.054-.064-.079-.098Zm-5.435-4.797c.044.058.074.127.106.193.038.077.087.142.156.194.05.037.103.077.136.128.049.074.123.112.187.165.156.129.351.187.526.281.063.034.14.045.213.056.076.011.148-.007.201-.074.046-.059.089-.122.143-.172.11-.102.125-.22.08-.349-.059-.17-.137-.33-.263-.462-.098-.101-.159-.218-.165-.366-.004-.108-.046-.205-.1-.297-.048-.081-.096-.163-.149-.253-.105,0-.166.053-.236.073-.061.017-.125.029-.187.028-.09-.001-.162-.042-.199-.129-.021-.048-.036-.099-.061-.144-.065-.122-.178-.174-.309-.191-.066-.009-.131.017-.174.067-.155.18-.247.377-.161.616.032.089.085.176.094.267.013.146.078.258.161.368Zm.845,5.694c-.151-.114-.325-.196-.459-.333-.014-.014-.036-.022-.055-.031-.165-.071-.329-.142-.484-.233-.007-.004-.024-.002-.03.004-.013.013-.033.033-.03.045.023.094.036.187.005.283-.01.03-.014.063-.012.094.022.287.09.566.18.835.081.241.233.447.422.621.122.101.243.202.365.302.066.054.14.093.226.108.113.019.213-.005.289-.097.048-.058.09-.121.131-.184.107-.164.12-.339.068-.521-.105-.369-.313-.666-.616-.895Zm-7.706-23.738c-.029.009-.06.045-.053.069.082.273.164.546.245.819.039.133.102.255.167.375.024.046.059.087.095.125.094.099.191.196.289.29.061.058.147.097.187.166.051.09-.063.173-.058.272.006.121-.05.228-.107.333-.036.066-.064.136-.102.201-.12.208-.186.43-.214.667-.019.164.001.318.035.473.014.064.053.114.097.16.117.122.215.258.313.396.097.137.207.266.312.397.052.066.108.129.157.198.232.328.498.625.795.894.173.169.349.334.52.506.316.319.7.536,1.098.732.037.018.079.029.12.041.345.102.413.097.763-.079.126-.063.197-.163.23-.294.055-.223.058-.444-.015-.661-.044-.13-.094-.258-.137-.388-.044-.132-.105-.253-.188-.363-.278-.37-.532-.758-.837-1.107-.041-.047-.076-.101-.116-.149-.081-.097-.16-.195-.245-.288-.322-.349-.723-.611-1.06-.944-.007-.007-.016-.013-.025-.019-.209-.141-.427-.27-.621-.431-.198-.083-.292-.265-.404-.429-.021-.031-.014-.088.013-.119.05-.056.106-.108.152-.167.123-.159.195-.327.139-.535-.037-.136-.092-.259-.178-.366-.058-.073-.13-.133-.188-.21-.062-.082-.155-.14-.231-.212-.171-.164-.386-.253-.603-.335-.11-.041-.226-.055-.344-.018Zm-.901,7.147c.141.382.34.721.636,1.004.179.228.425.363.695.462.074.027.152.021.214-.025.085-.064.17-.134.235-.217.073-.093.094-.213.111-.329.003-.02-.002-.042-.008-.062-.07-.244-.157-.482-.293-.695-.24-.377-.547-.688-.938-.913-.127-.073-.26-.136-.373-.233-.038-.033-.093-.047-.142-.065-.221-.078-.271-.083-.244.168.008.073-.007.148-.006.222.006.234.031.461.113.684Zm1.877,7.366c.084.108.181.205.269.31.082.098.171.185.278.255.132.087.258.183.388.272.08.055.145.12.189.208.019.037.037.077.065.107.075.081.168.137.282.098.11-.037.209-.032.306.022.086.048.179.06.277.044.031-.005.063-.011.095-.012.06-.002.099.026.115.086.004.017.025.045.032.043.099-.03.188.032.284.021.021-.002.042-.005.063-.009.085-.013.131-.096.089-.166-.032-.054-.07-.105-.102-.16-.067-.115-.092-.235-.03-.364.014-.029.029-.058.04-.088.038-.105.037-.209-.007-.311-.029-.068-.069-.132-.087-.203-.087-.333-.263-.62-.437-.909-.049-.081-.099-.163-.16-.234-.186-.215-.378-.424-.532-.596-.239-.223-.437-.413-.64-.596-.062-.055-.138-.094-.209-.14-.163-.106-.345-.154-.539-.167-.193-.013-.375-.064-.547-.15-.171-.087-.17-.084-.329.046-.094.076-.167.168-.226.271-.021.036-.039.079-.042.119-.024.281-.008.554.156.795.035.052.062.11.097.163.168.255.334.51.507.762.113.164.233.324.356.482Zm2.915,2.72c.051.012.104.02.157.019.139-.003.276-.03.402-.093.066-.033.127-.078.152-.094.112-.11.138-.172.134-.29-.001-.042-.004-.085-.013-.126-.015-.065-.054-.117-.111-.148-.208-.113-.432-.101-.648-.03-.153.051-.214.208-.275.342-.081.18-.006.371.202.42Zm-12.878-15.855c.14.223.294.436.458.641.171.213.334.434.516.636.225.249.447.503.711.714.188.151.376.304.567.451.083.064.175.116.264.173.172.11.37.148.567.189.076.016.147-.002.213-.046.154-.103.287-.23.383-.385.096-.156.152-.326.117-.519-.038-.212-.102-.411-.211-.592-.141-.234-.291-.462-.439-.692-.023-.035-.051-.067-.08-.097-.151-.161-.304-.32-.456-.48.002-.002.005-.005.007-.007-.118-.104-.237-.208-.355-.312-.244-.215-.474-.447-.764-.605-.036-.02-.065-.053-.098-.079-.316-.248-.652-.46-1.037-.588-.12-.04-.235-.092-.353-.139-.05-.02-.115.01-.125.065-.022.127-.071.245-.11.367-.056.172-.093.351-.126.529-.032.176.01.337.12.478.078.099.164.193.231.3Zm14.665,17.63c-.167-.087-.334-.175-.502-.261-.245-.124-.49-.094-.734.021-.024.011-.04.048-.051.076-.014.034.006.066.035.077.096.036.149.104.182.201.041.119.099.232.143.35.034.09.078.171.146.238.045.044.083.094.174.197-.008-.008.037.036.081.081.074.077.167.086.263.054.059-.02.115-.055.168-.091.087-.06.127-.174.239-.21.016-.005.029-.031.037-.05.023-.048.039-.1.063-.147.083-.156.044-.283-.073-.4-.052-.052-.106-.101-.172-.135Zm5.17,3.433c-.115-.301-.29-.56-.518-.785-.06-.059-.117-.121-.175-.183-.271-.289-.601-.495-.959-.656-.168-.075-.34-.138-.522-.164l-.646.646c.018.138.052.272.116.4.033.066.055.137.083.205.131.325.296.63.525.896.103.12.214.233.311.357.112.143.249.256.387.37.218.181.477.208.75.181.021-.002.042-.01.061-.019.148-.068.287-.148.375-.294.022-.037.047-.073.068-.11.04-.068.095-.116.17-.141.039-.013.076-.033.113-.049-.022-.112-.055-.214-.059-.319-.005-.12-.039-.227-.081-.336Zm-4.082-12.137c.012-.041.021-.083.036-.122.051-.129.031-.245-.026-.367-.131-.282-.324-.514-.542-.728-.204-.199-.423-.376-.691-.487-.146-.06-.287-.129-.431-.194-.057-.026-.115-.051-.173-.076-.099-.044-.179-.108-.229-.207-.008-.015-.041-.032-.049-.027-.025.015-.052.037-.061.063-.034.092-.044.188-.022.283.026.113.05.229.096.333.098.221.196.445.32.651.097.161.229.3.353.443.18.207.39.381.622.528.156.099.325.144.513.099.031-.008.063-.013.097-.02.061-.055.124-.113.188-.171Zm-1.899,1.499c-.081-.287-.199-.555-.406-.773-.13-.137-.267-.267-.402-.399-.068-.066-.144-.117-.232-.158-.181-.083-.361-.171-.509-.308-.041-.038-.092-.047-.147-.04-.032.004-.063.009-.094.013-.008.021-.022.041-.022.061-.001.18.015.357.061.533.04.155.104.298.169.44.061.134.067.291.159.41.096.124.199.243.3.363.027.032.052.07.087.09.145.084.289.17.442.238.074.033.17.042.247-.005.13-.078.239-.181.318-.312.028-.047.045-.099.03-.153Zm-19.705-6.918c.315.325.536.464.906.578.15.046.292.035.405-.101.044-.054.065-.109.048-.176-.04-.155-.051-.309-.02-.471.031-.161-.011-.315-.079-.462-.068-.146-.156-.275-.286-.371-.152-.113-.304-.227-.46-.334-.106-.073-.196-.151-.244-.278-.033-.086-.133-.098-.217-.046-.129.081-.242.179-.342.293-.144.165-.196.354-.157.566.03.169.086.329.185.467.098.137.206.266.261.335Zm-3.172,8.212c.134-.047.205-.149.235-.282.012-.052.021-.105.025-.158.003-.041.004-.087-.011-.124-.118-.308-.301-.556-.566-.74-.189-.132-.389-.25-.588-.368-.208-.122-.422-.235-.63-.356-.034-.019-.054-.061-.08-.093l.002.012c-.058.082-.076.179-.091.272-.021.137-.023.281.036.407.089.189.146.396.283.561.027.032.054.068.065.107.05.174.179.286.314.383.248.178.516.323.819.396.067.016.126.005.187-.016Zm2.926-4.5c.264.38.543.748.83,1.111.13.165.254.334.436.45.052.033.093.085.135.132.073.079.157.139.265.163.095.021.175.069.251.129.082.065.168.125.252.188.057.042.121.01.138-.069.006-.031.008-.063.011-.094.01-.006.018-.016.028-.017.139-.018.275-.04.352-.182.004-.008.017-.014.027-.016.122-.026.179-.153.292-.192.195-.229.248-.156.209-.494-.013-.108-.041-.202-.098-.295-.144-.233-.289-.464-.488-.655-.052-.05-.094-.113-.133-.175-.058-.09-.131-.165-.212-.232-.226-.189-.449-.38-.703-.532-.117-.07-.234-.141-.333-.238-.029-.029-.067-.05-.102-.073-.087-.058-.176-.114-.263-.173-.158-.109-.328-.2-.523-.208-.398-.017-.375-.047-.556.334-.084.177-.109.375-.063.563.049.205.128.403.249.578Zm-4.259,8.534c-.013-.072-.031-.146-.062-.212-.163-.342-.323-.686-.508-1.017-.062-.111-.136-.21-.22-.306-.194-.221-.393-.436-.554-.685-.148-.23-.339-.429-.535-.619-.044-.043-.095-.075-.144-.112v3.315s.001.001.002.002c.186.159.349.336.479.54.062.098.14.156.249.173.142.022.255.095.363.181.099.078.198.157.299.232.074.055.157.06.241.021.078-.036.153-.077.227-.121.238-.139.344-.348.321-.617-.008-.095-.024-.191-.053-.28-.051-.162-.076-.329-.106-.496Zm-.367,3.686c-.074-.039-.144-.088-.217-.128-.055-.03-.112-.059-.171-.08-.094-.034-.184-.022-.267.047.022.05.05.096.061.146.013.061.018.127.016.19-.009.216.039.421.085.628.038.17.124.312.217.452.042.063.104.104.18.118.041.008.084.01.126.015.046.005.09-.012.111-.049.058-.105.136-.193.224-.273.069-.063.095-.139.095-.229.002-.367-.125-.659-.46-.836Zm20.015,4.365c-.058-.047-.128-.112-.206-.164-.105-.069-.213-.138-.329-.188-.28-.122-.564-.232-.847-.347-.036-.014-.09.029-.086.069.012.127.031.253.034.38.005.182.036.359.075.535.022.098.048.194.078.29h1.717c-.017-.03-.026-.064-.045-.093-.112-.165-.25-.312-.39-.482ZM1.074,44.48c.098.062.195.124.292.188.089.059.184.101.292.113.074.008.148.017.22.034.192.044.351.136.459.307.084.133.18.259.273.387.037.051.077.1.12.147.076.084.158.095.258.044.128-.065.226-.162.307-.278.006-.008.006-.021.01-.03.014-.032-.015-.096-.048-.104-.02-.005-.041-.014-.062-.012-.156.013-.265-.051-.334-.189-.038-.075-.087-.144-.123-.22-.026-.056-.044-.118-.055-.18-.014-.076.007-.148.061-.208.036-.04.075-.077.112-.116.091-.097.104-.153.041-.255-.113-.18-.198-.371-.25-.578-.037-.145-.105-.276-.182-.402-.138-.224-.285-.442-.413-.672-.066-.119-.145-.233-.232-.338-.375-.455-.77-.89-1.192-1.303-.178-.175-.384-.289-.62-.362-.003,0-.006,0-.009-.002v3.132c.047.051.093.102.141.151.279.288.594.533.933.747Zm12.42,18.638c-.054-.241-.164-.458-.291-.662-.313-.5-.669-.969-1.097-1.377-.182-.174-.37-.343-.527-.542-.032-.04-.072-.079-.118-.102-.131-.066-.262-.135-.421-.116-.135.017-.249-.034-.35-.116-.032-.026-.068-.048-.106-.075-.074.018-.146.038-.218.054-.122.026-.215.098-.286.196-.05.069-.09.145-.13.221-.059.111-.061.226-.014.339.07.165.127.335.189.502.043.117.11.226.174.335.059.1.117.199.151.311.043.144.122.268.229.372.114.111.21.234.279.378.022.047.058.087.091.128.119.148.23.3.301.479.023.058.059.112.095.163.024.034.053.069.089.087.179.087.348.192.51.306h1.293c0-.006-.001-.013,0-.018.006-.018.019-.041.035-.048.028-.013.061-.016.092-.025.061-.017.08-.037.071-.084-.029-.157-.055-.313.036-.456-.028-.089-.058-.168-.077-.25ZM.973,46.422c-.135-.099-.281-.185-.421-.277-.045-.029-.08-.067-.097-.12-.013-.04-.026-.08-.043-.119-.029-.066-.124-.093-.19-.056-.019.01-.036.023-.054.035-.122.123-.184.288-.144.438.102.378.214.75.46,1.065.054.069.111.123.188.16.05.024.522.162.576.168.102.012.188-.036.233-.132.027-.058.051-.117.081-.173.053-.103.055-.204.003-.305-.024-.047-.047-.094-.074-.139-.131-.221-.314-.394-.518-.544Zm.643,16.497c-.059-.111-.116-.226-.189-.328-.183-.257-.366-.514-.573-.752-.227-.262-.46-.519-.721-.749-.043-.038-.089-.072-.133-.108v3.017h1.937c.009-.162-.028-.313-.076-.464-.068-.211-.141-.42-.245-.616Zm18.697-9.458c.054.17.145.302.321.362.09.031.173.084.265.103.241.051.467.033.62-.209.034-.054.081-.102.112-.158.088-.155.078-.309-.023-.449-.055-.076-.125-.142-.188-.213-.002.002-.004.004-.006.006-.052-.052-.1-.109-.157-.155-.191-.152-.417-.191-.657-.174-.031.002-.062.017-.092.027-.111.038-.184.117-.206.228-.042.211-.055.422.011.63ZM3.187,39.883c.052.068.091.14.087.232-.004.08.046.138.088.18.162.14.307.28.467.398.11.081.217.163.316.258.141.135.315.167.5.089.108-.045.21-.107.311-.168.099-.06.146-.158.158-.268.02-.189-.027-.353-.158-.496-.178-.195-.396-.345-.584-.528-.015-.014-.034-.025-.054-.033-.23-.104-.451-.229-.698-.296-.113-.031-.219-.073-.323-.126-.071-.036-.116-.087-.134-.164-.009-.039-.04-.051-.071-.045-.028.006-.063.024-.078.047-.064.104-.09.218-.059.337.053.204.1.411.232.582Zm1.687,15.849c-.199-.138-.421-.232-.648-.313-.089-.031-.187-.031-.307.027.081.112.091.247.108.379.019.148.063.287.103.428.06.21.181.376.326.529.06.063.132.101.217.119.066.014.127.006.176-.045.111-.115.221-.232.333-.35.006-.065.01-.128.017-.191.009-.077-.008-.149-.04-.215-.068-.143-.151-.275-.285-.368Zm-.688-1.511c.045-.035.055-.091.059-.145.025-.315-.093-.559-.358-.724-.116-.072-.238-.135-.355-.205-.161-.096-.32-.087-.479.005-.002.017-.007.03-.003.035.065.084.104.176.122.283.038.219.087.436.134.653.009.041.02.085.044.117.07.092.143.181.222.266.051.056.121.082.199.086.056.003.105-.008.143-.054.088-.108.161-.229.273-.317Zm.497,6.13c-.123-.059-.239-.131-.357-.199-.085-.049-.148-.116-.166-.218-.004-.02-.014-.04-.022-.058-.01-.021-.057-.029-.085-.017-.101.045-.177.157-.169.248.056.628.104.804.385,1.355.062.121.122.245.273.377.12.089.286.218.512.223.066.002.125-.013.179-.055.112-.088.2-.196.25-.328.022-.058.039-.125.034-.186-.018-.236-.079-.463-.237-.641-.173-.195-.355-.385-.598-.502Zm21.605,1.287c-.12-.11-.188-.252-.241-.402-.042-.12-.085-.239-.12-.361-.051-.174-.119-.337-.23-.482-.05-.066-.09-.143-.119-.221-.045-.12-.108-.228-.17-.338-.062-.11-.121-.222-.188-.329-.135-.213-.261-.434-.418-.63-.197-.245-.384-.501-.615-.718-.061-.057-.119-.119-.179-.178,0,0-.001.001-.002.002-.149-.149-.298-.297-.446-.446-.082-.083-.181-.144-.281-.202-.065-.039-.133-.061-.211-.056-.053.003-.107.002-.159.009-.225.03-.446.028-.656-.065-.019-.008-.041-.015-.061-.014-.053.002-.11-.005-.157.014-.192.078-.358.194-.486.361-.061.08-.09.168-.073.27.011.062.01.127.008.191-.006.153.036.295.092.432.06.147.145.281.24.407.07.092.133.189.205.28.176.223.351.447.532.664.121.145.253.281.38.421.035.039.064.086.104.118.165.132.304.289.444.445.042.046.088.092.141.124.22.133.399.308.551.513.053.071.581.499.655.539.009.005.019.009.029.013.225.084.393.241.545.417.027.032.053.066.083.095.089.084.193.127.319.093.103-.027.206-.056.309-.084.158-.044.258-.145.296-.306.007-.031.012-.064.024-.093.063-.158.022-.292-.081-.412-.021-.024-.041-.048-.064-.069Zm-15.723-7.16c.026-.015.05-.042.064-.068.054-.104.104-.211.156-.316.016-.033.079-.055.11-.039.009.005.02.008.028.014.148.125.336.17.511.241.072.029.15.03.218,0,.129-.056.247-.131.299-.275.018-.05.038-.1.06-.149.019-.041.022-.08.015-.124-.008-.052-.005-.107-.016-.158-.047-.214-.148-.395-.333-.517-.105-.069-.215-.133-.332-.18-.283-.115-.575-.206-.874-.275-.06-.014-.125-.01-.198-.016.011.04.012.073.027.097.036.059.032.12.021.184-.008.045-.059.079-.092.06-.036-.021-.076-.038-.108-.063-.259-.2-.551-.347-.841-.495-.113-.058-.224-.114-.312-.207-.018-.019-.075-.007-.08.016-.066.284-.097.565.006.846.066.179.128.355.255.502.061.07.099.16.144.243.055.102.122.195.197.284.182.217.429.331.682.438.141.06.27.028.395-.044Zm-3.605,6.802c.057-.049.107-.105.16-.158,0,0-.001-.001-.002-.002.023-.023.042-.055.069-.067.121-.051.133-.154.15-.263.038-.235-.052-.414-.221-.56-.047-.041-.099-.08-.154-.108-.14-.072-.282-.141-.426-.204-.147-.063-.303-.088-.466-.055-.064.013-.1.053-.084.106.066.211.13.423.2.633.058.171.146.324.26.465.105.129.229.211.394.24.046.008.087,0,.119-.028Zm-.104,2.021c-.104-.035-.21-.02-.307.04-.009.006-.018.012-.027.018-.022.014-.04.071-.024.084.142.116.173.279.196.45.005.036.017.071.026.107h.88c.006-.099-.021-.196-.068-.256-.176-.224-.413-.354-.676-.443Zm-.018-12.282c.117.048.237.089.357.13.208.071.432,0,.567-.181.018-.024.028-.058.031-.088.009-.094.019-.19.018-.284-.002-.111-.086-.19-.122-.289-.018-.049-.041-.097-.065-.144-.019-.037-.038-.076-.065-.107-.124-.143-.245-.288-.387-.415-.295-.263-.642-.44-1.006-.582-.178-.07-.359-.121-.475-.287-.013-.018-.08,0-.083.021-.009.052-.026.106-.022.157.051.67.311,1.245.728,1.689.21.214.327.299.525.381Zm3.312,8.281c.123.124.278.186.449.214.045.007.086-.008.113-.044.077-.103.155-.207.228-.313.076-.111.114-.228.061-.362-.019-.048-.016-.105-.028-.156-.027-.113-.041-.233-.089-.336-.05-.108-.175-.146-.268-.214-.136-.099-.265-.206-.442-.234-.06-.009-.114-.054-.171-.081-.094-.046-.189-.091-.277-.133-.054.027-.069.065-.071.11-.014.421.07.824.213,1.214.014.039.038.076.065.107.07.078.143.154.217.229Zm-1.052-18.508c.123.115.259.218.367.345.154.181.348.301.552.413.128.07.257.091.414.049.059-.069.111-.124.155-.183.018-.024.03-.06.028-.089-.006-.117-.025-.228-.091-.331-.179-.278-.402-.512-.669-.705-.136-.098-.272-.195-.425-.269-.085-.041-.161-.099-.241-.15-.054-.035-.097-.08-.122-.141-.012-.028-.014-.065-.051-.073-.044-.01-.083.009-.118.034-.092.067-.153.159-.159.269-.013.261.027.508.225.699.045.044.089.089.135.132Zm.562,8.065c-.144-.011-.264-.06-.361-.163-.013-.013-.037-.021-.057-.021-.016,0-.033.015-.05.023q.139.198.18.424c.007.041.005.086.018.124.068.199.204.305.43.282.03-.003.063-.019.085-.039.038-.036.076-.077.1-.122.073-.133.042-.274-.07-.369-.081-.069-.169-.129-.276-.137Zm-1.821,6.817c-.087-.058-.185-.101-.279-.148-.104-.052-.212-.096-.313-.153-.092-.051-.211-.062-.275-.15-.082-.112-.22-.059-.316-.121-.026-.017-.053-.031-.084-.048-.021.028-.048.05-.058.078-.073.214-.049.423.039.622.106.242.237.471.385.688.088.129.177.261.313.352.3.202.614.369.99.385.01-.003.021-.005.031-.009.286-.12.346-.046.392-.509-.051-.116-.089-.252-.164-.364-.17-.258-.405-.454-.661-.624Zm30.89,2.549c.081.079.181.104.29.107.177.005.333-.06.479-.16.095-.065.149-.155.173-.262.017-.072.019-.148.025-.222.008-.112-.029-.209-.101-.291-.049-.055-.103-.105-.147-.148-.108-.148-.262-.227-.383-.344-.132-.127-.286-.218-.455-.277-.191-.065-.37-.154-.555-.23-.1-.041-.187-.092-.262-.169-.039-.04-.104-.031-.137.018-.048.07-.085.149-.135.217-.061.082-.047.163-.016.242.051.127.105.253.165.375.065.132.14.259.244.366.051.052.099.109.14.17.065.098.144.18.247.239.101.058.187.135.267.22.05.053.111.097.163.148Zm4.982,4.457c-.027-.032-.061-.061-.08-.097-.124-.239-.326-.41-.51-.597-.113-.115-.249-.19-.402-.241-.264-.089-.649-.155-.993-.164-.027.05-.03.103-.02.156.07.356.18.694.385.996.107.157.223.306.337.456.11.144.241.264.39.365.264.178.247.191.52.195.042,0,.083.017.125.021.044.005.086-.008.117-.041.036-.039.076-.079.097-.126.064-.147.119-.298.177-.448-.008-.052-.024-.104-.023-.156.002-.124-.042-.227-.12-.318Zm5.55-.703c-.224-.348-.489-.657-.817-.911-.092-.071-.175-.15-.232-.254-.03-.055-.07-.105-.112-.152-.027-.03-.063-.058-.101-.073-.186-.074-.357-.178-.534-.27-.056-.029-.114-.057-.174-.073-.122-.032-.246-.063-.371-.082-.104-.016-.211-.028-.323.009-.08.079-.169.157-.283.199-.04.014-.078.038-.111.065-.024.019-.047.049-.055.077-.029.114-.053.23-.029.347.062.304.167.589.363.832.02.025.038.05.057.076.203.281.405.564.61.844.043.059.092.117.149.161.191.148.386.292.583.432.138.099.294.165.462.198.219.042.441.054.669.056.097-.086.197-.168.288-.259.052-.052.103-.115.131-.182.099-.236.118-.476.023-.715-.047-.119-.124-.219-.192-.325Zm-32.876,1.631c-.151-.075-.297-.158-.405-.295-.066-.085-.162-.132-.27-.149-.014.016-.034.03-.042.048-.058.141-.079.289-.085.438-.002.052.005.108.021.157.022.065.049.129.074.194h1.412s-.008-.007-.013-.01c-.228-.131-.455-.265-.692-.382Zm24.695-4.237c-.276-.122-.572-.141-.87-.152-.023,0-.06.028-.07.052-.011.025-.008.071.009.089.073.079.109.178.162.268.106.181.219.359.333.535.028.043.072.076.112.109.053.043.126.045.177.008.026-.019.052-.039.099-.074.028-.041.081-.098.111-.164.076-.171.096-.349.053-.531-.015-.065-.053-.112-.116-.14Zm-4.714-1.438c-.101-.086-.221-.158-.369-.168-.083-.005-.162-.047-.245-.063-.093-.018-.188-.031-.283-.039-.099-.008-.149.059-.099.136.101.159.136.329.111.517-.003.021.002.042.004.075.12.222.244.454.325.707.009.03.027.057.045.083.171.242.376.453.609.634.05.039.111.06.179.044.031-.007.063-.018.095-.016.139.006.242-.062.342-.153.104-.094.155-.203.159-.338.01-.345-.092-.645-.319-.904-.168-.191-.363-.352-.555-.515Zm-16.069-6.144c.014-.062.012-.127.02-.19.014-.12-.011-.231-.063-.338-.055-.113-.099-.232-.148-.349-.123-.292-.245-.586-.435-.84-.264-.354-.516-.719-.854-1.01-.032-.027-.06-.059-.09-.089.001-.001.003-.003.004-.004-.116-.122-.226-.25-.348-.366-.187-.178-.403-.294-.677-.3-.233-.005-.468-.02-.686-.113-.01-.004-.02-.006-.031-.007-.111-.013-.217-.004-.274.113-.036.074-.095.114-.163.147-.054.026-.075.074-.08.13-.027.303.016.595.14.87.048.106.102.208.156.311.192.364.407.71.669,1.031.302.37.633.704,1.031.967.153.101.284.217.362.386.013.028.033.056.058.073.033.024.072.044.112.052.04.009.086.007.127-.001.173-.036.339.004.505.034.152.09.333.044.494.09.017.005.049-.005.058-.019.048-.07.113-.135.098-.229-.019-.117-.012-.232.015-.349Zm19.721,10.135c-.033-.026-.066-.055-.089-.089-.086-.127-.211-.194-.346-.26-.257-.126-.527-.218-.792-.319-.108-.041-.224-.06-.337-.088-.034-.008-.066.021-.057.051.071.244.161.481.269.71.059.125.129.24.223.343.092.101.177.208.265.313-.002.002-.005.005-.007.007.074.074.145.153.224.222.063.055.133.103.206.144.14.078.36.032.468-.094.035-.041.063-.087.096-.129.116-.152.116-.319.068-.487-.034-.123-.087-.238-.19-.322Zm-26.451-13.197c.074,0,.147.019.221.024.105.007.186-.041.244-.127.024-.035.038-.077.06-.114.04-.07.046-.143.022-.216-.023-.07-.05-.139-.084-.203-.1-.19-.246-.339-.415-.467-.185-.14-.389-.249-.6-.346-.074-.034-.15-.067-.225-.1-.043.04-.048.093-.044.146.019.256.095.499.18.736.056.157.152.299.249.437.093.133.213.23.392.23Zm1.663,12.025c-.213.012-.424.03-.617.141-.065.037-.137.061-.204.094-.016.008-.024.03-.043.055.097.168.197.341.308.506.035.052.078.098.122.143.084.085.145.086.252.014.081-.055.158-.113.199-.205.031-.071.084-.123.142-.173.103-.088.147-.209.184-.332.012-.04.006-.083-.029-.116-.087-.083-.187-.133-.312-.126Zm-.577-8.866c.064-.043.116-.094.145-.167.028-.069.058-.138.086-.207.008-.02.018-.042.016-.061-.011-.115-.004-.237-.06-.34-.101-.183-.198-.372-.346-.47-.095-.08-.15-.151-.224-.185-.2-.094-.41-.166-.626-.216-.129-.03-.254-.003-.367.071-.022.014-.04.056-.037.082.007.052.035.1.044.151.025.146.049.292.064.439.015.151.075.285.136.418.041.089.109.156.202.19.1.037.195.081.276.149.116.096.253.142.393.192.116.042.203.018.297-.045Zm-3.019-7.555c.008.006.014.016.02.024-.002.002-.005.005-.007.007.074.074.147.149.222.221.165.159.387.206.591.288.019.008.042.013.062.01.145-.026.283-.066.35-.239.051-.132.048-.248-.02-.365-.021-.036-.046-.071-.067-.107-.09-.156-.22-.28-.332-.419-.141-.175-.318-.3-.505-.42-.196-.126-.417-.2-.62-.31-.035-.019-.081-.019-.123-.022-.059-.003-.103.04-.109.093-.025.232.05.443.145.641.103.216.192.447.395.599Zm7.023,17.438c-.114-.136-.222-.277-.4-.342-.098-.036-.184-.101-.28-.143-.175-.077-.356-.133-.55-.052-.039.091.025.165.027.249.004.193.068.372.112.556.034.139.105.252.194.354.062.07.132.135.208.19.13.093.29.073.401-.04.06-.061.114-.132.183-.179.109-.074.145-.181.176-.295.017-.064.012-.127-.014-.186-.017-.038-.031-.08-.057-.111Zm1.136-3.311c-.063-.146-.166-.265-.294-.363-.257-.198-.511-.401-.783-.615-.055.081-.097.142-.139.204-.057.085-.071.177-.056.275.005.031.011.063.02.093.065.211.13.423.198.633.016.049.039.099.07.14.058.076.096.162.133.249.085.198.237.315.45.353.125.022.25.041.383.063.046-.045.094-.086.135-.135.027-.032.039-.077.063-.112.097-.142.083-.282,0-.418-.072-.117-.126-.241-.18-.367Zm-1.311-1.445c.138.043.279.019.377-.104.082-.103.186-.177.294-.256.026-.079.058-.159.076-.241.016-.076-.003-.149-.07-.198-.162-.118-.336-.217-.525-.286-.249-.091-.504-.157-.776-.13-.031.003-.065.034-.063.061.003.042.005.084.011.126.036.245.144.461.25.68.089.184.241.291.426.349Zm-5.895-1.219c-.149-.053-.298-.106-.447-.157-.06-.02-.121-.036-.183-.051-.064-.015-.125-.003-.187.023-.094.039-.117.075-.083.171.032.09.055.181.065.277.031.288.118.559.248.813.214.42.195.398.67.619.258.12.284.1.537-.12.057-.048.115-.136.143-.243.053-.201.062-.399-.04-.585-.071-.129-.144-.256-.218-.383-.021-.036-.044-.075-.077-.099-.136-.098-.265-.206-.426-.264Zm4.255-16.689c-.011.007-.017.048-.01.054.168.14.251.331.324.531.077.212.195.397.409.584.018.018.071.089.139.135.177.122.408.162.539-.094.039-.076.075-.155.108-.234.043-.103.042-.211.012-.314-.047-.165-.129-.308-.261-.423-.214-.186-.473-.273-.74-.341-.183-.046-.358,0-.519.102Zm.452,5.281c.125.054.254.099.381.149.052.02.102.011.155-.002.076-.017.136-.062.194-.109.088-.071.116-.232.054-.318-.085-.119-.176-.234-.255-.337-.253-.234-.516-.421-.811-.564-.206-.1-.439-.149-.613-.31-.003-.003-.017.003-.023.008-.008.007-.017.018-.017.026.005.063.004.127.02.187.11.418.338.765.634,1.07.081.084.174.153.281.199Zm-.739,2.652c.016-.125.01-.253-.031-.376-.109-.326-.276-.613-.536-.84-.077-.071-.153-.144-.233-.212-.048-.04-.099-.08-.155-.107-.142-.068-.286-.133-.432-.192-.068-.027-.141-.043-.214-.055-.039-.006-.091-.006-.122.015-.044.03-.003.072.009.109.034.111.067.222.096.334.045.173.082.349.131.521.081.286.197.553.384.788.137.171.31.279.511.352.029.01.065.017.093.008.111-.036.225-.07.329-.122.087-.044.157-.127.169-.224Zm1.415-1.221c-.025.005-.063.047-.056.068.058.17.072.351.109.526.079.372.126.459.378.747.028.032.056.063.129.145.066.096.225.177.382.264.084.047.159.043.241.005.111-.051.2-.124.246-.242.016-.04.039-.076.06-.114.066-.12.074-.247.034-.371-.079-.247-.22-.454-.42-.617-.231-.19-.503-.302-.789-.386-.102-.03-.206-.045-.314-.024Zm-2.821,7.531c-.006-.003-.038.024-.039.036-.002.193.028.38.106.555.086.191.177.38.273.567.088.171.201.318.329.458.087.095.19.165.309.212.098.039.198.073.299.101.169.046.264.056.408-.15.025-.035.053-.068.078-.102.076-.106.082-.217.028-.331-.009-.019-.02-.037-.027-.057-.073-.18-.207-.314-.352-.451-.015-.015-.037-.038-.06-.059-.208-.194-.431-.365-.697-.477-.222-.093-.437-.201-.656-.3Zm1.885,5.524c-.033-.065-.069-.132-.117-.186-.152-.174-.307-.348-.502-.476-.126-.082-.23-.182-.314-.309-.176-.003-.33-.064-.477-.151-.099-.059-.2-.113-.289-.191-.115-.1-.254-.145-.417-.096-.01.026-.027.055-.03.085-.005.053-.002.106.001.159.012.204.097.389.148.582.024.089.087.166.134.248.021.036.055.067.068.106.074.204.216.359.357.516.185.206.414.355.659.479.112.057.232.099.348.149.059.025.12.039.186.029.063-.009.126-.017.208-.027.044-.072.079-.126.111-.181.13-.223.132-.244.037-.474-.036-.088-.071-.177-.113-.261Z" opacity=".12" stroke-width="0"/>
  <path d="m18,46h5v4h-5c-2.206,0-4-1.794-4-4v-9.333l-3.5-3.667v-2l3.5-3.667v-9.333c0-2.206,1.794-4,4-4h5v4h-5v11.667l-2.5,2.333,2.5,2.333v11.667Zm28-28h-5v-4h5c2.206,0,4,1.794,4,4v9.333l3.5,3.667v2l-3.5,3.667v9.333c0,2.206-1.794,4-4,4h-5v-4h5v-11.667l2.5-2.333-2.5-2.333v-11.667Zm-7,23.828l-4.781-4.781c-1.099.627-2.366.99-3.719.99-4.156,0-7.537-3.381-7.537-7.537s3.381-7.537,7.537-7.537,7.537,3.381,7.537,7.537c0,1.353-.363,2.62-.99,3.719l4.781,4.781-2.828,2.828Zm-8.5-7.865c1.909,0,3.463-1.553,3.463-3.463s-1.554-3.463-3.463-3.463-3.463,1.553-3.463,3.463,1.554,3.463,3.463,3.463Z" fill="#fff" stroke-width="0"/>
</svg>