<svg width="512" height="512" fill="none" xmlns="http://www.w3.org/2000/svg"><g clip-path="url(#a)"><path fill="#F1EFED" d="M0 0h512v512H0z"/><path fill-rule="evenodd" clip-rule="evenodd" d="M236.741 56.1c5.29-19.449 10.629-39.08 21.282-56.1h18.442c-.494.457-1.012.891-1.552 1.3-1.946 1.632-3.069 3.894-4.175 6.12-1.634 3.29-3.23 6.503-7.385 7.494-2.825.881-3.261 3.25-3.701 5.635-.353 1.917-.709 3.845-2.308 5.021-2.387 1.212-3.176 3.428-3.965 5.65-.645 1.813-1.291 3.63-2.81 4.906-1.616 1.04-3.552 2.757-3.013 4.894 1.663 2.742.198 4.976-1.303 7.265-1.243 1.896-2.511 3.83-2.048 6.12.696 3.361-1.224 5.818-3.115 8.238-1.633 2.09-3.245 4.153-3.131 6.747.11 5.497-.967 36.414-10.455 27.283a102.615 102.615 0 0 1 8.383-37.437l.854-3.136ZM297.519 0c-10.849 9.998-20.624 21.275-29.592 32.263-6.023 8.605-8.18 18.381-10.344 28.188-1.342 6.084-2.687 12.18-4.959 18.015a80.173 80.173 0 0 0-5.598 24.718c1.662 9.131 8.218 3.807 5.945-3.041.878-5.284 2.612-10.736 4.362-16.238 2.27-7.136 4.566-14.357 5.061-21.41-.167-4.903 2.279-8.6 4.743-12.326 1.721-2.601 3.45-5.215 4.306-8.264a147.16 147.16 0 0 0 16.18-21.914c1.02-3.068 3.705-4.648 6.415-6.243 2.678-1.576 5.38-3.167 6.524-6.22A64.029 64.029 0 0 0 310.917 0h-13.398Zm45.347 0c-21.867 10.672-41.237 29.468-54.54 57.419a434.093 434.093 0 0 1-14.135 45.299c-.546 2.765 2.011 1.82 4.071 1.059.66-.245 1.27-.47 1.709-.548 3.991-10.172 8.885-19.822 13.777-29.468 4.061-8.008 8.121-16.013 11.662-24.313 17.349-24.234 41.19-44.24 71.469-47.72 2.094.934 4.027.197 5.979-.547 1.717-.655 3.448-1.315 5.316-.85.953.329 1.781.67 2.532.979h.002c2.842 1.17 4.588 1.889 7.939-.22 2.344-1.848 4.207-.637 6.032.549 1.73 1.123 3.425 2.225 5.464.684 33.648-2.037 60.036 28.096 78.152 53.315a106.243 106.243 0 0 1 17.495 49.052c1.218 4.92 4.896 4.793 6.21 2.268v-4.381a8.813 8.813 0 0 0-.402-.873C505.71 52.282 476.032 16.76 439.367 0h-96.501Zm132.751 0c6.512 4.359 12.674 9.186 18.12 15.124A184.708 184.708 0 0 1 512 44.614V26.871c-1.84-4.158-4.109-8.166-7.004-11.957A115.13 115.13 0 0 0 490.109 0h-14.492ZM512 166.872a56.934 56.934 0 0 0-1.261 4.529c-.969 1.485-1.944 3.039-2.94 4.624-5.909 9.407-12.504 19.908-22.389 23.573-5.024 2.238-10.11 4.821-15.238 7.425-12.636 6.418-25.535 12.97-38.434 14.827-1.814-.809-3.198.158-4.563 1.112-1.13.79-2.246 1.57-3.582 1.326a24.102 24.102 0 0 0-16.81-.173c-2.995-3.728-6.702-2.833-10.577-1.898-2.541.614-5.154 1.245-7.685.601-.853-.136-1.721-.65-2.553-1.143-1.839-1.09-3.504-2.076-4.46 1.344-1.36 5.99-3.753 3.744-3.113-1.269-.189-3.66 1.876-6.273 3.963-8.914 1.661-2.102 3.336-4.222 3.898-6.901 49.171 8.163 124.182-22.225 113.9-82.298.119-1.324.283-5.616.283-6.949 0-.58-.172-.358-.463.016-.378.485-.954 1.225-1.609.797-1.16-.758-3.087-1.689-3.854-.101-1.538.604-1.108 5.054-.624 10.067.461 4.776.972 10.063-.124 13.017a53.017 53.017 0 0 1-19.121 30.881 166.914 166.914 0 0 1-47.435 28.342 29.668 29.668 0 0 0-19.048.777c-.829-.236-1.516-.444-2.097-.619-1.61-.487-2.406-.728-3.165-.643-.743.082-1.45.474-2.849 1.25-.532.294-1.162.644-1.933 1.053-1.319-1.397-3.536-1.815-5.627-2.209-2.395-.451-4.625-.872-5.156-2.695 1.555-2.588 1.99-6.656 2.419-10.675.619-5.795 1.227-11.487 5.169-12.49 36.98 14.774 80.425-19.34 80.352-57.763-4.694-8.029-8.586 4.621-12.201 16.367-2.205 7.17-4.308 14.003-6.426 15.592-5.595 3.401-10.465 7.729-15.378 12.095-3.369 2.994-6.759 6.006-10.417 8.751-2.509.758-5.093.908-7.675 1.057-2.763.159-5.523.319-8.186 1.225a55.532 55.532 0 0 0-20.617-3.762c-2.411-16.069 6.135-15.664 16.38-15.178 8.966.424 19.234.911 24.6-9.53 1.089-2.632 3.077-5.453 5.132-8.37 4.841-6.867 10.057-14.269 4.802-21.005-5.157-.894-5.895 3.127-6.718 7.616-.681 3.714-1.421 7.748-4.769 9.587-3.147 13.527-16.664 21.941-30.191 18.794a25.282 25.282 0 0 1-3.119-.943c-3.232-2.511-1.543-12.19 1.827-13.961a28.028 28.028 0 0 0 10.957-1.68c6.669-.713 11.498-6.697 10.785-13.366a12.128 12.128 0 0 0-1.764-5.124c-.484-1.123-1.588-.283-2.228.283-1.296 1.537-2.378 3.489-3.47 5.461-2.685 4.845-5.436 9.811-11.614 9.039-4.599.706-3.977-3.098-3.291-7.302.477-2.917.985-6.026-.197-7.956-2.575-2.475-4.173 3.762-4.566 5.67-9.222 81.997-51.06 172.047-89.246 250.427C251.286 432.813 177.042 484.135 96.415 512h26.758c14.258-6.546 20.952-6.969 24.291 0h5.89c-1.707-3.834-3.966-7.348-6.969-10.348 22.662-17.298 29.162-6.56 30.675 10.348h4.12a406.428 406.428 0 0 1-.801-27.533c.802-.392 2.112-1.411 3.573-2.547 3.534-2.748 7.954-6.185 8.206-3.123A179.138 179.138 0 0 1 200.703 512h7.439a135.76 135.76 0 0 0-1.721-8.851c-.477-1.921-.474-3.976-.472-6.003.005-4.148.01-8.173-4.094-10.67l.914-3.305c-.538-.782-.862-1.778-1.185-2.772-.524-1.609-1.046-3.215-2.468-3.903-.867-.511-1.351-2.374-.484-2.922 14.281-10.483 14.424-10.04 19.274 4.926.257.794.528 1.63.814 2.507A322.624 322.624 0 0 1 226.178 512h16.839c-1.048-28.805-7.646-42.478-11.344-50.143-1.759-3.644-2.862-5.93-2.401-7.839.775-3.211 5.979-5.353 19.939-11.1l1.788-.736c13.824 18.274 15.859 44.336 16.548 69.818h9.132a211.369 211.369 0 0 0-17.435-68.358l-.564-.243c-3.541-1.523-7.553-3.249-3.454-7.417 2.239-1.478 4.656-3.909 7.191-6.459 5.738-5.771 12.08-12.151 18.33-9.466 14.588 27.402 18.616 59.917 20.968 91.943h8.575c-1.65-19.327-3.816-38.535-9.774-56.989-.438-2.163-.833-4.408-1.234-6.686-2.308-13.111-4.815-27.358-16.873-33.838 24.255-60.919 44.236 38.139 50.323 97.513h11.977c1.695-5.019 2.961-10.084 1.152-15.827-.421-1.381-1.325-2.508-2.223-3.627-1.346-1.677-2.677-3.335-2.343-5.805.385-1.885-.845-3.029-2.065-4.163-1.208-1.123-2.407-2.237-2.016-4.055l.152-.566c1.023-3.789 1.189-4.406-2.453-6.976-1.547-5.806-1.543-12.063-1.539-18.401.004-7.248.008-14.603-2.306-21.511-4.86-7.73-8.123-16.2-11.35-24.574-2.902-7.531-5.774-14.986-9.751-21.757 5.659-27.302 19.961 18.969 27.449 43.195 1.91 6.182 3.377 10.928 4.144 12.651A268.667 268.667 0 0 1 358.971 512h10.845c-2.749-18.896-9.275-37.094-16.504-55.419-3.037-4.379-2.4-8.126-1.716-12.143.274-1.612.556-3.267.611-5.023-.952-7.457-4.324-13.888-7.711-20.348-2.333-4.449-4.672-8.91-6.232-13.729-2.832-3.861-3.699-8.6-4.553-13.271-.951-5.196-1.886-10.309-5.492-14.04-2.708-1.712-4.173-4.379-5.626-7.023-.996-1.813-1.986-3.616-3.367-5.094 2.337-5.318 4.171-9.886 5.686-13.658 3.302-8.222 5.086-12.664 7.245-12.854 2.535-.224 5.588 5.417 12.227 17.683 1.245 2.3 2.616 4.834 4.134 7.606 16.723 24.885 21.624 54.469 26.434 83.497l.146.882A275.85 275.85 0 0 1 386.693 512h4.528c.677-1.793 1.406-3.733.304-5.326-.083-.53-.17-1.062-.258-1.594-.969-5.883-1.936-11.751 4.093-14.623 3.883 2.614 2.323 10.493 1.032 17.017v.001c-.323 1.627-.628 3.17-.828 4.525h11.783c.64-3.466 1.435-6.907 2.385-10.312 2.937-.439 2.924-2.967 2.91-5.611-.008-1.647-.017-3.339.688-4.597-.762-18.477 6.527-35.222 13.852-52.049l.002-.005c4.446-10.214 8.905-20.458 11.585-31.139 3.088-18.351 11.158-35.244 19.242-52.165l.002-.006c6.042-12.646 12.091-25.309 16.074-38.609 10.405-19.052 23.691-36.336 37.913-52.912V245.13c-1.189 1.011-2.236 2.188-3.041 3.638-2.354.885-4.065 2.321-5.656 3.657-1.692 1.42-3.25 2.728-5.302 3.137a390.612 390.612 0 0 1-52.713 13.696c-4.71.988-9.527 1.511-14.347 2.034-4.094.445-8.19.889-12.224 1.619-1.632-.063-3.232-.442-4.823-.818-3.51-.832-6.976-1.653-10.645.955-4.235-3.312-8.722-1.839-13.264-.347-.354.116-.708.233-1.063.347-2.791-4.576-5.601-3.274-8.578-1.894-1.745.809-3.548 1.644-5.438 1.337-1.543-1.534-3.433-2.612-5.478-1.37-1.187.402-1.059 2.338.237 2.365 5.881.424 11.816 1.46 17.784 2.501 6.876 1.199 13.795 2.406 20.722 2.695 36.767 4.487 65.783-6.493 81.633-12.49 7.268-2.75 11.767-4.453 12.975-3.136 1.964 2.14-4.763 12.254-22.421 38.803-3.133 4.71-6.61 9.938-10.443 15.73-1.029-5.773-3.562-2.988-6.752.519-.221.244-.446.491-.674.739a.575.575 0 0 0-.573-.29 64.882 64.882 0 0 1-11.396 4.264 4.735 4.735 0 0 1 2.594.493c3.18 1.926 6.487-1.274 9.344-4.401.305.46-.125 1.425-.516 2.303-.229.513-.445.997-.492 1.331-3.15 13.45-12.847 18.025-25.074 21.504-2.323-.249-4.461.578-6.51 1.371-3.074 1.19-5.95 2.303-8.958-.403-.6.539-1.267 1.27-1.978 2.05-2.767 3.035-6.196 6.797-8.979 2.78-1.886-2.849-4.593-2.975-7.421-3.105-1.704-.079-3.451-.16-5.088-.84-1.461-4.145-3.79-3.894-6.529-3.598-1.352.145-2.804.302-4.301-.054-2.344-1.489-4.554-.45-6.666.544-2.554 1.201-4.966 2.335-7.304-1.138-2.233-1.829-4.33-.652-6.368.491-2.487 1.396-4.884 2.741-7.329-1.495-1.993-3.02-4.403-2.513-6.917-1.984-1.576.331-3.191.671-4.77.158a11.695 11.695 0 0 0-6.867-4.675 39.271 39.271 0 0 0-8.126-12.209c.575-3.972 2.931-8.09 6.008-3.853 3.948.922 7.877 1.927 11.802 2.931 16.367 4.187 32.652 8.353 49.924 6.365a187.49 187.49 0 0 0 50.403-4.566c-.513.02-1.026.084-1.533.147-1.579.198-3.094.387-4.311-.795-3.79-3.561-11.213-5.716-14.774-.694-2.821-.534-5.371.273-7.951 1.089-2.323.735-4.67 1.478-7.261 1.257-1.513.344-3.04-.262-4.531-.853-2.471-.98-4.841-1.919-6.874 1.566-5.126 2.683-10.837.933-16.446-.786-5.192-1.592-10.295-3.156-14.764-1.15-5.036 1.685-9.095-1.075-13.173-3.849-4.056-2.758-8.13-5.529-13.206-3.958-1.381-4.937 2.054-9.938 5.048-14.297l.001-.001c.727-1.058 1.428-2.079 2.027-3.051l.292 1.954c10.075.412 20.299 1.626 30.597 2.849 21.389 2.539 43.098 5.117 64.448.63 34.369-5.031 66.593-38.551 8.766-10.811-2.579-.776-5.001.142-7.424 1.06-1.171.443-2.343.887-3.533 1.14-2.316-2.403-4.691-1.853-7.242-1.263-.91.21-1.842.426-2.802.515a46.165 46.165 0 0 0-24.042-.749 121.956 121.956 0 0 0-53.873.913c-.28-.737-.896-1.194-1.529-1.663-.629-.467-1.275-.946-1.622-1.725.592-1.863.954-4.019 1.324-6.219 1.023-6.092 2.103-12.521 8.255-13.997-3.233-3.713-.141-9.326 2.429-13.99.754-1.368 1.463-2.655 1.954-3.788 3.472-3.054 8.35-1.424 13.226.206 3.113 1.041 6.225 2.081 8.971 1.903 34.99 3.963 80.353 7.488 104.696-23.622 5.611-3.928 11.17-8.007 16.455-12.338v-8.39c-.614.334-1.23.664-1.845.994l-.003.002-.007.003c-3.116 1.671-6.209 3.329-8.874 5.403a86.644 86.644 0 0 1-15.085 17.002 116 116 0 0 1-22.928 11.204c-1.946 2.534-4.288 1.85-6.698 1.146-2.114-.618-4.28-1.251-6.277.26-1.526 1.043-3.205.896-4.869.75-1.99-.174-3.957-.347-5.613 1.523-5.924-.07-12.134.759-18.436 1.601-11.678 1.559-23.671 3.16-34.743-.843-1.494-1.019-3.26-.485-5.031.05-2.452.74-4.914 1.484-6.685-1.876-6.665-4.219-.913-12.637 4.137-16.208 6.131-4.562 13.34-3.161 20.705-1.73 5.798 1.127 11.692 2.273 17.234.543 35.117.716 76.719-14.609 95.018-46.251v-16.762Zm0 134.472c-39.997 64.184-60.373 137.38-73.261 210.656h7.79a542.85 542.85 0 0 1 14.19-82.803c4.921-19.86 14.183-37.787 23.493-55.807 4.131-7.995 8.271-16.009 12.045-24.217 4.361-6.035 7.406-12.828 10.472-19.67v-.001l.002-.005c1.677-3.741 3.36-7.497 5.269-11.151v-17.002Zm0 63.643C489.482 411.692 470.242 461.07 462.861 512h9.735a584.719 584.719 0 0 1 8.477-52.597c3.063-12.795 9.357-25.007 15.599-37.118l.001-.002c5.851-11.353 11.657-22.619 14.715-34.194.205-.494.409-.988.612-1.484v-21.618Zm0 75.316a356.089 356.089 0 0 0-16.546 68.982A138.333 138.333 0 0 0 512 492.999v-52.696ZM0 499.955l.224.227a298.63 298.63 0 0 0 34.543-.064c113.645-33.447 237.534-94.259 280.368-211.976 3.604-9.011 8.026-17.627 12.429-26.203l.002-.005c9.449-18.408 18.805-36.636 19.783-58.2 2.789-4.081 2.233-8.648 1.696-13.054-.628-5.158-1.23-10.094 3.591-13.772-.011-1.49-.089-2.934-.165-4.337-.307-5.689-.578-10.699 3.817-15.35a108.062 108.062 0 0 1 4.483-29.877c1.27-11.002 2.009-25.43-5.789-4.638a327.92 327.92 0 0 1-4.565 45.591 289.63 289.63 0 0 1-29.311 91.913c-3.471 5.361-6.386 13.443-9.363 21.701-5.052 14.007-10.285 28.518-18.723 31.103C242.681 409.641 107.091 481.047 0 494.35v5.605Zm0-25.743c1.532.05 3.056.087 4.57.111a366.246 366.246 0 0 0 194.035-85.512 228.757 228.757 0 0 0 32.871-44.057c9.954-4.844 16.981-12.261 24.168-19.846l.001-.001.001-.001.001-.002c2.879-3.038 5.783-6.103 8.911-9.041 3.773-8.956 8.315-17.707 12.864-26.472 9.524-18.348 19.077-36.754 21.66-57.214a17.073 17.073 0 0 0 5.214-12.591c.737-1.961 1.884-3.633 3.008-5.271 2.138-3.115 4.191-6.107 3.174-10.727 4.013-11.085 7.102-22.315 10.193-33.55v-.001l.014-.049c1.693-6.155 3.386-12.312 5.233-18.447 2.772-3.114 1.813-6.819.887-10.395-.16-.619-.319-1.233-.457-1.84-.113-1.443.712-2.547 1.535-3.65 1.048-1.404 2.094-2.806 1.204-4.897-1.74-3.374-.893-6.479-.022-9.674.341-1.25.685-2.513.88-3.812-2.228-8.594-5.617-.211-7.206 3.72l-.154.382-.1.244c-2.738 0-2.194.916-1.499 2.088.334.563.703 1.185.76 1.793a6.542 6.542 0 0 0 .721 5.807c-.853 28.726-11.928 55.931-22.808 82.659-2.393 5.88-4.777 11.737-7.041 17.581-17.431 49.71-41.172 102.122-85.056 133.039.105.744.659 1.018 1.225 1.298.614.304 1.242.615 1.323 1.542C150.664 419.124 78.24 457.599 0 468.172v6.04Zm0-28.952c47.138.212 90.282-18.196 130.36-40.945 4.447-1.132 8.007-3.737 11.58-6.351 3.6-2.634 7.212-5.277 11.758-6.432 3.186-4.47 7.814-6.877 12.518-9.324 3.724-1.937 7.496-3.9 10.639-6.929 8.779-5.801 15.195-13.664 21.569-21.474 5.485-6.723 10.939-13.406 17.84-18.703.703-3.205 2.913-8.09 6.721-7.725 3.803-.113 5.97-3.165 8.191-6.294 1.731-2.437 3.494-4.921 6.089-6.096a397.468 397.468 0 0 0 35.904-64.922c16.636-42.916 33.976-90.397 34.451-135.541-.571 0-1.257-.204-1.955-.412-1.437-.428-2.927-.872-3.579.412-.1 1.897-1.242 3.362-2.364 4.801-.818 1.049-1.624 2.084-2.009 3.262 7.971 58.338-42.468 158.715-83.348 203.941l.648 2.502C157.437 388.047 82.575 432.555 0 440.537v4.723Zm0-28.661a12.54 12.54 0 0 1 11.711-.03 197.908 197.908 0 0 0 66.3-15.057 399.761 399.761 0 0 0 141.915-110.485 350.118 350.118 0 0 0 35.611-74.82l.497-.721.27-.391c1.257-1.816 1.896-2.739 2.202-3.761.318-1.057.28-2.221.204-4.587v-.004l-.001-.004c-.018-.587-.04-1.248-.059-2a71.441 71.441 0 0 0 12.154-36.342c-.411-2.561-.362-5.127-.312-7.69.061-3.129.122-6.254-.656-9.366-.105-.561-.304-1.157-.505-1.763-.602-1.812-1.233-3.71.505-5.003 5.716-5.908 5.723-12.965 5.729-20.198.003-3.511.006-7.064.662-10.547l-2.419-3.141c-2.667 1.223-3.248 4.525-3.758 7.419-.119.673-.233 1.325-.369 1.922C266.74 238.606 180.9 356.825 64.908 398.974c-3.87 4.091-30.002 7.949-53.125 11.363-4.066.6-8.04 1.187-11.783 1.758v4.504Zm0-21.994c17.251.483 36.511-6.474 54.573-12.999 10.756-3.885 21.086-7.617 30.314-9.532a296.275 296.275 0 0 0 57.389-32.662c2.302-2.455 5.285-4.283 8.26-6.106 4.86-2.979 9.699-5.944 11.517-11.608 1.101-2.3 2.87-3.96 4.615-5.598 2.6-2.439 5.145-4.828 5.347-9.203 3.689-4.516 7.882-8.902 12.133-13.349l.002-.002c12.94-13.537 26.431-27.649 27.978-47.772a15.303 15.303 0 0 0 7.916-16.655c5.702-9.335 8.983-19.66 12.288-30.061 2.443-7.69 4.9-15.421 8.358-22.826a49.523 49.523 0 0 0 .548-19.23 24.443 24.443 0 0 0 3.232-16.08 30.761 30.761 0 0 0 4.118-20.645c-1.834-.076-2.309-1.881-2.747-3.541-.455-1.728-.868-3.299-2.732-2.595-3.386 3.708-2.404 7.908-1.436 12.047.433 1.854.864 3.696.898 5.475C223.484 263.588 133.199 371.442 0 387.264v7.341Zm0-32.791c10.115-2.984 20.724-4.412 31.338-5.84 11.24-1.513 22.486-3.027 33.16-6.39a353.873 353.873 0 0 0 79.878-46.568c16.94-13.414 28.289-31.623 39.594-49.759 5.525-8.865 11.04-17.712 17.191-25.974 8.164-19.7 13.238-40.334 18.267-60.78 2.593-10.543 5.173-21.036 8.159-31.324.213-3.734 1.123-7.357 2.029-10.965.99-3.946 1.976-7.873 2.043-11.908-3.004-4.201-6.574 2.438-5.698 5.889-.324 1.506-1.838 1.17-3.037.903-.219-.048-.427-.094-.615-.127-1.89 1.132-4.356 5.643-2.557 7.752 10.211-3.631-2.873 33.261-12.143 59.399-3.994 11.261-7.28 20.526-7.69 23.694C164.917 295.826 89 344.458 0 358.587v3.227Zm0-20.904c48.318 2.322 91.11-24.934 130.542-50.86 48.595-44.331 73.486-109.326 76.18-175.151.256-1.991-5.013-3.707-4.565-1.379 2.318 3.955 1.491 9.43.723 14.515-.333 2.205-.655 4.337-.705 6.24-10.318 44.787-25.868 91.547-53.38 128.491C107.817 299.431 55.351 330.461 0 338.222v2.688Zm0-17.546c92.826-7.002 164.971-94.786 179.128-183.264a33.069 33.069 0 0 0 1.452-16.545c1.561-2.895 2.21-5.241-.584-6.237-1.39.092-2.597 2.041-3.312 3.195l-.195.312c-.33.523-.955.218-1.535-.065-.604-.295-1.16-.566-1.286.147 4.634 44.615-22.763 81.193-49.102 116.357-6.769 9.037-13.468 17.982-19.536 26.945A180.665 180.665 0 0 1 0 317.017v6.347Zm0-26.956c10.83.67 21.721.795 31.817-4.285 7.392-6.278 16.267-10.18 25.048-14.041 6.405-2.817 12.76-5.611 18.453-9.289 7.004-4.48 12.794-10.175 18.557-15.843 6.079-5.979 12.127-11.928 19.537-16.39a109.92 109.92 0 0 1 13.606-25.402c.856-5.443 3.946-9.503 7.1-13.647 2.666-3.502 5.377-7.064 6.824-11.573a364.043 364.043 0 0 1 19.422-59.717l-.858-6.172c.258-.607.578-1.18.894-1.744.711-1.271 1.398-2.499 1.297-3.972-1.449-2.609-2.604-.886-3.932 1.094-1.182 1.762-2.501 3.729-4.286 3.024a17.12 17.12 0 0 0-2.383 4.629c.179 1.227 1.231 1.393 2.084 1.527.754.119 1.353.214 1.057.993-1.167 5.13-2.64 10.25-4.106 15.341-.587 2.041-1.173 4.078-1.738 6.108-11.176 37.866-24.654 81.467-58.438 104.797-10.205 4.225-20.773 10.082-31.59 16.077C39.461 278.399 19.8 289.295 0 292.64v3.768Zm0-26.587c.533-.131 1.07-.253 1.612-.362 1.734-.135 3.461-.252 5.179-.369 12.68-.862 24.85-1.689 35.673-9.337 30.315-10.044 53.874-33.949 71.095-59.689a162.608 162.608 0 0 1 13.148-48.687c.939-2.208.845-4.477.752-6.714-.137-3.314-.271-6.557 2.955-9.429 2.921-4.689 2.407-10.326 1.914-15.722-.178-1.96-.354-3.888-.361-5.727a6.392 6.392 0 0 0-6.292 7.305 110.472 110.472 0 0 1-7.798 35.93C101.231 225.866 54.066 249.247 0 267.269v2.552Zm0-24.098a91.575 91.575 0 0 0 67.675-36.674 216.718 216.718 0 0 0 41.501-93.712c-.375-2.493-7.698-3.607-7.186-.575 3.65 5.144.96 13.437-.905 19.188l-.182.562C88.955 183.818 50.015 231.128 0 241.911v3.812Zm0-23.877c7.292-2.647 14.531-6.648 21.699-10.608 8.02-4.431 15.95-8.812 23.76-11.193a92.227 92.227 0 0 0 20.737-28.616 38.79 38.79 0 0 0 11.523-22.901c.425-4.216 1.943-8.459 3.456-12.692 2.941-8.224 5.868-16.409.744-24.288-2.07 5.299-4.025 10.467-5.927 15.491C59.502 170.61 47.108 203.357 0 216.86v4.986Zm0-29.65a161.664 161.664 0 0 0 18.422-3.601c9.195-3.844 16.43-13.247 23.388-22.289 3.205-4.165 6.351-8.254 9.603-11.687a83.366 83.366 0 0 0 7.304-26.526c.176-1.111.98-2.523 1.817-3.994 1.73-3.039 3.6-6.324.357-7.703-1.826-1.095-6.447-2.739-5.406 1.032a64.83 64.83 0 0 1-14.445 35.045A83.89 83.89 0 0 1 0 188.845v3.351Zm0-20.265c18.77-8.955 32.146-31.997 35.817-51.316v.511c0 .183.493-1.224.082-.648l-.082.137c-5.012-12.687-8.615-2.832-12.501 7.798-2.485 6.798-5.086 13.912-8.245 15.65C10.78 151.749 5.444 157.116 0 160.922v11.009Zm0-31.987a30.983 30.983 0 0 0 6.58-10.262c2.83-3.653 7.724-17.13 1.698-18.262-4.056 2.79-5.927 7.5-7.853 12.346l-.002.006v.001L0 124.833v15.111ZM246.182 0h-11.33c-11.789 26.01-17.831 54.927-23.394 81.553l-.572 2.739c-1.077 3.871 3.525 21.138 6.921 13.166l-.014-.018-.127-.16-.081-.102-.002-.004c-1.68-2.12-3.481-4.392-1.191-6.865l-1.297-2.63c2.55-3.9 3.827-8.49 5.108-13.091 1.142-4.1 2.286-8.21 4.334-11.846.795-2.148.504-4.508.217-6.844-.412-3.354-.819-6.657 2.002-9.208 2.949-1.993 3.172-5.05 3.4-8.177.205-2.817.415-5.69 2.626-7.893 1.816-1.485 2.034-3.463 2.252-5.445.184-1.675.369-3.352 1.519-4.737a7.405 7.405 0 0 0 2.219-8.583c.121-3.223 2.161-5.486 4.231-7.783 1.161-1.288 2.332-2.587 3.179-4.072Zm-25.848 0c-1.224 2.906-2.226 5.904-2.901 9.043.077 3.036-2.505 5.002-5.046 6.936-2.908 2.214-5.762 4.386-4.514 8.075.658 1.791-.713 2.873-2.129 3.99-1.528 1.206-3.108 2.452-2.236 4.676-1.949 5.926-3.473 12.167-5.007 18.447-1.967 8.05-3.95 16.168-6.863 23.774-1.35.616-1.575 1.947-1.78 3.155-.235 1.392-.444 2.621-2.311 2.406-3.533 2.122-2.475 6.92-1.478 11.44.539 2.443 1.06 4.805.83 6.621-16.473-3.946 6.239-64.515 20.523-98.563h12.912Zm-32.468 0a4.142 4.142 0 0 0-.283.624c1.36 4.174-.732 6.785-2.802 9.368-1.67 2.084-3.325 4.15-3.142 7.004-.041 1.987-1.284 3.505-2.514 5.007-1.778 2.17-3.528 4.307-1.585 7.776.403 2.103-1.106 3.461-2.513 4.729-.28.252-.555.5-.811.75-.885 1.713-1.097 3.677-1.308 5.64-.357 3.322-.714 6.64-4.335 8.723-.557 1.612-.717 3.325-.875 5.024-.341 3.653-.676 7.236-4.933 9.586-2.385 2.346-2.31 4.739-2.24 6.948.09 2.82.17 5.34-4.9 7.077-1.083 1.748 1.194 3.735 3.478 5.728 2.857 2.493 5.725 4.995 2.046 7.055 1.005 1.224 4.255 5.662.548 4.192-.2-.188-.458-.437-.761-.728-2.741-2.64-9.085-8.747-7.877-3.674a6.097 6.097 0 0 1-1.917-5.058A312.275 312.275 0 0 1 174.977 0h12.889Zm-29.073 0c-3.372 6.29-6.498 12.613-8.126 19.032a496.296 496.296 0 0 0-20.81 64.93c-.287.714-.797 1.403-1.312 2.098-1.008 1.36-2.031 2.742-1.427 4.368.408.707.004.609-.642.452-.873-.212-2.188-.53-2.545.88 1.142 7.698-6.145-1.479-3.497-5.021a6.815 6.815 0 0 1 .776-4.849c.197-4.376 2.263-8.68 4.354-13.037 3.336-6.95 6.735-14.03 2.705-21.743 1.309-5.235 4.369-9.63 7.424-14.021 4.039-5.802 8.07-11.595 8.044-19.298A395.234 395.234 0 0 1 149.795 0h8.998Zm-34.536 0a9.922 9.922 0 0 1-.49 2.25c-7.574 11.386-10.395 24.714-13.206 37.993v.001c-1.106 5.228-2.211 10.45-3.604 15.54a43.72 43.72 0 0 1-2.995 14.3c.286 2.485-.478 4.608-1.219 6.664-.819 2.273-1.608 4.465-.918 6.977-.438 1.681-1.84 2.076-3.007 2.405-1.577.446-2.724.769-.472 3.987-2.75-2.525-2.52-.82-2.237 1.277.199 1.467.423 3.126-.329 3.663a5.661 5.661 0 0 1-6.282-4.51c.138-.73.665-.59 1.238-.44.567.151 1.179.313 1.501-.346a6.701 6.701 0 0 0 .129-3.908c3.265-3.53 3.051-7.49 2.828-11.625-.079-1.449-.158-2.919-.09-4.4 1.13-5.725 2.426-11.338 3.718-16.934 2.585-11.191 5.152-22.307 6.327-34.08A635.952 635.952 0 0 1 113.234 0h11.023ZM86.103 0c.126 1.846-.783 3.444-1.706 5.067-.87 1.531-1.754 3.084-1.793 4.889-.624 5.908-2.552 11.654-4.478 17.389-2.329 6.938-4.653 13.86-4.653 21.034.406 2.813-.686 5.326-1.786 7.856-1.128 2.596-2.264 5.21-1.802 8.188-.418.444-.853.875-1.287 1.305l-.004.004c-1.958 1.94-3.904 3.868-4.188 6.908l.121.138.134.151c1.538 1.734 3.167 3.571.339 4.998l-.415.255-.002.001c-2.171 1.33-5.714 3.497-4.414 6.227.172.22.363.442.555.666 1.098 1.282 2.238 2.611-.016 3.544-4.166 1.579-2.779 4-1.256 6.658.256.447.516.901.754 1.359.858 2.073-.64 3.479-2.639 4.063-1.01.1-1.937-.402-2.848-.895-.415-.225-.828-.448-1.243-.612-1.145-1.204-.64-2.991-.145-4.739.266-.941.529-1.872.529-2.693a11.724 11.724 0 0 0-.338-8.172 3.451 3.451 0 0 1 0-2.192c.169-.853.481-1.686.792-2.516.615-1.64 1.227-3.271.724-5.035a7.68 7.68 0 0 1 .803-5.433 12.73 12.73 0 0 0 1.881-6.392 32.47 32.47 0 0 1 3.068-11.816c.888-1.882.63-3.8.375-5.71-.263-1.963-.524-3.916.456-5.813a14.39 14.39 0 0 0 1.826-8.601c.896-1.733 1.13-3.623 1.365-5.512.246-1.983.493-3.965 1.503-5.765A57.132 57.132 0 0 1 72.049 0h14.054ZM53.53 0a17.03 17.03 0 0 1-4.71 9.518c-.998 1.353-.732 2.983-.469 4.603.137.84.273 1.678.232 2.473.149 1.686-.598 3.173-1.345 4.66-.353.705-.707 1.409-.965 2.134-.345 1.478-.458 2.982-.57 4.471-.244 3.276-.484 6.478-3.183 9.17-1.114 1.601-1.003 3.245-.887 4.98.14 2.076.288 4.282-1.642 6.699-1.281 1.647-1.643 3.627-2 5.578-.383 2.097-.76 4.16-2.264 5.745a7.953 7.953 0 0 0-1.306 7.387 75.857 75.857 0 0 1-3.214 17.294 19.194 19.194 0 0 1 2.3 7.304c.028 2.411-1.104 5.79-3.715 6.063-.234-.052-.5-.09-.78-.13h-.002c-1.034-.15-2.24-.323-2.542-1.321-.39-1.804.057-3.554.5-5.286.49-1.915.974-3.808.313-5.726-1.708-2.831 1.16-13.55 2.282-16.528.42-3.926.942-7.847 1.465-11.773 1.023-7.688 2.05-15.395 2.316-23.198A248.086 248.086 0 0 1 41.998.633L42.134 0H53.53ZM23.533 0a330.23 330.23 0 0 0-6.407 32.884 4.41 4.41 0 0 1-2.785 6.593C8.025 41.189 12.062 19.678 16.184 0h7.349Zm432.311 64.888a213.892 213.892 0 0 0 16.928 20.317c.307 1.106.59 3.185.923 5.637 1.209 8.882 3.082 22.643 9.122 12.625a79.117 79.117 0 0 0-5.798-29.603c-27.147-45.902-75.468-81.156-128.428-47.573-23.257 13.605-35.599 38.047-47.355 61.329-2.801 5.548-5.57 11.03-8.445 16.285.199.295.41.628.63.974 1.495 2.356 3.364 5.301 4.137.651-.535-2.264.887-3.746 2.312-5.231 1.569-1.636 3.141-3.274 2.107-5.963-.138-5.473 3.337-8.731 6.734-11.917 1.783-1.672 3.546-3.325 4.753-5.268 16.025-37.894 60.264-64.73 100.541-50.723 3.07-.842 4.512 1.108 6.005 3.128 1.097 1.483 2.222 3.004 4.039 3.483a33.3 33.3 0 0 0 2.043.815c2.683 1.004 5.44 2.036 6.121 5.166 3.154 4.796 7.426 8.813 11.73 12.862l.002.001c4.292 4.037 8.617 8.105 11.899 13.005Zm-17.175 15.256c-1.961-2.239-3.942-4.5-5.461-7.157-5.23-3.055-8.493-7.61-11.727-12.124-2.023-2.824-4.034-5.632-6.508-8.046-2.015-.45-3.489-1.897-4.943-3.324-.555-.545-1.108-1.088-1.686-1.57-1.619-2.26-3.9-2.094-6.177-1.93-2.179.157-4.355.315-5.949-1.65-2.498-3.25-5.358-1.598-8.157.019-1.078.623-2.148 1.24-3.184 1.57-1.453.414-3.031.484-4.608.554-2.951.13-5.898.262-8.011 2.642-2.834 2.354-5.784 4.45-8.733 6.546-3.103 2.204-6.205 4.409-9.173 6.913-1.393 1.26-2.444 2.766-3.487 4.26-1.95 2.795-3.872 5.55-7.954 6.579-5.325 5.62-6.841 12.719-8.342 19.743-1.145 5.358-2.28 10.673-5.09 15.256-6.19-16.966 7.36-41.857 22.308-53.435 19.485-15.96 56.137-24.599 73.641-1.497 2.418 2.336 4.988 4.564 7.544 6.781 10.591 9.185 20.942 18.162 19.228 33.706 2.101 18.161-3.543 15.166-5.981-.1-.671-5.883-4.079-9.773-7.55-13.736Zm-22.207 8.713c16.883 52.777 14.235-5.752-2.886-16.509-22.727-16.7-55.562-3.314-65.35 21.166.305 2.096-.454 4.236-1.192 6.32-1.163 3.281-2.276 6.421.89 9.029 2.583-1.427 4.284-5.065 6.083-8.91 2.08-4.448 4.29-9.173 8.144-11.078 13.376-16.965 42.76-20.791 54.311-.018ZM367.2 102.535c7.935-9.852 22.48-20.225 33.547-8.756.368.536.801 1.13 1.265 1.769l.001.002c3.179 4.366 7.844 10.773 3.391 14.692-1.357-1.735-2.3-4.128-3.281-6.615-2.073-5.261-4.313-10.945-10.991-11.72-2.408-.813-4.491.292-6.631 1.427-1.105.586-2.225 1.18-3.413 1.522-1.698 5.305-12.619 21.915-13.888 7.679ZM4.653 104.188a4.72 4.72 0 0 1-1.607-3.461 9.31 9.31 0 0 1-.064-1.114c.095-.909-.19-1.732-.477-2.56-.321-.926-.644-1.857-.436-2.918.184-.941 1.151-3.715 2.16-6.607 1.144-3.282 2.34-6.715 2.506-7.793.17-1.858.63-3.679 1.36-5.396a8.446 8.446 0 0 0 .548-3.835c0-1.253.123-2.507.247-3.76.04-.418.082-.835.118-1.253.01-.091.238-.247.366-.247a.658.658 0 0 1 .484.146 17.669 17.669 0 0 1 3.506 6.292 4.228 4.228 0 0 1-.995 5.122 3.482 3.482 0 0 0-.667.913 2.502 2.502 0 0 0-.192 2.137 13.695 13.695 0 0 0 2.119 3.917A45.729 45.729 0 0 1 11.054 96.4c-.355 1.385-.374 2.8-.392 4.214-.02 1.571-.041 3.143-.521 4.68-.117.371.019.812.158 1.265.09.294.182.593.207.881.012.146-.156.305-.336.477a3.18 3.18 0 0 0-.258.262 6.35 6.35 0 0 1-1.488-.694 61.446 61.446 0 0 1-3.771-3.296Zm383.512 360.465c.582.117 1.343.207 2.187.306 3.692.436 8.972 1.058 7.857 4.99-.845.592-1.714 2.057-2.626 3.594-1.76 2.965-3.677 6.197-5.885 3.948-.073-1.512-.598-3.152-1.126-4.798-.919-2.866-1.846-5.755-.407-8.04Zm8.227 21.193a7.39 7.39 0 0 0 3.131-3.652h-.027c5.278-16.546-2.511-7.944-3.387 2.639l.283 1.013Zm14.628-39.409a75.84 75.84 0 0 1-9.524 23.01c-.93-1.507.19-3.45 1.271-5.324 1.263-2.191 2.471-4.287.281-5.478a17.23 17.23 0 0 0-17.815.484c-3.772-3.75-3.81-7.936-3.847-12.139-.022-2.521-.045-5.049-.873-7.493-.603-.84-1.826-2.675-.256-3.086 3.141 2.285 9.223 2.197 15.179 2.111 9.038-.131 17.791-.258 15.556 7.915h.028Zm7.514-21.367a46.797 46.797 0 0 1 2.785-9.569h-.027c1.226-5.237-7.344-4.971-16.02-4.701-6.18.192-12.415.385-15.199-1.408-16.067-3.401-15.598-.662-14.143 7.847.53 3.097 1.19 6.958 1.232 11.566 1.006 1.93 2.821 1.702 4.705 1.465 1.876-.236 3.821-.48 5.102 1.393 1.447 1.442 3.256 1.001 5.069.559 1.917-.467 3.838-.936 5.34.819 2.501 1.356 5.598 1.063 8.68.771h.002c1.878-.178 3.751-.356 5.48-.159 2.886.306 3.508-1.793 4.177-4.049.529-1.785 1.087-3.667 2.817-4.534Zm21.486-59.041c-3.567.612-7.465.315-11.37.017-7.754-.591-15.541-1.185-20.836 5.325-.612.725-2.157.821-3.728.918-2.854.177-5.793.359-3.366 4.341 2.27-.023 5.196-.338 8.38-.681 9.478-1.021 21.243-2.287 24.811 3.174-1.819 2.245-2.634 5.63-3.437 8.965-1.091 4.531-2.159 8.968-5.694 10.32a29.488 29.488 0 0 0-18.609 8.975c-2.493 1.406-4.018.758-5.479-1.716-1.235-.605-2.368-.63-3.412-.653-1.887-.041-3.482-.075-4.87-3.52a16.06 16.06 0 0 0-17.905 1.068c-5.953-3.105-8.381-11.069-10.79-18.968-1.53-5.018-3.052-10.009-5.464-13.712 1.752-.519 7.437 1.15 13.622 2.967 10.677 3.136 22.848 6.71 18.876.229-1.222-1.056-2.504-.447-3.794.166-1.33.632-2.669 1.268-3.959.081-2.259-2.819-5.301-3.825-8.377-4.842-2.145-.71-4.308-1.425-6.232-2.765-2.414-.873-4.615-1.442-6.621-1.961-6.757-1.748-11.289-2.92-14.225-13.214 0-.717-.384-1.746-.782-2.811-.731-1.96-1.51-4.046-.031-4.549a118.09 118.09 0 0 0 31.146 7.707 279.149 279.149 0 0 0 55.653.721c1.452.099 3.58-.688 5.815-1.514 4.58-1.694 9.609-3.554 10.192 1.706a50.025 50.025 0 0 1-9.542 14.226h.028Z" fill="#000" fill-opacity=".04"/><path d="M349.274 311.265h46.71l8.573 29.198H456L393.203 172h-10.214l-12.567 51.909 15.134 51.671h-27.643l-8.639 35.685Z" fill="#312D2A"/><path d="m173.45 305.687 8.419 34.776h43.101l25.489-103.812 25.953 103.812h43.101L360.296 172h-46.345l-21.782 101.031-23.172-91.762h-37.076l-22.013 90.14-13.237-61.059-23.221 95.337Z" fill="#7C5095"/><path fill-rule="evenodd" clip-rule="evenodd" d="M175.906 195.983a45.97 45.97 0 0 0-7.752-8.921C157.031 177.021 140.888 172 119.724 172H56v168.463h45.418v-50.284h18.306c13.693 0 25.285-2.102 34.774-6.306l21.408-87.89Zm-74.488 11.007h9.269c10.504 0 17.997 1.854 22.477 5.562 4.634 3.707 6.951 9.886 6.951 18.537s-2.317 14.831-6.951 18.538c-4.48 3.708-11.973 5.562-22.477 5.562h-9.269V206.99Z" fill="#312D2A"/></g><defs><clipPath id="a"><path fill="#fff" d="M0 0h512v512H0z"/></clipPath></defs></svg>