<svg xmlns="http://www.w3.org/2000/svg" width="64" height="64" fill="none"><path fill="#E53700" d="M0 0h64v64H0z"/><g filter="url(#a)"><path fill="#fff" d="M36.884 31.997h1.79a3.55 3.55 0 0 0 2.525-1.045l10.592-10.59a.715.715 0 0 0-1.01-1.01l-8.066 8.064-1.363-1.363 7.825-8.08a.713.713 0 1 0-1.028-.993l-7.807 8.064-1.402-1.402 7.795-8.05a.713.713 0 1 0-1.027-.993l-7.778 8.035-1.401-1.401 7.764-8.021a.713.713 0 1 0-1.027-.993l-10.26 10.596A3.552 3.552 0 0 0 32 25.3v1.816a2.14 2.14 0 0 1-.747 1.627l-7.004 6.002a68.783 68.783 0 0 0-3.901 3.614l-7.25 7.25A3.767 3.767 0 0 0 12 48.256 3.749 3.749 0 0 0 15.745 52c.985 0 1.951-.398 2.648-1.097l7.25-7.25a68.558 68.558 0 0 0 3.614-3.9l6.003-7.003c.407-.476 1-.747 1.627-.747l-.003-.006Zm-8.716 6.821a67.755 67.755 0 0 1-3.539 3.821l-7.25 7.25a2.332 2.332 0 0 1-1.637.678 2.319 2.319 0 0 1-2.316-2.315c0-.61.247-1.207.678-1.637l7.25-7.25a68.972 68.972 0 0 1 3.823-3.54l7.003-6a3.566 3.566 0 0 0 1.247-2.712v-1.815c0-.56.214-1.089.604-1.49l1.502-1.55 6.17 6.17-1.516 1.515a2.16 2.16 0 0 1-1.515.627h-1.789a3.564 3.564 0 0 0-2.712 1.247l-6.003 7.001ZM16.492 24.647c-3.43-3.429-3.43-9.01 0-12.438a.715.715 0 0 1 1.01 0L30.36 25.065a.715.715 0 0 1-1.01 1.01L17.022 13.747c-2.382 2.892-2.222 7.187.481 9.888l7.534 7.534a.715.715 0 1 1-1.012 1.01l-7.533-7.534v.002Zm34.41 20.958A3.767 3.767 0 0 1 52 48.253a3.749 3.749 0 0 1-3.745 3.744 3.767 3.767 0 0 1-2.649-1.097l-12.47-12.47a.715.715 0 0 1 1.01-1.01l12.47 12.47a2.333 2.333 0 0 0 1.638.679 2.319 2.319 0 0 0 2.316-2.316c0-.61-.248-1.207-.68-1.637L37.92 34.647a.715.715 0 0 1 1.01-1.01l11.971 11.97.001-.002Z"/></g><defs><filter id="a" width="41.5" height="41.5" x="12" y="12" color-interpolation-filters="sRGB" filterUnits="userSpaceOnUse"><feFlood flood-opacity="0" result="BackgroundImageFix"/><feColorMatrix in="SourceAlpha" result="hardAlpha" values="0 0 0 0 0 0 0 0 0 0 0 0 0 0 0 0 0 0 127 0"/><feOffset dx="1.5" dy="1.5"/><feComposite in2="hardAlpha" operator="out"/><feColorMatrix values="0 0 0 0 0 0 0 0 0 0 0 0 0 0 0 0 0 0 0.1 0"/><feBlend in2="BackgroundImageFix" result="effect1_dropShadow_3_3"/><feBlend in="SourceGraphic" in2="effect1_dropShadow_3_3" result="shape"/></filter></defs></svg>