<svg xmlns="http://www.w3.org/2000/svg" width="64" height="64"><g fill="none" fill-rule="evenodd"><path fill="#E5E7E9" d="M0 0h64v64H0z"/><g fill-rule="nonzero" transform="translate(13 13)"><path fill="#000" d="M36 39H2a2 2 0 0 1-2-2V8h38v29a2 2 0 0 1-2 2z" opacity=".12"/><path fill="#F9422A" d="M36 38H2a2 2 0 0 1-2-2V7h38v29a2 2 0 0 1-2 2z"/><path fill="#FFF" d="M38 7H0V2a2 2 0 0 1 2-2h34a2 2 0 0 1 2 2v5z"/><path fill="#000" d="M16 32h-1c-2.206 0-4-1.794-4-4v-2.766l-2.555-1.703a.998.998 0 0 1 0-1.663L11 20.164V18c0-2.206 1.794-4 4-4h1a1 1 0 1 1 0 2h-1c-1.103 0-2 .897-2 2v2.7c0 .334-.167.646-.445.832L10.803 22.7l1.752 1.168A1 1 0 0 1 13 24.7V28c0 1.103.897 2 2 2h1a1 1 0 1 1 0 2zm7 0h-1a1 1 0 1 1 0-2h1c1.103 0 2-.897 2-2v-3.3c0-.334.167-.646.445-.832l1.752-1.168-1.752-1.168A1.001 1.001 0 0 1 25 20.7V18c0-1.103-.897-2-2-2h-1a1 1 0 1 1 0-2h1c2.206 0 4 1.794 4 4v2.164l2.555 1.703a1.003 1.003 0 0 1 0 1.665L27 25.235V28c0 2.206-1.794 4-4 4z" opacity=".08"/><path fill="#FFF" d="M16 31h-1c-2.206 0-4-1.794-4-4v-2.766l-2.555-1.703a.998.998 0 0 1 0-1.663L11 19.164V17c0-2.206 1.794-4 4-4h1a1 1 0 1 1 0 2h-1c-1.103 0-2 .897-2 2v2.7c0 .334-.167.646-.445.832L10.803 21.7l1.752 1.168A1 1 0 0 1 13 23.7V27c0 1.103.897 2 2 2h1a1 1 0 1 1 0 2zm7 0h-1a1 1 0 1 1 0-2h1c1.103 0 2-.897 2-2v-3.3c0-.334.167-.646.445-.832l1.752-1.168-1.752-1.168A1.001 1.001 0 0 1 25 19.7V17c0-1.103-.897-2-2-2h-1a1 1 0 1 1 0-2h1c2.206 0 4 1.794 4 4v2.164l2.555 1.703a1.003 1.003 0 0 1 0 1.665L27 24.235V27c0 2.206-1.794 4-4 4z"/><circle cx="4.5" cy="3.5" r="1.5" fill="#CACFD2"/><circle cx="9.5" cy="3.5" r="1.5" fill="#CACFD2"/><circle cx="14.5" cy="3.5" r="1.5" fill="#CACFD2"/></g></g></svg>