<svg xmlns="http://www.w3.org/2000/svg" width="64" height="64"><g fill="none" fill-rule="evenodd"><path fill="#4C4E50" d="M0 0h64v64H0z"/><g fill-rule="nonzero"><path d="M12 16h19v4H12zm0 6h19v4H12zm0 6h19v4H12zm0 6h19v4H12zm0 6h19v4H12zm0 6h19v4H12zm21-30h19v4H33zm0 6h19v4H33zm0 6h19v4H33zm0 6h19v4H33zm0 6h19v4H33zm0 6h19v4H33z" fill="#000" opacity=".1"/><path fill="#FFBE2A" d="M12 15h19v4H12zm0 6h19v4H12zm0 6h19v4H12z"/><path fill="#BDC3C7" d="M12 33h19v4H12zm0 6h19v4H12zm0 6h19v4H12z"/><path fill="#F9422A" d="M33 15h19v4H33zm0 6h19v4H33zm0 6h19v4H33z"/><path fill="#4AA4EC" d="M33 33h19v4H33zm0 6h19v4H33zm0 6h19v4H33z"/></g></g></svg>