<svg xmlns="http://www.w3.org/2000/svg" width="64" height="64"><g fill="none" fill-rule="evenodd"><path fill="#3E566D" d="M0 0h64v64H0z"/><g fill-rule="nonzero"><g fill="#000" opacity=".1"><path d="M42.547 38.198l-7.665-1.916-6.428 9.642L18.26 37.77 12 45.073V53h40V29.69z"/><path d="M17.74 32.23l9.806 7.846 5.572-8.358 8.335 2.084L52 24.309V13l-10 9-8-2-6 9-10-8-6 7v10.927z"/></g><path fill="#BDC3C7" d="M42.547 37.198l-7.665-1.916-6.428 9.642L18.26 36.77 12 44.073V52h40V28.69z"/><path fill="#24CB7F" d="M17.74 31.23l9.806 7.846 5.572-8.358 8.335 2.084L52 23.309V12l-10 9-8-2-6 9-10-8-6 7v10.927z"/></g></g></svg>