<svg height="64" width="64" xmlns="http://www.w3.org/2000/svg"><g fill="none" fill-rule="evenodd"><path d="M0 0h64v64H0z" fill="#27a6ef"/><g fill-rule="nonzero" transform="translate(13 11)"><path d="M28.5 27h-27A1.5 1.5 0 0 1 0 25.5V5h30v20.5a1.5 1.5 0 0 1-1.5 1.5z" fill="#000" opacity=".1"/><path d="M28.5 26h-27A1.5 1.5 0 0 1 0 24.5V4h30v20.5a1.5 1.5 0 0 1-1.5 1.5z" fill="#fff"/><path d="M30 4H0V1.5A1.5 1.5 0 0 1 1.5 0h27A1.5 1.5 0 0 1 30 1.5z" fill="#f9422a"/><g fill="#3d566e"><path d="M22 40c0-4.571-3.582-8-8-8s-8 3.429-8 8z"/><circle cx="32" cy="25" r="5"/><path d="M40 40c0-4.571-3.582-8-8-8s-8 3.429-8 8z"/></g><path d="M4 8h6v6H4zm0 8h6v6H4zm8-8h6v6h-6zm0 8h6v6h-6zm8 0h6v6h-6zm0-8h6v6h-6z" fill="#e5e7e9"/><circle cx="14" cy="25" fill="#3d566e" r="5"/></g></g></svg>