<svg xmlns="http://www.w3.org/2000/svg" width="64" height="64"><g fill="none" fill-rule="evenodd"><path fill="#27A6EF" d="M0 0h64v64H0z"/><g fill-rule="nonzero" transform="translate(12 12)"><circle cx="20" cy="22" r="6" fill="#3D566E"/><path fill="#000" d="M20 17a5.998 5.998 0 0 1 5.975 5.5A6.34 6.34 0 0 0 26 22a6 6 0 1 0-12 0c0 .169.012.335.025.5A5.998 5.998 0 0 1 20 17z" opacity=".15"/><path fill="#3D566E" d="M30 40c0-6-4.477-10-10-10s-10 4-10 10h20z"/><path fill="#000" d="M20 31c5.209 0 9.484 3.561 9.953 9H30c0-6-4.477-10-10-10s-10 4-10 10h.047c.469-5.439 4.744-9 9.953-9z" opacity=".15"/><path fill="#000" d="M5.858 7.096C2.08 10.874.154 16 .036 21H5.8c.172-4 1.516-6.877 4.066-9.427.079-.079.166-.271.246-.348 4.994-4.765 12.631-5.182 18.026-1.142l4.518-4.424C24.797-.774 13.161-.207 5.858 7.096zM39.98 21c-.106-5-1.595-8.88-4.495-12.419l-4.518 4.643C32.67 15.498 33.582 18 33.722 21h6.258z" opacity=".1"/><path fill="#FFBE2A" d="M5.858 6.096C2.08 9.874.154 15 .036 20H5.8c.172-4 1.516-6.877 4.066-9.427.079-.079.166-.271.246-.348 4.994-4.765 12.631-5.182 18.026-1.142l4.518-4.424C24.797-1.774 13.161-1.207 5.858 6.096z"/><path fill="#FFF" d="M39.98 20c-.106-5-1.595-8.88-4.495-12.419l-4.518 4.643C32.67 14.498 33.582 17 33.722 20h6.258z"/></g></g></svg>