<svg xmlns="http://www.w3.org/2000/svg" width="64" height="64"><g fill="none" fill-rule="evenodd"><path fill="#27A168" d="M0 0h64v64H0z"/><g fill-rule="nonzero" transform="translate(12 12)"><path fill="#000" d="M6 39c0 1.1.9 2 2 2h30c1.1 0 2-.9 2-2V13c0-1.1-.9-2-2-2H8c-1.1 0-2 .9-2 2v26z" opacity=".1"/><path fill="#D7DBDD" d="M6 38c0 1.1.9 2 2 2h30c1.1 0 2-.9 2-2V11c0-1.1-.9-2-2-2H8c-1.1 0-2 .9-2 2v27z"/><path fill="#FFF" d="M10 31h26v4H10zm0-6h26v4H10zm12-6h14v4H22zm0-6h14v4H22z"/><path fill="#000" d="M20 22c0 1.1-.9 2-2 2H2c-1.1 0-2-.9-2-2V3c0-1.1.9-2 2-2h16c1.1 0 2 .9 2 2v19z" opacity=".1"/><path fill="#FFF" d="M20 21c0 1.1-.9 2-2 2H2c-1.1 0-2-.9-2-2V2C0 .9.9 0 2 0h16c1.1 0 2 .9 2 2v19z"/><circle cx="10" cy="8" r="4" fill="#4AA4EC"/><path fill="#000" d="M10 5c2.038 0 3.701 1.53 3.95 3.5.02-.166.05-.329.05-.5a4 4 0 0 0-8 0c0 .171.03.334.05.5C6.299 6.53 7.962 5 10 5z" opacity=".05"/><path fill="#4AA4EC" d="M16 19a6 6 0 1 0-12 0"/><path fill="#000" d="M10 14a5.996 5.996 0 0 1 5.91 5H16a6 6 0 1 0-12 0h.09A5.996 5.996 0 0 1 10 14z" opacity=".05"/></g></g></svg>