<svg xmlns="http://www.w3.org/2000/svg" width="64" height="64"><g fill="none" fill-rule="evenodd"><path fill="#3E566D" d="M0 0h64v64H0z"/><g fill-rule="nonzero" transform="translate(13 12)"><g fill="#000" opacity=".1" transform="translate(0 1)"><circle cx="4" cy="36" r="4"/><circle cx="4" cy="26" r="4"/><circle cx="14" cy="36" r="4"/><circle cx="24" cy="36" r="4"/><circle cx="14" cy="26" r="4"/><circle cx="4" cy="16" r="4"/><circle cx="34" cy="36" r="4"/><circle cx="34" cy="26" r="4"/><path d="M35 11.001L24 0 13 11.001l2.828 2.828L22 7.656V26h4V7.656l6.172 6.173z"/></g><circle cx="4" cy="36" r="4" fill="#FFBE2A"/><circle cx="4" cy="26" r="4" fill="#FFBE2A"/><circle cx="14" cy="36" r="4" fill="#4AA4EC"/><circle cx="24" cy="36" r="4" fill="#FFBE2A"/><circle cx="14" cy="26" r="4" fill="#FFBE2A"/><circle cx="4" cy="16" r="4" fill="#4AA4EC"/><circle cx="34" cy="36" r="4" fill="#FFBE2A"/><circle cx="34" cy="26" r="4" fill="#4AA4EC"/><path fill="#24CB7F" d="M35 11.001L24 0 13 11.001l2.828 2.828L22 7.656V26h4V7.656l6.172 6.173z"/></g></g></svg>