<svg xmlns="http://www.w3.org/2000/svg" width="64" height="64"><g fill="none" fill-rule="evenodd"><path fill="#FDBD3E" d="M0 0h64v64H0z"/><g fill-rule="nonzero"><path fill="#4AA4EC" d="M12 44h36a4 4 0 0 0 4-4V16a4 4 0 0 0-4-4H16a4 4 0 0 0-4 4v28z"/><path fill="#000" d="M48 12H16a4 4 0 0 0-4 4v1a4 4 0 0 1 4-4h32a4 4 0 0 1 4 4v-1a4 4 0 0 0-4-4z" opacity=".1"/><path fill="#4AA4EC" d="M12 44v8l10-8z"/><path fill="#000" opacity=".1" d="M30.044 40.113L20 30.069l2.949-2.949 6.642 6.642L40.664 19 44 21.503z"/><path fill="#FFF" d="M30.044 39.113L20 29.069l2.949-2.949 6.642 6.642L40.664 18 44 20.503z"/></g></g></svg>