<svg height="64" width="64" xmlns="http://www.w3.org/2000/svg"><g fill="none" fill-rule="evenodd"><path d="M0 0h64v64H0z" fill="#27a168"/><g fill-rule="nonzero"><path d="M48.933 30.949A67.322 67.322 0 0 0 52 29.681a20.677 20.677 0 0 0-.414-1.929 20.576 20.576 0 0 0-.606-1.878c-.989.103-2.099.252-3.29.436a17.087 17.087 0 0 0-2.04-3.573 65.204 65.204 0 0 0 2.012-2.611 20.857 20.857 0 0 0-1.323-1.464c-.47-.47-.961-.909-1.464-1.323-.8.579-1.685 1.266-2.622 2.02a17.064 17.064 0 0 0-1.715-1.147 17.154 17.154 0 0 0-1.846-.91c.183-1.188.332-2.295.434-3.282a20.27 20.27 0 0 0-1.878-.606A20.746 20.746 0 0 0 35.319 13a69.06 69.06 0 0 0-1.26 3.047 17.018 17.018 0 0 0-4.11.02A67.322 67.322 0 0 0 28.681 13a20.36 20.36 0 0 0-1.929.414c-.642.172-1.267.378-1.878.606.103.989.252 2.099.436 3.29a17.047 17.047 0 0 0-3.573 2.041 65.204 65.204 0 0 0-2.611-2.012c-.503.415-.993.853-1.464 1.323-.47.471-.909.961-1.323 1.464.579.8 1.266 1.685 2.02 2.622-.409.545-.798 1.11-1.147 1.715a17.154 17.154 0 0 0-.91 1.846 67.572 67.572 0 0 0-3.282-.434 20.576 20.576 0 0 0-.606 1.878A20.746 20.746 0 0 0 12 29.682a69.06 69.06 0 0 0 3.047 1.26 17.01 17.01 0 0 0 .02 4.109A67.322 67.322 0 0 0 12 36.319c.107.643.242 1.287.414 1.929.172.643.378 1.267.606 1.878a68.147 68.147 0 0 0 3.29-.436 17.047 17.047 0 0 0 2.041 3.573 65.204 65.204 0 0 0-2.012 2.611c.415.503.853.994 1.323 1.464.471.471.961.909 1.464 1.323.8-.579 1.685-1.266 2.622-2.02.545.408 1.11.798 1.715 1.147.603.348 1.221.643 1.846.91a68.924 68.924 0 0 0-.435 3.282c.611.228 1.235.434 1.878.606s1.286.306 1.929.414a69.06 69.06 0 0 0 1.26-3.047c1.375.166 2.753.146 4.11-.02A67.322 67.322 0 0 0 35.319 53a20.677 20.677 0 0 0 1.929-.414 20.676 20.676 0 0 0 1.878-.606 68.147 68.147 0 0 0-.436-3.29 17.087 17.087 0 0 0 3.573-2.04 65.204 65.204 0 0 0 2.611 2.012c.503-.415.994-.853 1.464-1.323s.909-.961 1.323-1.464a66.224 66.224 0 0 0-2.02-2.622c.409-.545.798-1.11 1.147-1.715.348-.603.643-1.221.91-1.846 1.188.183 2.295.332 3.282.434.228-.611.434-1.235.606-1.878s.306-1.286.414-1.929a69.06 69.06 0 0 0-3.047-1.26 17.07 17.07 0 0 0-.02-4.11zm-9.996-9.964c6.032 3.483 8.442 10.807 5.956 17.096l-.971-.472-6.771-3.29a5.27 5.27 0 0 0 .184-1.32c0-2.447-1.657-4.488-3.903-5.117l.537-7.513.077-1.083c1.676.25 3.335.801 4.891 1.699zM29.866 33a2.134 2.134 0 1 1 4.268 0 2.134 2.134 0 0 1-4.268 0zm-9.881-6.937c2.199-3.809 5.933-6.171 9.968-6.776l.077 1.083.537 7.513c-2.246.629-3.903 2.669-3.903 5.117 0 .458.076.895.184 1.32l-6.771 3.29-.976.474c-1.494-3.798-1.315-8.212.884-12.021zm5.078 18.952a13.819 13.819 0 0 1-3.916-3.386l7.123-4.82a5.316 5.316 0 0 0 7.46 0l6.224 4.211.595.402.299.202c-4.205 5.299-11.753 6.874-17.785 3.391z" fill="#000" opacity=".1"/><path d="M32 28.798c.454 0 .885.097 1.277.268l.858-12.007h-4.269l.858 12.007c.391-.17.822-.268 1.276-.268z" fill="#fff"/><path d="M30.031 19.37A12.415 12.415 0 0 1 32 19.193c.673 0 1.326.074 1.969.177l.165-2.311h-4.269z" fill="#f2f3f4"/><path d="M28.834 32.355l-10.841 5.267 2.134 3.697 9.977-6.751a3.186 3.186 0 0 1-1.27-2.213zm6.332 0a3.183 3.183 0 0 1-1.27 2.213l9.977 6.751 2.134-3.697z" fill="#fff"/><path d="M22.047 40.021a12.52 12.52 0 0 1-1.138-1.617 12.507 12.507 0 0 1-.832-1.794l-2.084 1.013 2.134 3.697zm21.876-3.412a12.4 12.4 0 0 1-.832 1.794 12.355 12.355 0 0 1-1.138 1.617l1.919 1.298 2.134-3.697z" fill="#f2f3f4"/><g fill="#fff"><path d="M32 26.664a5.336 5.336 0 1 0 0 10.672 5.336 5.336 0 0 0 0-10.672zm0 7.47a2.134 2.134 0 1 1 0-4.268 2.134 2.134 0 0 1 0 4.268z"/><path d="M48.933 29.949A67.322 67.322 0 0 0 52 28.681a20.677 20.677 0 0 0-.414-1.929 20.576 20.576 0 0 0-.606-1.878c-.989.103-2.099.252-3.29.436a17.087 17.087 0 0 0-2.04-3.573 65.929 65.929 0 0 0 2.012-2.611 20.857 20.857 0 0 0-1.323-1.464c-.47-.47-.961-.909-1.464-1.323-.8.579-1.685 1.266-2.622 2.02a17.064 17.064 0 0 0-1.715-1.147 17.154 17.154 0 0 0-1.846-.91c.183-1.188.332-2.295.434-3.282a20.576 20.576 0 0 0-1.878-.606A20.746 20.746 0 0 0 35.319 12a69.06 69.06 0 0 0-1.26 3.047 17.018 17.018 0 0 0-4.11.02A67.322 67.322 0 0 0 28.681 12a20.36 20.36 0 0 0-1.929.414c-.643.172-1.267.378-1.878.606.103.989.252 2.099.436 3.29a17.087 17.087 0 0 0-3.573 2.04 65.929 65.929 0 0 0-2.611-2.012c-.503.415-.993.853-1.464 1.323-.47.47-.909.961-1.323 1.464.579.8 1.266 1.685 2.02 2.622-.409.545-.798 1.11-1.147 1.715a17.154 17.154 0 0 0-.91 1.846 67.572 67.572 0 0 0-3.282-.434 20.576 20.576 0 0 0-.606 1.878A20.746 20.746 0 0 0 12 28.681a69.06 69.06 0 0 0 3.047 1.26 17.018 17.018 0 0 0 .02 4.11A67.322 67.322 0 0 0 12 35.319c.107.643.242 1.287.414 1.929.172.643.378 1.267.606 1.878a68.147 68.147 0 0 0 3.29-.436 17.087 17.087 0 0 0 2.04 3.573 65.929 65.929 0 0 0-2.012 2.611c.415.503.853.993 1.323 1.464.47.47.961.909 1.464 1.323.8-.579 1.685-1.266 2.622-2.02.545.409 1.11.798 1.715 1.147.603.348 1.221.643 1.846.91a67.572 67.572 0 0 0-.434 3.282c.611.228 1.235.434 1.878.606s1.286.306 1.929.414a69.06 69.06 0 0 0 1.26-3.047c1.375.166 2.753.146 4.11-.02A67.322 67.322 0 0 0 35.319 52a20.677 20.677 0 0 0 1.929-.414 20.576 20.576 0 0 0 1.878-.606 68.147 68.147 0 0 0-.436-3.29 17.087 17.087 0 0 0 3.573-2.04 65.204 65.204 0 0 0 2.611 2.012c.503-.415.993-.853 1.464-1.323.47-.47.909-.961 1.323-1.464a66.224 66.224 0 0 0-2.02-2.622c.409-.545.798-1.11 1.147-1.715.348-.603.643-1.221.91-1.846 1.188.183 2.295.332 3.282.434.228-.611.434-1.235.606-1.878s.306-1.286.414-1.929a69.06 69.06 0 0 0-3.047-1.26 17.07 17.07 0 0 0-.02-4.11zm-23.87 14.066c-6.636-3.831-8.909-12.316-5.078-18.952s12.316-8.909 18.952-5.078 8.909 12.316 5.078 18.952-12.316 8.909-18.952 5.078z"/></g></g></g></svg>