<svg xmlns="http://www.w3.org/2000/svg" width="64" height="64"><g fill="none" fill-rule="evenodd"><path fill="#3E566D" d="M0 0h64v64H0z"/><g fill-rule="nonzero"><path d="M23 39h10v10H23zm-12 0h10v10H11zm0-12h10v10H11zm0-12h10v10H11zm12 0h10v10H23zm12 24h10v10H35zm0-24h10v10H35zM23 27h30v10H23z" fill="#000" opacity=".1"/><path fill="#FFF" d="M23 38h10v10H23zm-12 0h10v10H11zm0-12h10v10H11zm0-12h10v10H11zm12 0h10v10H23zm12 24h10v10H35zm0-24h10v10H35z"/><path fill="#4AA4EC" opacity=".9" d="M23 36V26h30v10"/><path fill="#FFF" d="M50 29l-4 4-4-4z"/></g></g></svg>