<svg xmlns="http://www.w3.org/2000/svg" width="64" height="64"><g fill="none" fill-rule="evenodd"><path fill="#FDBD3E" d="M0 0h64v64H0z"/><g fill-rule="nonzero"><path fill="#000" d="M46 53H18a2 2 0 0 1-2-2V15a2 2 0 0 1 2-2h22l8 8v30a2 2 0 0 1-2 2z" opacity=".1"/><path fill="#FFF" d="M46 52H18a2 2 0 0 1-2-2V14a2 2 0 0 1 2-2h22l8 8v30a2 2 0 0 1-2 2z"/><path fill="#E5E7E9" d="M48 20h-6a2 2 0 0 1-2-2v-6"/><path fill="#4AA4EC" d="M37.707 26.293L29 17.586l-8.707 8.707 1.414 1.414L28 21.414V35h2V21.414l6.293 6.293z"/><path fill="#000" opacity=".05" d="M29 18.586l8.207 8.207.5-.5L29 17.586l-8.707 8.707.5.5z"/><path fill="#24CB7F" d="M26.293 39.293L35 48l8.707-8.707-1.414-1.414L36 44.172V31h-2v13.172l-6.293-6.293z"/><path d="M36 45.172l6.293-6.293.914.914.5-.5-1.414-1.414L36 44.172zm-8.293-6.293L34 45.172v-1l-6.293-6.293-1.414 1.414.5.5zM34 31h2v1h-2z" fill="#000" opacity=".05"/></g></g></svg>