<svg xmlns="http://www.w3.org/2000/svg" width="64" height="64"><g fill="none" fill-rule="evenodd"><path fill="#2085C0" d="M0 0h64v64H0z"/><g fill-rule="nonzero"><path fill="#F9422A" d="M51 20H13v-4a2 2 0 0 1 2-2h34a2 2 0 0 1 2 2v4z"/><path fill="#000" d="M49 51H15a2 2 0 0 1-2-2V21h38v28a2 2 0 0 1-2 2z" opacity=".1"/><path fill="#FFF" d="M49 50H15a2 2 0 0 1-2-2V20h38v28a2 2 0 0 1-2 2z"/><path fill="#E5E7E9" d="M17 24h6v6h-6z"/><path fill="#FFBE2A" d="M25 24h6v6h-6z"/><path fill="#E5E7E9" d="M17 32h6v6h-6zm8 0h6v6h-6z"/><path fill="#FFBE2A" d="M17 40h6v6h-6z"/><path fill="#E5E7E9" d="M25 40h6v6h-6zm8-16h6v6h-6zm8 0h6v6h-6z"/><path fill="#F9422A" d="M33 32h6v6h-6z"/><path fill="#E5E7E9" d="M41 32h6v6h-6zm-8 8h6v6h-6zm8 0h6v6h-6z"/><path fill="#FFF" d="M21 15c0 .55-.45 1-1 1s-1-.45-1-1v-2c0-.55.45-1 1-1s1 .45 1 1v2zm24 0c0 .55-.45 1-1 1s-1-.45-1-1v-2c0-.55.45-1 1-1s1 .45 1 1v2zm-8 0c0 .55-.45 1-1 1s-1-.45-1-1v-2c0-.55.45-1 1-1s1 .45 1 1v2zm-8 0c0 .55-.45 1-1 1s-1-.45-1-1v-2c0-.55.45-1 1-1s1 .45 1 1v2z"/></g></g></svg>