<svg width="96" height="96" xmlns="http://www.w3.org/2000/svg" xmlns:xlink="http://www.w3.org/1999/xlink"><defs><rect id="b" x="14" y="18" width="20" height="26" rx="2"/><filter x="-5%" y="-3.8%" width="110%" height="115.4%" filterUnits="objectBoundingBox" id="a"><feOffset dy="2" in="SourceAlpha" result="shadowOffsetOuter1"/><feComposite in="shadowOffsetOuter1" in2="SourceAlpha" operator="out" result="shadowOffsetOuter1"/><feColorMatrix values="0 0 0 0 0 0 0 0 0 0 0 0 0 0 0 0 0 0 0.1 0" in="shadowOffsetOuter1"/></filter><rect id="d" x="14" y="52" width="20" height="26" rx="2"/><filter x="-5%" y="-3.8%" width="110%" height="115.4%" filterUnits="objectBoundingBox" id="c"><feOffset dy="2" in="SourceAlpha" result="shadowOffsetOuter1"/><feComposite in="shadowOffsetOuter1" in2="SourceAlpha" operator="out" result="shadowOffsetOuter1"/><feColorMatrix values="0 0 0 0 0 0 0 0 0 0 0 0 0 0 0 0 0 0 0.1 0" in="shadowOffsetOuter1"/></filter><rect id="f" x="38" y="52" width="20" height="26" rx="2"/><filter x="-5%" y="-3.8%" width="110%" height="115.4%" filterUnits="objectBoundingBox" id="e"><feOffset dy="2" in="SourceAlpha" result="shadowOffsetOuter1"/><feComposite in="shadowOffsetOuter1" in2="SourceAlpha" operator="out" result="shadowOffsetOuter1"/><feColorMatrix values="0 0 0 0 0 0 0 0 0 0 0 0 0 0 0 0 0 0 0.1 0" in="shadowOffsetOuter1"/></filter><rect id="h" x="38" y="18" width="20" height="26" rx="2"/><filter x="-5%" y="-3.8%" width="110%" height="115.4%" filterUnits="objectBoundingBox" id="g"><feOffset dy="2" in="SourceAlpha" result="shadowOffsetOuter1"/><feComposite in="shadowOffsetOuter1" in2="SourceAlpha" operator="out" result="shadowOffsetOuter1"/><feColorMatrix values="0 0 0 0 0 0 0 0 0 0 0 0 0 0 0 0 0 0 0.1 0" in="shadowOffsetOuter1"/></filter><rect id="j" x="62" y="18" width="20" height="26" rx="2"/><filter x="-5%" y="-3.8%" width="110%" height="115.4%" filterUnits="objectBoundingBox" id="i"><feOffset dy="2" in="SourceAlpha" result="shadowOffsetOuter1"/><feComposite in="shadowOffsetOuter1" in2="SourceAlpha" operator="out" result="shadowOffsetOuter1"/><feColorMatrix values="0 0 0 0 0 0 0 0 0 0 0 0 0 0 0 0 0 0 0.1 0" in="shadowOffsetOuter1"/></filter></defs><g fill="none" fill-rule="evenodd"><path fill="#217E9E" fill-rule="nonzero" d="M0 0h96v96H0z"/><g fill-rule="nonzero"><use fill="#000" filter="url(#a)" xlink:href="#b"/><use fill-opacity=".9" fill="#FFF" xlink:href="#b"/></g><g fill-rule="nonzero"><use fill="#000" filter="url(#c)" xlink:href="#d"/><use fill-opacity=".9" fill="#FFF" xlink:href="#d"/></g><g fill-rule="nonzero"><use fill="#000" filter="url(#e)" xlink:href="#f"/><use fill-opacity=".9" fill="#FFF" xlink:href="#f"/></g><g fill-rule="nonzero"><use fill="#000" filter="url(#g)" xlink:href="#h"/><use fill-opacity=".9" fill="#FFF" xlink:href="#h"/></g><g fill-rule="nonzero"><use fill="#000" filter="url(#i)" xlink:href="#j"/><use fill-opacity=".9" fill="#FFF" xlink:href="#j"/></g><path d="M27 39v1H17v-1h10zm4-2v1H17v-1h14zm-4 36v1H17v-1h10zm4-2v1H17v-1h14zm20 2v1H41v-1h10zm4-2v1H41v-1h14zm-4-32v1H41v-1h10zm4-2v1H41v-1h14zm20 2v1H65v-1h10zm4-2v1H65v-1h14z" fill-opacity=".35" fill="#000" fill-rule="nonzero"/><path d="M24 22a3 3 0 1 1 0 6 3 3 0 0 1 0-6m5 12c0-3-2.239-5-5-5s-5 2-5 5h10zm19-12a3 3 0 1 1 0 6 3 3 0 0 1 0-6m5 12c0-3-2.239-5-5-5s-5 2-5 5h10zm19-12a3 3 0 1 1 0 6 3 3 0 0 1 0-6m5 12c0-3-2.239-5-5-5s-5 2-5 5h10zM24 56a3 3 0 1 1 0 6 3 3 0 0 1 0-6m5 12c0-3-2.239-5-5-5s-5 2-5 5h10zm19-12a3 3 0 1 1 0 6 3 3 0 0 1 0-6m5 12c0-3-2.239-5-5-5s-5 2-5 5h10z" opacity=".35" fill="#000"/></g></svg>