<svg id="Layer_1" data-name="Layer 1" xmlns="http://www.w3.org/2000/svg" width="64" height="64" viewBox="0 0 64 64"><rect width="64" height="64" fill="#309fdb"/><g opacity="0.2" style="isolation:isolate"><path d="M41.5,16h-19A1.5,1.5,0,0,0,21,17.5v29A1.5,1.5,0,0,0,22.5,48h19A1.5,1.5,0,0,0,43,46.5v-29A1.5,1.5,0,0,0,41.5,16ZM25.707,34,30.5,29.207l1.8,1.8L29.293,34Zm12.829-7.793L42,29.67V34H30.711Zm.355-1.061a.5.5,0,0,0-.706,0L33.008,30.3l-2.154-2.155a.5.5,0,0,0-.708,0L24.293,34H22V21H42v7.256ZM22.5,17h19a.5.5,0,0,1,.5.5V20H22V17.5A.5.5,0,0,1,22.5,17Zm19,30h-19a.5.5,0,0,1-.5-.5V35H42V46.5A.5.5,0,0,1,41.5,47Z"/><path d="M37.5,39h-11a.5.5,0,0,0,0,1h11a.5.5,0,0,0,0-1Z"/><path d="M32.5,42h-6a.5.5,0,0,0,0,1h6a.5.5,0,0,0,0-1Z"/></g><path d="M22,35V46.5a.5.5,0,0,0,.5.5h19a.5.5,0,0,0,.5-.5V35Zm10.5,8h-6a.5.5,0,0,1,0-1h6a.5.5,0,0,1,0,1Zm5-3h-11a.5.5,0,0,1,0-1h11a.5.5,0,0,1,0,1Z" fill="#fff" opacity="0.9" style="isolation:isolate"/><path d="M41.5,17h-19a.5.5,0,0,0-.5.5V20H42V17.5A.5.5,0,0,0,41.5,17Z" fill="#fff" opacity="0.9" style="isolation:isolate"/><polygon points="30.711 34 42 34 42 29.67 38.536 26.207 30.711 34" fill="#fcfbfa" opacity="0.6" style="isolation:isolate"/><polygon points="30.5 29.207 25.707 34 29.293 34 32.299 31.006 30.5 29.207" fill="#fcfbfa" opacity="0.6" style="isolation:isolate"/><circle cx="26.5" cy="25.5" r="1.5" fill="#fff" opacity="0.9" style="isolation:isolate"/><path d="M22,21V34h2.293l5.853-5.854a.5.5,0,0,1,.708,0L33.008,30.3l5.177-5.155a.5.5,0,0,1,.706,0L42,28.256V21Zm4.5,6A1.5,1.5,0,1,1,28,25.5,1.5,1.5,0,0,1,26.5,27Z" fill="#fcfbfa" opacity="0.4" style="isolation:isolate"/></svg>